<?xml version="1.0" standalone="no"?>
<!DOCTYPE svg PUBLIC "-//W3C//DTD SVG 1.1//EN" "http://www.w3.org/Graphics/SVG/1.1/DTD/svg11.dtd" >
<svg>
<metadata>
Created by FontForge 20090914 at Fri Feb  7 14:27:58 2014
 By www-data
&#194;&#169; Copyright (c) 2010. All rights reserved. Fakt is a design by Thomas Thiemich, published by OurType. www.ourtype.com
</metadata>
<defs>
<font id="FaktSmConPro-SemiBold" horiz-adv-x="321" >
  <font-face 
    font-family="Fakt SmCon Pro SmBd"
    font-weight="600"
    font-stretch="normal"
    units-per-em="1000"
    panose-1="2 0 0 0 0 0 0 0 0 0"
    ascent="748"
    descent="-252"
    x-height="488"
    cap-height="688"
    bbox="-150 -312 1042 1012"
    underline-thickness="0"
    underline-position="0"
    unicode-range="U+0020-U+FB04"
  />
<missing-glyph horiz-adv-x="712" 
d="M0 0v720h712v-720h-712zM232 184l126 129l126 -129l52 52l-127 130l127 130l-52 52l-126 -129l-126 129l-52 -52l126 -130l-126 -130z" />
    <glyph glyph-name="ff" unicode="ff" horiz-adv-x="565" 
d="M77 0v396h-79v92h79v74c0 56.667 12.5 99.167 37.5 127.5s67.833 42.5 128.5 42.5h46v-95h-26c-24.667 0 -41.5 -5.83301 -50.5 -17.5s-13.5 -31.5 -13.5 -59.5v-72h147v74c0 56.667 12.667 99.167 38 127.5s68.333 42.5 129 42.5h60v-95h-40
c-24.667 0 -41.667 -5.83301 -51 -17.5s-14 -31.5 -14 -59.5v-72h91v-92h-91v-396h-122v396h-147v-396h-122z" />
    <glyph glyph-name="fi" unicode="fi" horiz-adv-x="524" 
d="M346 0v396h-147v-396h-122v396h-79v92h79v74c0 56.667 12.5 99.167 37.5 127.5s67.833 42.5 128.5 42.5h43v-95h-23c-24.667 0 -41.5 -5.83301 -50.5 -17.5s-13.5 -31.5 -13.5 -59.5v-72h269v-488h-122zM342 614v118h130v-118h-130z" />
    <glyph glyph-name="fl" unicode="fl" horiz-adv-x="524" 
d="M77 0v396h-79v92h79v74c0 56.667 12.5 99.167 37.5 127.5s67.833 42.5 128.5 42.5h225v-732h-122v637h-83c-24.667 0 -41.5 -5.83301 -50.5 -17.5s-13.5 -31.5 -13.5 -59.5v-72h81v-92h-81v-396h-122z" />
    <glyph glyph-name="ffi" unicode="ffi" horiz-adv-x="794" 
d="M346 0v396h-147v-396h-122v396h-79v92h79v74c0 56.667 12.5 99.167 37.5 127.5s67.833 42.5 128.5 42.5h48v-95h-28c-24.667 0 -41.5 -5.83301 -50.5 -17.5s-13.5 -31.5 -13.5 -59.5v-72h147v74c0 56.667 12.667 99.167 38 127.5s68.333 42.5 129 42.5h42v-95h-22
c-24.667 0 -41.667 -5.83301 -51 -17.5s-14 -31.5 -14 -59.5v-72h269v-488h-121v396h-148v-396h-122zM612 614v118h129v-118h-129z" />
    <glyph glyph-name="ffl" unicode="ffl" horiz-adv-x="794" 
d="M346 0v396h-147v-396h-122v396h-79v92h79v74c0 56.667 12.5 99.167 37.5 127.5s67.833 42.5 128.5 42.5h46v-95h-26c-24.667 0 -41.5 -5.83301 -50.5 -17.5s-13.5 -31.5 -13.5 -59.5v-72h147v74c0 56.667 12.667 99.167 38 127.5s68.333 42.5 129 42.5h224v-732h-121v637
h-83c-24.667 0 -41.667 -5.83301 -51 -17.5s-14 -31.5 -14 -59.5v-72h86v-92h-86v-396h-122z" />
    <glyph glyph-name="f_b" unicode="fb" horiz-adv-x="804" 
d="M346 0l0.00292969 636.999h-83c-24.667 0 -41.5 -5.83301 -50.5 -17.5s-13.5 -31.5 -13.5 -59.5v-72h81v-92h-81v-396h-122v396h-79v92h79v74c0 56.667 12.5 99.167 37.5 127.5s67.833 42.5 128.5 42.5h225v-145c0 -16 -0.333008 -38.167 -1 -66.5
s-2.33398 -58.833 -5.00098 -91.5h4c12 24 28.667 41.833 50 53.5s46.333 17.5 75 17.5c56 0 100.333 -21.5 133 -64.5s49 -106.167 49 -189.5s-17 -147.166 -51 -191.499s-79 -66.5 -135 -66.5c-28.667 0 -53.334 5.83301 -74.001 17.5s-36.334 29.5 -47.001 53.5h-4v-59
h-116zM468.003 244.999c0 -52 8 -92.334 24 -121.001s38.333 -43 67 -43c29.333 0 51.833 14.5 67.5 43.5s23.5 69.5 23.5 121.5s-7.83301 91.833 -23.5 119.5s-38.167 41.5 -67.5 41.5c-28.667 0 -51 -14.167 -67 -42.5s-24 -68.166 -24 -119.499v0z" />
    <glyph glyph-name="f_h" unicode="fh" horiz-adv-x="802" 
d="M346 0v637.001h-83c-24.667 0 -41.5 -5.83301 -50.5 -17.5s-13.5 -31.5 -13.5 -59.5v-72h81v-92h-81v-396h-122v396h-79v92h79v74c0 56.667 12.5 99.167 37.5 127.5s67.833 42.5 128.5 42.5h225v-139c0 -16.667 -0.333008 -39.834 -1 -69.501
s-2.33398 -61.167 -5.00098 -94.5h4c10.667 24 27.334 41.833 50.001 53.5s48.334 17.5 77.001 17.5c43.333 0 80.166 -13.167 110.499 -39.5s45.5 -72.5 45.5 -138.5v-322h-122v310c0 36 -6.66699 60.833 -20 74.5s-31 20.5 -53 20.5c-24 0 -44.333 -9.5 -61 -28.5
s-25 -47.167 -25 -84.5v-292h-122z" />
    <glyph glyph-name="f_j" unicode="fj" horiz-adv-x="524" 
d="M274 -125h23.999c18.667 0 31.334 5.66699 38.001 17s10 29.333 10 54v450h-147v-396h-122v396h-79v92h79v74c0 56.667 12.5 99.167 37.5 127.5s67.833 42.5 128.5 42.5h43v-95h-23c-24.667 0 -41.5 -5.83301 -50.5 -17.5s-13.5 -31.5 -13.5 -59.5v-72h269v-550
c0 -48.667 -10.333 -87.167 -31 -115.5s-61.667 -42.5 -123 -42.5h-40v95zM341.999 614v118h130v-118h-130z" />
    <glyph glyph-name="f_k" unicode="fk" horiz-adv-x="764" 
d="M346 0v637h-83c-24.667 0 -41.5 -5.83301 -50.5 -17.5s-13.5 -31.5 -13.5 -59.5v-72h81v-92h-81v-396h-122v396h-79v92h79v74c0 56.667 12.5 99.167 37.5 127.5s67.833 42.5 128.5 42.5h225v-441l146 197h135l-157 -197l170 -291h-134l-111 196l-49 -62v-134h-122z" />
    <glyph glyph-name="f_t" unicode="ft" horiz-adv-x="588" 
d="M344 154v242h-145v-396h-122v396h-79v92h79v74c0 56.667 12.5 99.167 37.5 127.5s67.833 42.5 128.5 42.5h42v-95h-22c-24.667 0 -41.5 -5.83301 -50.5 -17.5s-13.5 -31.5 -13.5 -59.5v-72h145v148h121v-148h100v-92h-100v-234c0 -24.667 3.83301 -41.667 11.5 -51
s22.167 -14 43.5 -14h47v-97h-69c-58.667 -0 -99 12.333 -121 37s-33 63.667 -33 117v0z" />
    <glyph glyph-name="f_f_b" unicode="ffb" horiz-adv-x="1074" 
d="M346 0l0.00390625 395.999h-147v-396h-122v396h-79v92h79v74c0 56.667 12.5 99.167 37.5 127.5s67.833 42.5 128.5 42.5h46v-95h-26c-24.667 0 -41.5 -5.83301 -50.5 -17.5s-13.5 -31.5 -13.5 -59.5v-72h147v74c0 56.667 12.667 99.167 38 127.5s68.333 42.5 129 42.5
h224v-145c0 -16.667 -0.333008 -39 -1 -67s-2.33398 -58.333 -5.00098 -91h4c12.667 24 29.5 41.833 50.5 53.5s46.167 17.5 75.5 17.5c55.333 0 99.333 -21.5 132 -64.5s49 -106.167 49 -189.5s-16.833 -147.166 -50.5 -191.499s-78.834 -66.5 -135.501 -66.5
c-28.667 0 -53.334 5.83301 -74.001 17.5s-36.334 29.5 -47.001 53.5h-4v-59h-115v637h-83c-24.667 0 -41.667 -5.83301 -51 -17.5s-14 -31.5 -14 -59.5v-72h86v-92h-86v-396h-122zM737.004 244.999c0 -52 8 -92.334 24 -121.001s38.667 -43 68 -43s51.666 14.5 66.999 43.5
s23 69.5 23 121.5s-7.66699 91.833 -23 119.5s-37.666 41.5 -66.999 41.5s-52 -14.167 -68 -42.5s-24 -68.166 -24 -119.499v0z" />
    <glyph glyph-name="f_f_h" unicode="ffh" horiz-adv-x="1071" 
d="M346 0v396.001h-147v-396h-122v396h-79v92h79v74c0 56.667 12.5 99.167 37.5 127.5s67.833 42.5 128.5 42.5h46v-95h-26c-24.667 0 -41.5 -5.83301 -50.5 -17.5s-13.5 -31.5 -13.5 -59.5v-72h147v74c0 56.667 12.667 99.167 38 127.5s68.333 42.5 129 42.5h224v-139
c0 -16.667 -0.333008 -39.834 -1 -69.501s-2.33398 -61.167 -5.00098 -94.5h4c11.333 24 28.333 41.833 51 53.5s48.334 17.5 77.001 17.5c42 0 78.333 -13.167 109 -39.5s46 -72.5 46 -138.5v-322h-122v310c0 36 -6.66699 60.833 -20 74.5s-30.666 20.5 -51.999 20.5
c-24.667 0 -45.334 -9.83301 -62.001 -29.5s-25 -47.5 -25 -83.5v-292h-121v637h-83c-24.667 0 -41.667 -5.83301 -51 -17.5s-14 -31.5 -14 -59.5v-72h86v-92h-86v-396h-122z" />
    <glyph glyph-name="f_f_j" unicode="ffj" horiz-adv-x="792" 
d="M345 0v396h-147v-396h-122v396h-79v92h79v74c0 56.667 12.5 99.167 37.5 127.5s67.833 42.5 128.5 42.5h48v-95h-28c-24.667 0 -41.5 -5.83301 -50.5 -17.5s-13.5 -31.5 -13.5 -59.5v-72h147v74c0 56.667 12.5 99.167 37.5 127.5s68.167 42.5 129.5 42.5h42v-95h-23
c-24.667 0 -41.5 -5.83301 -50.5 -17.5s-13.5 -31.5 -13.5 -59.5v-72h269v-550c0 -48.667 -10.333 -87.167 -31 -115.5s-61.667 -42.5 -123 -42.5h-39v95h24c18 0 30.333 5.66699 37 17s10 29.333 10 54v450h-147v-396h-122zM610 614v118h130v-118h-130z" />
    <glyph glyph-name="f_f_k" unicode="ffk" horiz-adv-x="1033" 
d="M346 0v396h-147v-396h-122v396h-79v92h79v74c0 56.667 12.5 99.167 37.5 127.5s67.833 42.5 128.5 42.5h46v-95h-26c-24.667 0 -41.5 -5.83301 -50.5 -17.5s-13.5 -31.5 -13.5 -59.5v-72h147v74c0 56.667 12.667 99.167 38 127.5s68.333 42.5 129 42.5h224v-441l147 197
h134l-157 -197l170 -291h-133l-112 196l-49 -62v-134h-121v637h-83c-24.667 0 -41.667 -5.83301 -51 -17.5s-14 -31.5 -14 -59.5v-72h86v-92h-86v-396h-122z" />
    <glyph glyph-name="f_f_t" unicode="fft" horiz-adv-x="857" 
d="M346 0v396h-147v-396h-122v396h-79v92h79v74c0 56.667 12.5 99.167 37.5 127.5s67.833 42.5 128.5 42.5h46v-95h-26c-24.667 0 -41.5 -5.83301 -50.5 -17.5s-13.5 -31.5 -13.5 -59.5v-72h147v74c0 56.667 12.667 99.167 38 127.5s68.333 42.5 129 42.5h45v-95h-25
c-24.667 0 -41.667 -5.83301 -51 -17.5s-14 -31.5 -14 -59.5v-72h145v148h121v-148h103v-92h-103v-234c0 -24.667 4.33301 -41.667 13 -51s23.667 -14 45 -14h45v-97h-67c-58.667 -0 -99.5 12.333 -122.5 37s-34.5 63.667 -34.5 117v242h-145v-396h-122z" />
    <glyph glyph-name=".notdef" horiz-adv-x="712" 
d="M0 0v720h712v-720h-712zM232 184l126 129l126 -129l52 52l-127 130l127 130l-52 52l-126 -129l-126 129l-52 -52l126 -130l-126 -130z" />
    <glyph glyph-name="space" unicode=" " horiz-adv-x="200" 
 />
    <glyph glyph-name="exclam" unicode="!" horiz-adv-x="250" 
d="M89 205l-29 295v188h131v-188l-29 -295h-73zM61 0v131h129v-131h-129z" />
    <glyph glyph-name="quotedbl" unicode="&#x22;" horiz-adv-x="394" 
d="M70 413l-19 178v97h113v-97l-19 -178h-75zM250 413l-20 178v97h113v-97l-19 -178h-74z" />
    <glyph glyph-name="numbersign" unicode="#" horiz-adv-x="568" 
d="M57 449v81h110l28 158h94l-28 -158h112l28 158h95l-28 -158h82v-81h-96l-37 -210h93l-2 -81h-105l-27 -158h-95l27 158h-112l-27 -158h-94l27 158h-85v81h99l37 210h-96zM247 449l-37 -210h112l37 210h-112z" />
    <glyph glyph-name="dollar" unicode="$" horiz-adv-x="491" 
d="M26 196l115.996 0.000976562c1.33301 -36.667 10.333 -64.834 27 -84.501s40 -29.5 70 -29.5c30.667 0 53.834 8.83301 69.501 26.5s23.5 41.834 23.5 72.501s-9.16699 53.167 -27.5 67.5s-40.5 26.833 -66.5 37.5l-69 27c-33.333 12.667 -64.166 33.834 -92.499 63.501
s-42.5 72.167 -42.5 127.5c0 49.333 14 91.5 42 126.5s67 56.833 117 65.5v108h92v-109c45.333 -8.66699 81.666 -29 108.999 -61s42.333 -72.667 45 -122h-116c-2.66699 32.667 -11.5 56.5 -26.5 71.5s-34.167 22.5 -57.5 22.5s-43 -7.5 -59 -22.5s-24 -36.833 -24 -65.5
c0 -30 7.83301 -51.833 23.5 -65.5s36.834 -25.834 63.501 -36.501l69 -28c44 -18 78.833 -42.333 104.5 -73s38.5 -71.334 38.5 -122.001c0 -53.333 -15.333 -98 -46 -134s-72 -58.333 -124 -67v-112h-92v111c-53.333 8 -94.166 30 -122.499 66s-43.166 82.333 -44.499 139
v0z" />
    <glyph glyph-name="percent" unicode="%" horiz-adv-x="726" 
d="M161 336c-48.667 0 -85.167 16 -109.5 48s-36.5 76 -36.5 132c0 54 12.167 97.5 36.5 130.5s60.833 49.5 109.5 49.5c48 0 84.167 -16 108.5 -48s36.5 -76 36.5 -132c0 -54 -12.167 -97.5 -36.5 -130.5s-60.5 -49.5 -108.5 -49.5v0zM161 411
c15.333 0 27.5 7.66699 36.5 23s13.5 42.666 13.5 81.999s-4.5 66.666 -13.5 81.999s-21.167 23 -36.5 23c-16 0 -28.5 -7.66699 -37.5 -23s-13.5 -42.666 -13.5 -81.999s4.5 -66.666 13.5 -81.999s21.5 -23 37.5 -23v0zM172 -12l309 712h74l-309 -712h-74zM566 -8
c-48 0 -84.167 16 -108.5 48s-36.5 76 -36.5 132c0 54 12.167 97.5 36.5 130.5s60.5 49.5 108.5 49.5s84.167 -16 108.5 -48s36.5 -76 36.5 -132c0 -54 -12.167 -97.5 -36.5 -130.5s-60.5 -49.5 -108.5 -49.5v0zM566 67c15.333 0 27.5 7.66699 36.5 23
s13.5 42.666 13.5 81.999s-4.5 66.666 -13.5 81.999s-21.167 23 -36.5 23c-16 0 -28.5 -7.66699 -37.5 -23s-13.5 -42.666 -13.5 -81.999s4.5 -66.666 13.5 -81.999s21.5 -23 37.5 -23v0z" />
    <glyph glyph-name="ampersand" unicode="&#x26;" horiz-adv-x="640" 
d="M32 176c0 46.667 14.001 85.166 42.001 115.499s60 56.833 96 79.5c-26.667 31.333 -45.834 58.833 -57.501 82.5s-17.5 50.167 -17.5 79.5c0 45.333 16.5 84.5 49.5 117.5s80.5 49.5 142.5 49.5c58 0 104 -14.167 138 -42.5s51 -66.166 51 -113.499
c0 -46 -15.5 -83 -46.5 -111s-65.5 -53 -103.5 -75l128 -150c4.66699 16.667 8.5 34.667 11.5 54s4.5 40.333 4.5 63v17h108v-27c0 -25.333 -4.16699 -55.166 -12.5 -89.499s-21.833 -67.833 -40.5 -100.5l107 -125h-137l-40 45c-22 -16.667 -47.667 -30.334 -77 -41.001
s-63 -16 -101 -16c-79.333 0 -140 16.833 -182 50.5s-63 79.5 -63 137.5v0zM282.001 78.999c22 0 42.501 3.00098 61.501 9.00098s35.833 15 50.5 27l-163 187c-22.667 -15.333 -41.334 -32.333 -56.001 -51s-22 -40.334 -22 -65.001c0 -34 12.5 -60.333 37.5 -79
s55.5 -28 91.5 -28v0zM208.002 535c0 -18.667 5 -36.334 15 -53.001s24.333 -35.334 43 -56.001c26.667 16.667 49.5 33.834 68.5 51.501s28.5 38.5 28.5 62.5c0 20.667 -6.66699 38 -20 52s-32 21 -56 21c-26 0 -45.667 -7.66699 -59 -23s-20 -33.666 -20 -54.999v0z" />
    <glyph glyph-name="quotesingle" unicode="'" horiz-adv-x="215" 
d="M70 413l-19 178v97h113v-97l-19 -178h-75z" />
    <glyph glyph-name="parenleft" unicode="(" horiz-adv-x="282" 
d="M14 260c0 106 15.667 201.667 47 287s61.666 151 90.999 197h112c-23.333 -36.667 -51.333 -100 -84 -190s-49 -188 -49 -294s16.667 -204.667 50 -296s61 -155.333 83 -192h-112c-29.333 46 -59.666 112.333 -90.999 199s-47 183 -47 289v0z" />
    <glyph glyph-name="parenright" unicode=")" horiz-adv-x="282" 
d="M18 -228c22 36.667 49.667 100.667 83 192s50 190 50 296s-16.333 204 -49 294s-60.667 153.333 -84 190h111c29.333 -46 59.666 -111.667 90.999 -197s47 -181 47 -287s-15.667 -202.333 -47 -289s-61.666 -153 -90.999 -199h-111z" />
    <glyph glyph-name="asterisk" unicode="*" horiz-adv-x="389" 
d="M150 696h86l-13 -112l102 48l27 -82l-110 -22l76 -82l-70 -50l-54 97l-55 -97l-69 50l75 82l-109 22l26 82l101 -46z" />
    <glyph glyph-name="plus" unicode="+" horiz-adv-x="491" 
d="M44 207v96h151v155h101v-155h152v-96h-152v-155h-101v155h-151z" />
    <glyph glyph-name="comma" unicode="," horiz-adv-x="247" 
d="M114 0h-57v134h133v-126l-49 -175h-59z" />
    <glyph glyph-name="hyphen" unicode="-" horiz-adv-x="329" 
d="M41 201v102h247v-102h-247z" />
    <glyph glyph-name="period" unicode="." horiz-adv-x="247" 
d="M57 0v134h133v-134h-133z" />
    <glyph glyph-name="slash" unicode="/" horiz-adv-x="373" 
d="M6 -12l258 712h102l-258 -712h-102z" />
    <glyph glyph-name="zero" unicode="0" horiz-adv-x="491" 
d="M246 -12c-78.667 0 -135.5 32.167 -170.5 96.5s-52.5 150.833 -52.5 259.5s17.5 195.167 52.5 259.5s91.833 96.5 170.5 96.5c78 0 134.5 -32.5 169.5 -97.5s52.5 -151.167 52.5 -258.5s-17.5 -193.5 -52.5 -258.5s-91.5 -97.5 -169.5 -97.5v0zM246 88
c32.667 0 57.332 20.333 73.999 61s25 105.667 25 195c0 90.667 -8.16699 156 -24.5 196s-41.166 60 -74.499 60c-34 0 -59.167 -20.333 -75.5 -61s-24.5 -105.667 -24.5 -195c0 -90.667 8.16699 -156 24.5 -196s41.5 -60 75.5 -60v0z" />
    <glyph glyph-name="one" unicode="1" horiz-adv-x="491" 
d="M84 460l-49 84l212 144h73v-590h138v-98h-402v98h143v439z" />
    <glyph glyph-name="two" unicode="2" horiz-adv-x="491" 
d="M38 0c2 80 13.5029 142.168 34.5029 186.501s54.5 85.166 100.5 122.499l68 55c26 20.667 47 41.167 63 61.5s24 46.5 24 78.5c0 28.667 -6.83301 52 -20.5 70s-34.834 27 -63.501 27c-28 0 -49.5 -10.167 -64.5 -30.5s-22.833 -49.5 -23.5 -87.5h-117
c1.33301 75.333 21.666 130.333 60.999 165s88.666 52 147.999 52c58 0 106.167 -16.667 144.5 -50s57.5 -81.666 57.5 -144.999c0 -52.667 -11.333 -94.167 -34 -124.5s-54 -61.833 -94 -94.5l-68 -55c-28.667 -23.333 -49 -45.333 -61 -66s-18.667 -42.334 -20 -65.001
h275v-100h-410z" />
    <glyph glyph-name="three" unicode="3" horiz-adv-x="491" 
d="M29 209l117.998 -0.000976562c0 -43.333 8.66699 -75.333 26 -96s40.333 -31 69 -31s51.5 10.167 68.5 30.5s25.5 48.5 25.5 84.5c0 34 -8.5 61.167 -25.5 81.5s-40.833 30.5 -71.5 30.5h-47v94h45c26.667 0 47.834 9.33301 63.501 28s23.5 43.667 23.5 75
c0 30.667 -7.5 55 -22.5 73s-34.833 27 -59.5 27s-44.667 -9.16699 -60 -27.5s-23 -46.166 -23 -83.499h-112c0 63.333 17.167 113.333 51.5 150s82.5 55 144.5 55c64 0 113.333 -18.167 148 -54.5s52 -80.166 52 -131.499c0 -32 -8.16699 -62 -24.5 -90
s-38.166 -49 -65.499 -63v-4c32.667 -12 58.667 -33 78 -63s29 -66 29 -108c0 -56.667 -18.833 -103.834 -56.5 -141.501s-91.167 -56.5 -160.5 -56.5c-71.333 0 -124.833 19.333 -160.5 58s-53.5 93 -53.5 163v0z" />
    <glyph glyph-name="four" unicode="4" horiz-adv-x="491" 
d="M18 154v83l277 451h105v-436h72v-98h-72v-154h-121v154h-261zM126 252h153v249z" />
    <glyph glyph-name="five" unicode="5" horiz-adv-x="491" 
d="M36 184l116.998 -0.000976562c2.66699 -28 11 -51.833 25 -71.5s35.667 -29.5 65 -29.5c26.667 0 48.5 11 65.5 33s25.5 54.667 25.5 98c0 42 -8 74.167 -24 96.5s-38.333 33.5 -67 33.5c-21.333 0 -38.5 -6.5 -51.5 -19.5s-23.167 -28.167 -30.5 -45.5l-111 11l20 398
h354v-102h-248l-10 -189c9.33301 12.667 23 22.834 41 30.501s38.667 11.5 62 11.5c52 0 96.167 -18.833 132.5 -56.5s54.5 -92.5 54.5 -164.5c0 -78 -20.667 -135.833 -62 -173.5s-91 -56.5 -149 -56.5c-67.333 0 -118.166 18.167 -152.499 54.5
s-53.166 83.5 -56.499 141.5v0z" />
    <glyph glyph-name="six" unicode="6" horiz-adv-x="491" 
d="M33 326c0 139.333 21.002 236.498 63.002 291.498s97.333 82.5 166 82.5c62 0 108 -17.167 138 -51.5s47 -78.5 51 -132.5h-115c-2.66699 24.667 -9.5 45.667 -20.5 63s-30.167 26 -57.5 26c-28.667 0 -52.167 -16.667 -70.5 -50s-28.833 -92.666 -31.5 -177.999
c10.667 20 27.667 35.333 51 46s48.666 16 75.999 16c50 0 92.667 -18.667 128 -56s53 -92.666 53 -165.999c0 -76 -20.333 -133.167 -61 -171.5s-90 -57.5 -148 -57.5c-64.667 0 -117.834 23.5 -159.501 70.5s-62.5 136.167 -62.5 267.5v0zM254.002 343.998
c-26.667 0 -48.167 -10.998 -64.5 -32.998s-24.833 -54 -25.5 -96c0 -40.667 7.5 -72.834 22.5 -96.501s36.833 -35.5 65.5 -35.5c28 0 50 11 66 33s24 55 24 99c0 41.333 -7.66699 73.166 -23 95.499s-37 33.5 -65 33.5v0z" />
    <glyph glyph-name="seven" unicode="7" horiz-adv-x="491" 
d="M104 0l228 581h-295v107h421v-77l-230 -611h-124z" />
    <glyph glyph-name="eight" unicode="8" horiz-adv-x="491" 
d="M28 186c0 40 9.33105 75.5 27.998 106.5s44.334 52.833 77.001 65.5v4c-28 12.667 -49.667 33 -65 61s-23 58 -23 90c0 52 17.5 96.167 52.5 132.5s84.5 54.5 148.5 54.5s113.333 -18.167 148 -54.5s52 -80.5 52 -132.5c0 -32 -7.66699 -62 -23 -90s-37 -48.333 -65 -61
v-4c32.667 -12.667 58.334 -34.5 77.001 -65.5s28 -66.5 28 -106.5c0 -56.667 -18.5 -103.834 -55.5 -141.501s-90.833 -56.5 -161.5 -56.5s-124.667 18.833 -162 56.5s-56 84.834 -56 141.501v0zM151.998 197c0 -36 8.5 -64.167 25.5 -84.5s39.833 -30.5 68.5 -30.5
s51.334 10.167 68.001 30.5s25 48.5 25 84.5c0 34 -8.33301 61.167 -25 81.5s-39.334 30.5 -68.001 30.5s-51.5 -10.167 -68.5 -30.5s-25.5 -47.5 -25.5 -81.5v0zM245.998 403c24.667 0 44.5 9.16699 59.5 27.5s22.5 43.5 22.5 75.5c0 30.667 -7.5 55 -22.5 73
s-34.833 27 -59.5 27c-25.333 0 -45.5 -9 -60.5 -27s-22.5 -42.333 -22.5 -73c0 -32 7.5 -57.167 22.5 -75.5s35.167 -27.5 60.5 -27.5v0z" />
    <glyph glyph-name="nine" unicode="9" horiz-adv-x="491" 
d="M456 362c0 -139.333 -19.5 -236.5 -58.5 -291.5s-94.833 -82.5 -167.5 -82.5c-63.333 0 -110 17 -140 51s-47.333 78.333 -52 133h115c2.66699 -24.667 9.83398 -45.667 21.501 -63s31.167 -26 58.5 -26c30.667 0 54.167 16.5 70.5 49.5s25.833 92.167 28.5 177.5
c-10.667 -20 -27.5 -35.333 -50.5 -46s-47.833 -16 -74.5 -16c-51.333 0 -94.5 18.667 -129.5 56s-52.5 93 -52.5 167c0 76 20.167 133.167 60.5 171.5s89.833 57.5 148.5 57.5c65.333 0 118.666 -23.833 159.999 -71.5s62 -136.5 62 -266.5v0zM235 343
c26.667 0 48.332 11 64.999 33s25 54 25 96c0 41.333 -7.5 73.833 -22.5 97.5s-36.833 35.5 -65.5 35.5c-27.333 0 -49.166 -11 -65.499 -33s-24.5 -55 -24.5 -99c0 -42 7.66699 -74.167 23 -96.5s37 -33.5 65 -33.5v0z" />
    <glyph glyph-name="colon" unicode=":" horiz-adv-x="247" 
d="M57 354v134h133v-134h-133zM57 0v134h133v-134h-133z" />
    <glyph glyph-name="semicolon" unicode=";" horiz-adv-x="247" 
d="M57 354v134h133v-134h-133zM114 0h-57v134h133v-126l-49 -175h-59z" />
    <glyph glyph-name="less" unicode="&#x3c;" horiz-adv-x="491" 
d="M58 205v98l376 164v-106l-263 -106l263 -107v-107z" />
    <glyph glyph-name="equal" unicode="=" horiz-adv-x="491" 
d="M44 312v95h403v-95h-403zM44 101v95h403v-95h-403z" />
    <glyph glyph-name="greater" unicode="&#x3e;" horiz-adv-x="491" 
d="M434 303v-98l-376 -164v106l262 106l-262 107v107z" />
    <glyph glyph-name="question" unicode="?" horiz-adv-x="441" 
d="M155 207l-0.00195312 24.001c0 90.667 23.833 146.667 71.5 168s71.5 60 71.5 116c0 24 -6.16699 43.833 -18.5 59.5s-31.166 23.5 -56.499 23.5c-33.333 0 -56.166 -10.833 -68.499 -32.5s-18.5 -47.834 -18.5 -78.501h-116c0 54 15.333 103 46 147s83.667 66 159 66
c61.333 0 109.5 -15.833 144.5 -47.5s52.5 -74.834 52.5 -129.501c0 -81.333 -25.333 -134.166 -76 -158.499s-76 -66.5 -76 -126.5v-31h-115zM148.998 0.000976562v131h128v-131h-128z" />
    <glyph glyph-name="at" unicode="@" horiz-adv-x="862" 
d="M227 124c0 41.333 12.332 74.668 36.999 100.001s62 42.333 112 51l71 12c18.667 2.66699 31.667 7.5 39 14.5s11 18.833 11 35.5c0 23.333 -5.5 41.666 -16.5 54.999s-27.833 20 -50.5 20c-23.333 0 -41.5 -6.66699 -54.5 -20s-19.833 -34 -20.5 -62h-114
c3.33301 57.333 22.5 100 57.5 128s79.167 42 132.5 42c63.333 0 110.5 -14.833 141.5 -44.5s46.5 -73.5 46.5 -131.5v-164c0 -38.667 4.16699 -64.834 12.5 -78.501s20.166 -20.5 35.499 -20.5c20.667 0 39.834 16.667 57.501 50s26.5 87 26.5 161
c0 120 -31 209.667 -93 269s-136.667 89 -224 89c-96.667 0 -174.834 -36.5 -234.501 -109.5s-89.5 -169.833 -89.5 -290.5c0 -122 29 -217.167 87 -285.5s131.333 -102.5 220 -102.5c40 0 74.5 5.66699 103.5 17s54.167 29.333 75.5 54h92
c-30 -46.667 -68.167 -81.667 -114.5 -105s-98.5 -35 -156.5 -35c-109.333 0 -200.833 40.833 -274.5 122.5s-110.5 193.167 -110.5 334.5c0 138.667 37.333 251.667 112 339s171.334 131 290.001 131c109.333 0 202.5 -37 279.5 -111s115.5 -179.667 115.5 -317
c0 -99.333 -19 -171.166 -57 -215.499s-81.333 -66.5 -130 -66.5c-28 0 -53.167 5.16699 -75.5 15.5s-38.833 28.833 -49.5 55.5c-15.333 -26.667 -35.166 -45.5 -59.499 -56.5s-52.5 -16.5 -84.5 -16.5c-46 0 -81.833 12.833 -107.5 38.5s-38.5 58.167 -38.5 97.5v0z
M406.999 74.002c22.667 0 43.333 8.16797 62 24.501s28 45.5 28 87.5v46c-3.33301 -4.66699 -8 -8.33398 -14 -11.001s-12.667 -4.66699 -20 -6l-54 -9c-22 -4 -38.167 -12 -48.5 -24s-15.5 -27.333 -15.5 -46c0 -19.333 6 -34.5 18 -45.5s26.667 -16.5 44 -16.5v0z" />
    <glyph glyph-name="A" unicode="A" horiz-adv-x="588" 
d="M4 0l212 688h157l211 -688h-134l-44 159h-229l-44 -159h-129zM295 565h-4l-85 -302h172z" />
    <glyph glyph-name="B" unicode="B" horiz-adv-x="592" 
d="M63 0v687.999h247c74 0 129.667 -15.833 167 -47.5s56 -75.5 56 -131.5c0 -32.667 -8.83301 -62 -26.5 -88s-45.5 -44.333 -83.5 -55v-4c42 -7.33301 75 -25.666 99 -54.999s36 -64 36 -104c0 -58 -20 -106.333 -60 -145s-96.667 -58 -170 -58h-265zM314 306.999
l-124 -0.000976562v-203h123c40 0 69.5 9.33301 88.5 28s28.5 44 28.5 76c0 28.667 -9.83301 52.334 -29.5 71.001s-48.5 28 -86.5 28v0zM297 583.998l-107 -0.000976562v-181h105c37.333 0 65 9 83 27s27 41.333 27 70c0 24.667 -8.5 44.834 -25.5 60.501
s-44.5 23.5 -82.5 23.5v0z" />
    <glyph glyph-name="C" unicode="C" horiz-adv-x="602" 
d="M36 344c0 110.667 24.999 197.667 74.999 261s119.667 95 209 95c72 0 129.333 -20.667 172 -62s69 -100.333 79 -177h-123c-8.66699 42.667 -23.667 75 -45 97s-49.333 33 -84 33c-48 0 -85.5 -21.5 -112.5 -64.5s-40.5 -103.833 -40.5 -182.5
c0 -78 13.5 -138.667 40.5 -182s64.5 -65 112.5 -65c36.667 0 65.167 11.167 85.5 33.5s34.833 54.5 43.5 96.5h123c-10 -76.667 -36.667 -135.667 -80 -177s-100.666 -62 -171.999 -62c-91.333 0 -161.333 31.667 -210 95s-73 150.333 -73 261v0z" />
    <glyph glyph-name="D" unicode="D" horiz-adv-x="621" 
d="M64 0v688.001h202c106.667 0 186.5 -32.333 239.5 -97s79.5 -146.667 79.5 -246c0 -98.667 -26.5 -180.834 -79.5 -246.501s-132.833 -98.5 -239.5 -98.5h-202zM260 581.001h-69v-474h69c71.333 0 121.666 24.167 150.999 72.5s44 103.5 44 165.5
c0 64 -14.667 119.333 -44 166s-79.666 70 -150.999 70v0z" />
    <glyph glyph-name="E" unicode="E" horiz-adv-x="541" 
d="M64 0v688h430v-107h-303v-179h246v-102h-246v-193h312v-107h-439z" />
    <glyph glyph-name="F" unicode="F" horiz-adv-x="508" 
d="M64 0v688h418v-107h-291v-207h234v-105h-234v-269h-127z" />
    <glyph glyph-name="G" unicode="G" horiz-adv-x="642" 
d="M505 0l-14.999 65.9971h-4c-19.333 -25.333 -43.166 -44.666 -71.499 -57.999s-61.5 -20 -99.5 -20c-86.667 0 -154.834 31.667 -204.501 95s-74.5 150.333 -74.5 261s26.167 197.667 78.5 261s123.166 95 212.499 95c73.333 0 131.833 -20.167 175.5 -60.5
s70.5 -94.166 80.5 -161.499h-123c-8.66699 34 -23.5 61.333 -44.5 82s-50.5 31 -88.5 31c-49.333 0 -88.5 -21.333 -117.5 -64s-43.5 -103.667 -43.5 -183s14.5 -140.333 43.5 -183s68.833 -64 119.5 -64c38 0 71 13.833 99 41.5s42 66.834 42 117.501v20h-140v97h253v-373
h-78z" />
    <glyph glyph-name="H" unicode="H" horiz-adv-x="641" 
d="M64 0v688h127v-284h259v284h127v-688h-127v293h-259v-293h-127z" />
    <glyph glyph-name="I" unicode="I" horiz-adv-x="255" 
d="M64 0v688h127v-688h-127z" />
    <glyph glyph-name="J" unicode="J" horiz-adv-x="479" 
d="M30 181v43h125v-47c0 -30 6.83301 -51.167 20.5 -63.5s30.167 -18.5 49.5 -18.5c20.667 0 37.5 6.33301 50.5 19s19.5 34.667 19.5 66v508h127v-498c0 -72.667 -17.833 -124.5 -53.5 -155.5s-83.5 -46.5 -143.5 -46.5c-56 0 -102.5 15 -139.5 45s-55.5 79.333 -55.5 148
v0z" />
    <glyph glyph-name="K" unicode="K" horiz-adv-x="592" 
d="M63 0v688h127v-313l244 313h141l-237 -296l247 -392h-143l-183 292l-69 -87v-205h-127z" />
    <glyph glyph-name="L" unicode="L" horiz-adv-x="490" 
d="M64 0v688h127v-580h270v-108h-397z" />
    <glyph glyph-name="M" unicode="M" horiz-adv-x="813" 
d="M65 0v688h170l172 -509h3l173 509h166v-688h-125l7 487h-4l-172 -487h-97l-170 484h-4l8 -484h-127z" />
    <glyph glyph-name="N" unicode="N" horiz-adv-x="644" 
d="M64 0v688h107l284 -437h4l-6 437h127v-688h-106l-284 437h-4l5 -437h-127z" />
    <glyph glyph-name="O" unicode="O" horiz-adv-x="648" 
d="M36 344c0 111.333 25.667 198.5 77 261.5s121.666 94.5 210.999 94.5c88.667 0 158.834 -31.5 210.501 -94.5s77.5 -150.167 77.5 -261.5c0 -110.667 -25.833 -197.667 -77.5 -261s-121.834 -95 -210.501 -95c-89.333 0 -159.666 31.5 -210.999 94.5
s-77 150.167 -77 261.5v0zM166 344c0 -78 14.167 -138.667 42.5 -182s66.833 -65 115.5 -65s87.167 21.667 115.5 65s42.5 104 42.5 182s-14.167 138.667 -42.5 182s-66.833 65 -115.5 65s-87.167 -21.667 -115.5 -65s-42.5 -104 -42.5 -182v0z" />
    <glyph glyph-name="P" unicode="P" horiz-adv-x="571" 
d="M64 0v688h221c81.333 0 144 -21 188 -63s66 -96.667 66 -164c0 -70 -22 -126.833 -66 -170.5s-106.667 -65.5 -188 -65.5h-94v-225h-127zM277 584h-86v-255h86c44 0 77.333 11.667 100 35s34 55 34 95c0 39.333 -11.333 70 -34 92s-56 33 -100 33v0z" />
    <glyph glyph-name="Q" unicode="Q" horiz-adv-x="650" 
d="M36 344c0 111.333 25.666 198.501 76.999 261.501s121.666 94.5 210.999 94.5c88.667 0 158.834 -31.5 210.501 -94.5s77.5 -150.167 77.5 -261.5c0 -57.333 -7 -108.333 -21 -153s-34 -82.334 -60 -113.001l109 -135l-78 -71l-114 142
c-18 -8.66699 -37.5 -15.167 -58.5 -19.5s-42.833 -6.5 -65.5 -6.5c-89.333 0 -159.666 31.5 -210.999 94.5s-77 150.167 -77 261.5v0zM165.999 344.001c0 -78 14.167 -138.667 42.5 -182s66.833 -65 115.5 -65s87.167 21.667 115.5 65s42.5 104 42.5 182
s-14.167 138.667 -42.5 182s-66.833 65 -115.5 65s-87.167 -21.667 -115.5 -65s-42.5 -104 -42.5 -182v0z" />
    <glyph glyph-name="R" unicode="R" horiz-adv-x="590" 
d="M62 0v688h224c81.333 0 143.5 -18.5 186.5 -55.5s64.5 -89.167 64.5 -156.5c0 -48 -11.667 -89.667 -35 -125s-57 -61.333 -101 -78l160 -273h-140l-143 255h-88v-255h-128zM284 584h-94v-227h94c42.667 0 74.167 10.833 94.5 32.5s30.5 50.167 30.5 85.5
c0 34 -10.333 60.667 -31 80s-52 29 -94 29v0z" />
    <glyph glyph-name="S" unicode="S" horiz-adv-x="566" 
d="M37 192h123.999c0 -35.333 11.167 -61.666 33.5 -78.999s50.5 -26 84.5 -26c34.667 0 63.167 8.16699 85.5 24.5s33.5 41.5 33.5 75.5c0 77.333 -58.167 116.833 -174.5 118.5s-174.5 66.5 -174.5 194.5c0 57.333 21.333 105 64 143s99.667 57 171 57
c68.667 0 123.834 -16.667 165.501 -50s62.5 -80.333 62.5 -141h-124c0 32.667 -10.167 56.167 -30.5 70.5s-44.833 21.5 -73.5 21.5s-53.667 -7.33301 -75 -22s-32 -37.334 -32 -68.001c0 -77.333 58.333 -116.833 175 -118.5s175 -66.167 175 -193.5
c0 -62 -21.833 -112.667 -65.5 -152s-104.5 -59 -182.5 -59c-77.333 0 -137 18 -179 54s-63 86 -63 150v0z" />
    <glyph glyph-name="T" unicode="T" horiz-adv-x="527" 
d="M8 580v108h511v-108h-192v-580h-127v580h-192z" />
    <glyph glyph-name="U" unicode="U" horiz-adv-x="619" 
d="M55 244l-0.000976562 444.001h128v-446c0 -48 10.833 -84.167 32.5 -108.5s53.167 -36.5 94.5 -36.5s72.833 12.167 94.5 36.5s32.5 60.166 32.5 107.499v447h127v-444c0 -96 -24 -162.667 -72 -200s-108.667 -56 -182 -56s-134.166 18.667 -182.499 56
s-72.5 104 -72.5 200v0z" />
    <glyph glyph-name="V" unicode="V" horiz-adv-x="579" 
d="M209 0l-203 688h133l149 -563h4l153 563h128l-205 -688h-159z" />
    <glyph glyph-name="W" unicode="W" horiz-adv-x="846" 
d="M152 0l-146 688h134l99 -542h4l115 542h135l114 -542h4l98 542h131l-145 -688h-161l-108 520h-4l-108 -520h-162z" />
    <glyph glyph-name="X" unicode="X" horiz-adv-x="564" 
d="M6 0l199 351l-191 337h144l126 -236l122 236h137l-188 -333l203 -355h-144l-138 255l-133 -255h-137z" />
    <glyph glyph-name="Y" unicode="Y" horiz-adv-x="572" 
d="M222 0v264l-214 424h141l137 -294h4l142 294h132l-215 -419v-269h-127z" />
    <glyph glyph-name="Z" unicode="Z" horiz-adv-x="519" 
d="M37 581v107h455v-75l-306 -506h304v-107h-463v73l306 508h-296z" />
    <glyph glyph-name="bracketleft" unicode="[" horiz-adv-x="301" 
d="M168 -134h118v-94h-230v972h230v-94h-118v-784z" />
    <glyph glyph-name="backslash" unicode="\" horiz-adv-x="373" 
d="M264 -12l-258 712h102l258 -712h-102z" />
    <glyph glyph-name="bracketright" unicode="]" horiz-adv-x="301" 
d="M14 -134h119v784h-119v94h230v-972h-230v94z" />
    <glyph glyph-name="asciicircum" unicode="^" horiz-adv-x="491" 
d="M35 352l158 336h96v-1l9 1l158 -336h-107l-104 232l-105 -232h-105z" />
    <glyph glyph-name="underscore" unicode="_" horiz-adv-x="416" 
d="M0 -72h416v-96h-416v96z" />
    <glyph glyph-name="grave" unicode="`" horiz-adv-x="490" 
d="M204 568l-126 164h125l85 -164h-84z" />
    <glyph glyph-name="a" unicode="a" horiz-adv-x="479" 
d="M32 124c0 41.333 12.499 74.501 37.499 99.501s62.5 41.833 112.5 50.5l70 13c20 3.33301 33.667 8.16602 41 14.499s11 17.833 11 34.5c0 23.333 -5.66699 41.833 -17 55.5s-28.333 20.5 -51 20.5s-40.667 -7 -54 -21s-20.333 -34.333 -21 -61h-114
c3.33301 57.333 23 100 59 128s80 42 132 42c63.333 0 110.333 -14.667 141 -44s46 -72.333 46 -129v-327h-115v52h-4c-12 -20.667 -28.333 -36.5 -49 -47.5s-46.667 -16.5 -78 -16.5c-45.333 0 -81.166 12.667 -107.499 38s-39.5 58 -39.5 98v0zM211.999 77.001
c22 0 42.833 8.16895 62.5 24.502s29.5 47.166 29.5 92.499v39c-4 -4.66699 -9 -8.5 -15 -11.5s-12.667 -5.16699 -20 -6.5l-54 -9c-22.667 -4 -39.167 -11.833 -49.5 -23.5s-15.5 -26.834 -15.5 -45.501c0 -20 5.66699 -35 17 -45s26.333 -15 45 -15v0z" />
    <glyph glyph-name="b" unicode="b" horiz-adv-x="514" 
d="M56 0l0.00195312 732h121v-145c0 -16.667 -0.333008 -39 -1 -67s-2.33398 -58.333 -5.00098 -91h4c12.667 24 29.5 41.833 50.5 53.5s46.167 17.5 75.5 17.5c56 0 100.167 -21.333 132.5 -64s48.5 -105.667 48.5 -189s-16.833 -147.333 -50.5 -192
s-78.834 -67 -135.501 -67c-28 0 -52.5 5.83301 -73.5 17.5s-36.833 29.5 -47.5 53.5h-4v-59h-115zM177.002 245c0 -52 8 -92.334 24 -121.001s38.667 -43 68 -43s51.666 14.5 66.999 43.5s23 69.5 23 121.5s-7.66699 91.833 -23 119.5s-37.666 41.5 -66.999 41.5
s-52 -14.167 -68 -42.5s-24 -68.166 -24 -119.499v0z" />
    <glyph glyph-name="c" unicode="c" horiz-adv-x="462" 
d="M30 244c0 81.333 18.998 144.335 56.998 189.002s90 67 156 67c57.333 0 102.833 -15.5 136.5 -46.5s52.834 -74.5 57.501 -130.5h-118c-2.66699 27.333 -10.167 48.166 -22.5 62.499s-30.166 21.5 -53.499 21.5c-28.667 0 -50.834 -14.167 -66.501 -42.5
s-23.5 -68.5 -23.5 -120.5s7.66699 -92.167 23 -120.5s37.333 -42.5 66 -42.5c24 0 42.333 7.16699 55 21.5s20.334 35.166 23.001 62.499h117c-4.66699 -56 -24.167 -99.5 -58.5 -130.5s-79.5 -46.5 -135.5 -46.5c-68 0 -120.5 22.333 -157.5 67s-55.5 107.667 -55.5 189v0
z" />
    <glyph glyph-name="d" unicode="d" horiz-adv-x="514" 
d="M31 241c0 83.333 16.8301 147.332 50.4971 191.999s78.834 67 135.501 67c28.667 0 53.334 -5.83301 74.001 -17.5s36.334 -29.5 47.001 -53.5h3c-2.66699 32.667 -4.16699 62.834 -4.5 90.501s-0.5 49.5 -0.5 65.5v147h121v-732h-115v59h-4
c-11.333 -24 -27.833 -41.833 -49.5 -53.5s-47.167 -17.5 -76.5 -17.5c-55.333 0 -99.333 21.333 -132 64s-49 105.667 -49 189v0zM153.997 241.999c0 -52 7.83301 -91.832 23.5 -119.499s38.167 -41.5 67.5 -41.5s51.833 14.167 67.5 42.5s23.5 68.166 23.5 119.499
c0 52 -7.83301 92.333 -23.5 121s-38.167 43 -67.5 43s-51.833 -14.5 -67.5 -43.5s-23.5 -69.5 -23.5 -121.5v0z" />
    <glyph glyph-name="e" unicode="e" horiz-adv-x="478" 
d="M30 243c0 80 19.333 142.834 58 188.501s90.667 68.5 156 68.5c66 0 116 -21.5 150 -64.5s51 -102.167 51 -177.5v-35h-292c2 -47.333 11 -83.333 27 -108s38.667 -37 68 -37c24 0 42.167 6.5 54.5 19.5s20.833 29.833 25.5 50.5h112
c-7.33301 -50 -28.5 -89.167 -63.5 -117.5s-79.167 -42.5 -132.5 -42.5c-69.333 0 -122.333 22.167 -159 66.5s-55 107.166 -55 188.499v0zM245 410.001c-24.667 0 -44.5 -9.33301 -59.5 -28s-24.833 -46 -29.5 -82h169c-2.66699 36 -10.167 63.333 -22.5 82
s-31.5 28 -57.5 28v0z" />
    <glyph glyph-name="f" unicode="f" horiz-adv-x="296" 
d="M78 0v396h-80v92h80v74c0 56.667 12.667 99.167 38 127.5s68 42.5 128 42.5h61v-95h-40c-24.667 0 -41.667 -5.83301 -51 -17.5s-14 -31.5 -14 -59.5v-72h91v-92h-91v-396h-122z" />
    <glyph glyph-name="g" unicode="g" horiz-adv-x="514" 
d="M44 -62l111.997 0.000976562c0.666992 -23.333 8.5 -42.166 23.5 -56.499s36.167 -21.5 63.5 -21.5c32 0 56.5 9.16699 73.5 27.5s25.5 49.166 25.5 92.499v79h-4c-11.333 -24 -27.833 -41.833 -49.5 -53.5s-47.167 -17.5 -76.5 -17.5c-55.333 0 -99.333 21.333 -132 64
s-49 105.667 -49 189s16.833 147.333 50.5 192s78.834 67 135.501 67c28.667 0 53.334 -5.83301 74.001 -17.5s36.334 -29.5 47.001 -53.5h4v59h115v-500c0 -74.667 -18.667 -129.334 -56 -164.001s-90.333 -52 -159 -52c-60.667 0 -108.667 14 -144 42
s-53.333 69.333 -54 124v0zM153.997 242.001c0 -52 7.83301 -91.832 23.5 -119.499s38.167 -41.5 67.5 -41.5s51.833 14.167 67.5 42.5s23.5 68.166 23.5 119.499c0 52 -7.83301 92.333 -23.5 121s-38.167 43 -67.5 43s-51.833 -14.5 -67.5 -43.5s-23.5 -69.5 -23.5 -121.5
v0z" />
    <glyph glyph-name="h" unicode="h" horiz-adv-x="511" 
d="M56 0v732h121v-140c0 -16 -0.333008 -39 -1 -69s-2.33398 -61.333 -5.00098 -94h4c11.333 24 28.333 41.833 51 53.5s48.334 17.5 77.001 17.5c42.667 0 79.167 -13.167 109.5 -39.5s45.5 -72.5 45.5 -138.5v-322h-122v310c0 36 -6.66699 60.833 -20 74.5
s-30.666 20.5 -51.999 20.5c-24.667 0 -45.334 -9.5 -62.001 -28.5s-25 -46.833 -25 -83.5v-293h-121z" />
    <glyph glyph-name="i" unicode="i" horiz-adv-x="234" 
d="M52 614v118h129v-118h-129zM56 0v488h121v-488h-121z" />
    <glyph glyph-name="j" unicode="j" horiz-adv-x="234" 
d="M52 614v118h129v-118h-129zM56 -54l-0.000976562 542h121v-550c0 -48.667 -10.333 -87.167 -31 -115.5s-61.667 -42.5 -123 -42.5h-38v95h23c18.667 0 31.334 5.66699 38.001 17s10 29.333 10 54v0z" />
    <glyph glyph-name="k" unicode="k" horiz-adv-x="473" 
d="M56 0v732h121v-443l149 199h132l-156 -196l170 -292h-134l-112 196l-49 -63v-133h-121z" />
    <glyph glyph-name="l" unicode="l" horiz-adv-x="234" 
d="M56 0v732h121v-732h-121z" />
    <glyph glyph-name="m" unicode="m" horiz-adv-x="780" 
d="M56 0v487.998h115v-59h4c11.333 24 28.166 41.833 50.499 53.5s47.5 17.5 75.5 17.5c30 0 57 -6.33301 81 -19s42 -33.667 54 -63c15.333 32 35.5 53.667 60.5 65s50.833 17 77.5 17c42.667 0 78.667 -12.833 108 -38.5s44 -70.167 44 -133.5v-328h-121v312
c0 34.667 -6.16699 58.834 -18.5 72.501s-29.5 20.5 -51.5 20.5c-23.333 0 -43 -9.66699 -59 -29s-24 -47 -24 -83v-293h-122v312c0 34.667 -6.16699 58.834 -18.5 72.501s-29.166 20.5 -50.499 20.5c-24 0 -44 -9.5 -60 -28.5s-24 -46.167 -24 -81.5v-295h-121z" />
    <glyph glyph-name="n" unicode="n" horiz-adv-x="511" 
d="M56 0l-0.000976562 488h115v-59h4c11.333 24 28.333 41.833 51 53.5s48.334 17.5 77.001 17.5c42.667 0 79.167 -13.167 109.5 -39.5s45.5 -72.5 45.5 -138.5v-322h-122v310c0 36 -6.66699 60.833 -20 74.5s-30.666 20.5 -51.999 20.5
c-24.667 0 -45.334 -9.5 -62.001 -28.5s-25 -47.167 -25 -84.5v-292h-121z" />
    <glyph glyph-name="o" unicode="o" horiz-adv-x="493" 
d="M31 244c0 81.333 19.1689 144.333 57.502 189s91.166 67 158.499 67c68 0 120.667 -22.333 158 -67s56 -107.667 56 -189s-19 -144.333 -57 -189s-90.333 -67 -157 -67c-68.667 0 -121.834 22.333 -159.501 67s-56.5 107.667 -56.5 189v0zM154.002 244
c0 -52 7.83301 -92.166 23.5 -120.499s38.834 -42.5 69.501 -42.5c30 0 52.667 14 68 42s23 68.333 23 121c0 53.333 -7.66699 93.666 -23 120.999s-38 41 -68 41c-30.667 0 -53.834 -14 -69.501 -42s-23.5 -68 -23.5 -120v0z" />
    <glyph glyph-name="p" unicode="p" horiz-adv-x="514" 
d="M177 -100v-120h-121v708h115v-59h4c12.667 24 29.5 41.833 50.5 53.5s46.167 17.5 75.5 17.5c56 0 100.167 -21.333 132.5 -64s48.5 -105.667 48.5 -189s-16.833 -147.333 -50.5 -192s-78.834 -67 -135.501 -67c-28 0 -52.5 5.83301 -73.5 17.5s-36.833 29.5 -47.5 53.5
h-4c2.66699 -32.667 4.33398 -63.167 5.00098 -91.5s1 -50.833 1 -67.5v0zM359 246c0 52 -7.66699 91.832 -23 119.499s-37.666 41.5 -66.999 41.5s-52 -14.167 -68 -42.5s-24 -68.166 -24 -119.499c0 -52 8 -92.333 24 -121s38.667 -43 68 -43s51.666 14.5 66.999 43.5
s23 69.5 23 121.5v0z" />
    <glyph glyph-name="q" unicode="q" horiz-adv-x="513" 
d="M336 -99c0 16.667 0.166016 39 0.499023 67s1.83301 58.333 4.5 91h-3c-11.333 -24 -27.833 -41.833 -49.5 -53.5s-47.167 -17.5 -76.5 -17.5c-55.333 0 -99.333 21.333 -132 64s-49 105.667 -49 189s16.833 147.333 50.5 192s78.834 67 135.501 67
c28 0 52.5 -5.83301 73.5 -17.5s36.833 -29.5 47.5 -53.5h4v59h115v-708h-121v121zM153.999 242c0 -52 7.83301 -91.832 23.5 -119.499s38.167 -41.5 67.5 -41.5s51.833 14.167 67.5 42.5s23.5 68.166 23.5 119.499c0 52 -7.83301 92.333 -23.5 121s-38.167 43 -67.5 43
s-51.833 -14.5 -67.5 -43.5s-23.5 -69.5 -23.5 -121.5v0z" />
    <glyph glyph-name="r" unicode="r" horiz-adv-x="343" 
d="M56 0l-0.000976562 488h115v-63h3c10.667 24.667 25.167 43.334 43.5 56.001s39.833 19 64.5 19c8.66699 0 18.334 -1.33301 29.001 -4s20.334 -7.33398 29.001 -14.001l-21 -106c-8.66699 5.33301 -17.5 9 -26.5 11s-17.5 3 -25.5 3
c-28.667 0 -50.834 -11.167 -66.501 -33.5s-23.5 -55.5 -23.5 -99.5v-257h-121z" />
    <glyph glyph-name="s" unicode="s" horiz-adv-x="448" 
d="M29 138l109.999 0.00195312c0 -24.667 8 -42.334 24 -53.001s35 -16 57 -16c24.667 0 44.167 5.33301 58.5 16s21.5 26.334 21.5 47.001c0 18.667 -6.33301 32 -19 40s-28 14.333 -46 19l-74 19c-34 8.66699 -63 23.167 -87 43.5s-36 51.5 -36 93.5
c0 47.333 17.5 84.666 52.5 111.999s79.833 41 134.5 41s98.834 -11.833 132.501 -35.5s50.5 -59.5 50.5 -107.5h-110c0 20.667 -6.83301 36.167 -20.5 46.5s-31.5 15.5 -53.5 15.5s-39.5 -5 -52.5 -15s-19.5 -24 -19.5 -42c0 -16.667 5.5 -29.334 16.5 -38.001
s26.833 -15.334 47.5 -20.001l73 -19c32 -8 61.5 -21.667 88.5 -41s40.5 -51 40.5 -95c0 -54 -18.833 -94.333 -56.5 -121s-85.167 -40 -142.5 -40c-56.667 0 -102.5 12.333 -137.5 37s-52.5 62.334 -52.5 113.001v0z" />
    <glyph glyph-name="t" unicode="t" horiz-adv-x="318" 
d="M74 154v242h-80v92h80v148h121v-148h100v-92h-100v-234c0 -24 4.16699 -40.667 12.5 -50s23.5 -14 45.5 -14h42v-98h-64c-58.667 -0 -99.5 12.333 -122.5 37s-34.5 63.667 -34.5 117v0z" />
    <glyph glyph-name="u" unicode="u" horiz-adv-x="509" 
d="M52 166l0.000976562 322h122v-310c0 -36 6.5 -60.833 19.5 -74.5s30.833 -20.5 53.5 -20.5c24 0 44 9.66699 60 29s24 47.333 24 84v292h122v-488h-116v59h-4c-10.667 -24 -27.167 -41.833 -49.5 -53.5s-47.5 -17.5 -75.5 -17.5c-42.667 0 -79.334 13.167 -110.001 39.5
s-46 72.5 -46 138.5v0z" />
    <glyph glyph-name="v" unicode="v" horiz-adv-x="447" 
d="M147 0l-144 488h131l90 -358h4l93 358h122l-144 -488h-152z" />
    <glyph glyph-name="w" unicode="w" horiz-adv-x="678" 
d="M119 0l-114 488h123l67 -362h4l82 362h120l81 -362h4l68 362h119l-115 -488h-138l-79 360h-4l-79 -360h-139z" />
    <glyph glyph-name="x" unicode="x" horiz-adv-x="430" 
d="M4 0l142 244l-139 244h131l81 -157l82 157h122l-139 -241l142 -247h-132l-85 161l-82 -161h-123z" />
    <glyph glyph-name="y" unicode="y" horiz-adv-x="447" 
d="M148 0l-145 488h131l90 -360h4l93 360h122l-167 -565c-12 -40 -31 -75.167 -57 -105.5s-65.667 -45.5 -119 -45.5h-47v97h28c22.667 0 41.5 5.33301 56.5 16s26.833 31.667 35.5 63l13 52h-38z" />
    <glyph glyph-name="z" unicode="z" horiz-adv-x="409" 
d="M27 395v93h352v-73l-208 -322h212v-93h-356v65l212 330h-212z" />
    <glyph glyph-name="braceleft" unicode="{" horiz-adv-x="334" 
d="M102 -69v168c0 42.667 -6 72.667 -18 90s-37 26 -75 26v89c38 0 63 8.83301 75 26.5s18 47.5 18 89.5v164c0 54 10.667 94.167 32 120.5s62.333 39.5 123 39.5h63v-92h-40c-25.333 0 -42.833 -6.16699 -52.5 -18.5s-14.5 -32.833 -14.5 -61.5v-180
c0 -34.667 -6.16699 -62.5 -18.5 -83.5s-33.833 -36.5 -64.5 -46.5v-4c30.667 -10 52.167 -25.5 64.5 -46.5s18.5 -49.167 18.5 -84.5v-183c0 -28.667 4.83301 -49.167 14.5 -61.5s27.167 -18.5 52.5 -18.5h40v-92h-63c-60.667 0 -101.667 13 -123 39s-32 66 -32 120v0z" />
    <glyph glyph-name="bar" unicode="|" horiz-adv-x="251" 
d="M75 -240v1000h100v-1000h-100z" />
    <glyph glyph-name="braceright" unicode="}" horiz-adv-x="334" 
d="M14 -136h40c25.333 0 42.666 6.16699 51.999 18.5s14 32.833 14 61.5v183c0 35.333 6.33301 63.5 19 84.5s34.334 36.5 65.001 46.5v4c-30.667 10 -52.334 25.5 -65.001 46.5s-19 48.833 -19 83.5v180c0 28.667 -4.66699 49.167 -14 61.5s-26.666 18.5 -51.999 18.5h-40
v92h64c60.667 0 101.667 -13 123 -39s32 -66 32 -120v-165c0 -42 5.83301 -71.833 17.5 -89.5s36.5 -26.5 74.5 -26.5v-89c-38 0 -62.833 -8.66699 -74.5 -26s-17.5 -47.333 -17.5 -90v-167c0 -54 -10.667 -94.167 -32 -120.5s-62.333 -39.5 -123 -39.5h-64v92z" />
    <glyph glyph-name="asciitilde" unicode="~" horiz-adv-x="491" 
d="M45 174c0 60 12 102.499 36 127.499s51 37.5 81 37.5c36.667 0 67.334 -10.833 92.001 -32.5s47.334 -32.5 68.001 -32.5c12.667 0 22.334 5.33301 29.001 16s10 28 10 52h86c0 -59.333 -12 -101.666 -36 -126.999s-51 -38 -81 -38c-36.667 0 -67.334 11 -92.001 33
s-47.334 33 -68.001 33c-12.667 0 -22.334 -5.5 -29.001 -16.5s-10 -28.5 -10 -52.5h-86z" />
    <glyph glyph-name="uni00A0" unicode="&#xa0;" horiz-adv-x="200" 
 />
    <glyph glyph-name="exclamdown" unicode="&#xa1;" horiz-adv-x="250" 
d="M61 357v131h129v-131h-129zM61 -12l28 295h73l28 -295v-188h-129v188z" />
    <glyph glyph-name="cent" unicode="&#xa2;" horiz-adv-x="491" 
d="M209 -12v108.002c-51.333 9.33301 -92 35 -122 77s-45 100.333 -45 175c0 75.333 15.833 134 47.5 176s72.834 67.333 123.501 76v100h92v-101c42 -8 76 -26.667 102 -56s41.333 -68 46 -116h-117c-3.33301 27.333 -11.833 48.166 -25.5 62.499
s-31.834 21.5 -54.501 21.5c-26.667 0 -48.5 -13 -65.5 -39s-25.5 -67.333 -25.5 -124s8.5 -98 25.5 -124s38.833 -39 65.5 -39c23.333 0 41.5 7.16699 54.5 21.5s21.5 35.166 25.5 62.499h117c-4.66699 -48.667 -20.167 -88 -46.5 -118s-61.5 -48.667 -105.5 -56v-107h-92z
" />
    <glyph glyph-name="sterling" unicode="&#xa3;" horiz-adv-x="491" 
d="M44 318v73h67c-8 20.667 -15 41.834 -21 63.501s-9 45.5 -9 71.5c0 53.333 16.333 95.666 49 126.999s76.667 47 132 47s97.666 -15 126.999 -45s45.333 -73.667 48 -131h-110c-2 31.333 -8.5 53.833 -19.5 67.5s-26.167 20.5 -45.5 20.5
c-18 0 -32.833 -6.66699 -44.5 -20s-17.5 -33 -17.5 -59c0 -22.667 3.66699 -45.834 11 -69.501s15.333 -47.834 24 -72.501h136v-73h-112c4.66699 -15.333 8.33398 -31.166 11.001 -47.499s4 -32.833 4 -49.5s-1.5 -33.834 -4.5 -51.501s-7.16699 -34.834 -12.5 -51.501
c14 -10.667 27.333 -20 40 -28s25 -12 37 -12c15.333 0 27.333 7.16699 36 21.5s13.334 36.833 14.001 67.5h94c-0.666992 -52 -10.667 -94.833 -30 -128.5s-52 -50.5 -98 -50.5c-25.333 0 -48.166 6.5 -68.499 19.5s-39.166 27.833 -56.499 44.5
c-13.333 -18.667 -29.333 -34 -48 -46s-40.334 -18 -65.001 -18c-32 0 -58.333 8.33301 -79 25s-31 41.334 -31 74.001s10.167 58.334 30.5 77.001s46.5 28 78.5 28c9.33301 0 18.5 -1.16699 27.5 -3.5s17.833 -5.16602 26.5 -8.49902
c-0.666992 27.333 -3.33398 52.333 -8.00098 75s-10.334 43.667 -17.001 63h-96zM112 50c12 0 22 5.5 30 16.5s13.667 25.833 17 44.5c-7.33301 5.33301 -14.833 9.66602 -22.5 12.999s-15.5 5 -23.5 5c-10.667 0 -19.667 -3.66699 -27 -11s-11 -17 -11 -29
c0 -11.333 3.16699 -20.666 9.5 -27.999s15.5 -11 27.5 -11v0z" />
    <glyph glyph-name="currency" unicode="&#xa4;" horiz-adv-x="491" 
d="M110 152l-55 55l54 54c-7.33301 11.333 -13.166 24.166 -17.499 38.499s-6.5 29.166 -6.5 44.499s2.16699 30.166 6.5 44.499s10.166 27.166 17.499 38.499l-53 54l54 55l55 -56c11.333 6.66699 24 11.834 38 15.501s28.333 5.5 43 5.5c14 0 28 -1.83301 42 -5.5
s26.333 -8.83398 37 -15.501l56 56l55 -55l-54 -54c7.33301 -11.333 13.166 -24.166 17.499 -38.499s6.5 -29.166 6.5 -44.499s-2.16699 -30.166 -6.5 -44.499s-10.166 -27.166 -17.499 -38.499l54 -54l-55 -55l-56 56c-10.667 -6.66699 -23 -11.834 -37 -15.501
s-28 -5.5 -42 -5.5c-14.667 0 -29 1.83301 -43 5.5s-26.667 8.83398 -38 15.501zM246 259c22.667 0 41.5 7.66699 56.5 23s22.5 36 22.5 62s-7.5 46.667 -22.5 62s-33.833 23 -56.5 23s-41.667 -7.66699 -57 -23s-23 -36 -23 -62s7.66699 -46.667 23 -62s34.333 -23 57 -23
v0z" />
    <glyph glyph-name="yen" unicode="&#xa5;" horiz-adv-x="491" 
d="M74 229v64h109l-182 395h138l107 -271h4l113 271h127l-183 -395h110v-64h-111v-62h111v-64h-111v-103h-121v103h-111v64h111v62h-111z" />
    <glyph glyph-name="brokenbar" unicode="&#xa6;" horiz-adv-x="251" 
d="M75 336v352h100v-352h-100zM75 -164v352h100v-352h-100z" />
    <glyph glyph-name="section" unicode="&#xa7;" horiz-adv-x="487" 
d="M44 -70h112.001c1.33301 -26.667 10 -45.834 26 -57.501s34.333 -17.5 55 -17.5c26.667 0 47 6.66699 61 20s21 33 21 59c0 22.667 -6.33301 40.334 -19 53.001s-30.334 23.334 -53.001 32.001l-80 31c-42 16.667 -74.333 38.334 -97 65.001s-34 61.334 -34 104.001
c0 32 9.33301 62.333 28 91s44.334 51 77.001 67c-25.333 14 -46.333 32.833 -63 56.5s-25 53.834 -25 90.501c0 51.333 16.833 93.5 50.5 126.5s82.5 49.5 146.5 49.5c55.333 0 100.666 -13.167 135.999 -39.5s54.666 -65.833 57.999 -118.5h-112
c-2 26.667 -10.833 45.834 -26.5 57.501s-34.167 17.5 -55.5 17.5c-26.667 0 -47.167 -6.66699 -61.5 -20s-21.5 -33 -21.5 -59c0 -22.667 6.5 -40.334 19.5 -53.001s30.833 -23.334 53.5 -32.001l80 -31c42 -16.667 74.333 -38.334 97 -65.001s34 -61.334 34 -104.001
c0 -32.667 -9.5 -63.334 -28.5 -92.001s-44.833 -51 -77.5 -67c24.667 -14 45.667 -32.667 63 -56s26 -53.333 26 -90c0 -51.333 -16.833 -93.5 -50.5 -126.5s-82.5 -49.5 -146.5 -49.5c-55.333 0 -100.666 13.167 -135.999 39.5s-54.333 65.833 -57 118.5v0zM258.001 330
l-34 12.998c-24 -8.66699 -43 -22.167 -57 -40.5s-21 -38.833 -21 -61.5c0 -26.667 7 -47.167 21 -61.5s34.667 -27.166 62 -38.499l31 -12c24.667 8 44.5 21.333 59.5 40s22.5 39.334 22.5 62.001c0 26.667 -7 47.167 -21 61.5s-35 26.833 -63 37.5v0z" />
    <glyph glyph-name="dieresis" unicode="&#xa8;" horiz-adv-x="490" 
d="M288 600v111h109v-111h-109zM93 600v111h109v-111h-109z" />
    <glyph glyph-name="copyright" unicode="&#xa9;" horiz-adv-x="649" 
d="M26 346c0 102 27.5 186.5 82.5 253.5s126.833 100.5 215.5 100.5c88 0 159.833 -33.5 215.5 -100.5s83.5 -151.5 83.5 -253.5c0 -102.667 -27.5 -188 -82.5 -256s-127.167 -102 -216.5 -102c-88.667 0 -160.5 34 -215.5 102s-82.5 153.333 -82.5 256v0zM99 346
c0 -81.333 20.5 -150.5 61.5 -207.5s95.5 -85.5 163.5 -85.5c67.333 0 122 28.5 164 85.5s63 126.167 63 207.5s-20.667 149.666 -62 204.999s-96.333 83 -165 83c-68 0 -122.5 -27.667 -163.5 -83s-61.5 -123.666 -61.5 -204.999v0zM180 348c0 48.667 13 90.167 39 124.5
s62.667 51.5 110 51.5c36 0 65.333 -11 88 -33s36.334 -51 41.001 -87h-78c-3.33301 13.333 -8.66602 24.666 -15.999 33.999s-19.333 14 -36 14c-20 0 -35.667 -10 -47 -30s-17 -44.667 -17 -74s5.66699 -54.166 17 -74.499s27 -30.5 47 -30.5
c16.667 0 28.667 4.83301 36 14.5s12.666 21.167 15.999 34.5h78c-4.66699 -36 -18.334 -65 -41.001 -87s-52 -33 -88 -33c-47.333 0 -84 17.167 -110 51.5s-39 75.833 -39 124.5v0z" />
    <glyph glyph-name="ordfeminine" unicode="&#xaa;" horiz-adv-x="350" 
d="M131 336c-32 0 -57.833 8.33203 -77.5 24.999s-29.5 39.334 -29.5 68.001c0 29.333 9.16699 52.833 27.5 70.5s44.833 29.834 79.5 36.501l48 9c14 2.66699 23.667 6.16699 29 10.5s8 12.5 8 24.5c0 16.667 -3.66699 29 -11 37s-18 12 -32 12
c-13.333 0 -24.5 -4 -33.5 -12s-13.833 -22 -14.5 -42h-90c2.66699 44 17.5 75.167 44.5 93.5s58.5 27.5 94.5 27.5c46.667 0 81.5 -10.333 104.5 -31s34.5 -52 34.5 -94v-227h-92v31h-3c-8.66699 -12.667 -20.5 -22.334 -35.5 -29.001s-32.167 -10 -51.5 -10v0z
M216 467.999l0.000976562 35.999c-2.66699 -2.66699 -6 -5 -10 -7s-8.33301 -3.33301 -13 -4l-32 -6c-14.667 -2.66699 -25.334 -8 -32.001 -16s-10 -17.333 -10 -28c0 -13.333 3.83301 -23.5 11.5 -30.5s17.5 -10.5 29.5 -10.5c13.333 0 26 4.83301 38 14.5
s18 26.834 18 51.501v0z" />
    <glyph glyph-name="guillemotleft" unicode="&#xab;" horiz-adv-x="488" 
d="M230 252l119 204h99l-94 -204l94 -204h-99zM158 48l-120 204l120 204h100l-95 -204l95 -204h-100z" />
    <glyph glyph-name="logicalnot" unicode="&#xac;" horiz-adv-x="491" 
d="M45 207v96h401v-252h-101v156h-300z" />
    <glyph glyph-name="uni00AD" unicode="&#xad;" horiz-adv-x="329" 
d="M41 201v102h247v-102h-247z" />
    <glyph glyph-name="registered" unicode="&#xae;" horiz-adv-x="649" 
d="M26 346c0 102 27.5 186.5 82.5 253.5s126.833 100.5 215.5 100.5c88 0 159.833 -33.5 215.5 -100.5s83.5 -151.5 83.5 -253.5c0 -102.667 -27.5 -188 -82.5 -256s-127.167 -102 -216.5 -102c-88.667 0 -160.5 34 -215.5 102s-82.5 153.333 -82.5 256v0zM99 346
c0 -81.333 20.5 -150.5 61.5 -207.5s95.5 -85.5 163.5 -85.5c67.333 0 122 28.5 164 85.5s63 126.167 63 207.5s-20.667 149.666 -62 204.999s-96.333 83 -165 83c-68 0 -122.5 -27.667 -163.5 -83s-61.5 -123.666 -61.5 -204.999v0zM200 176v344h129
c42 0 73.833 -10.167 95.5 -30.5s32.5 -47.5 32.5 -81.5c0 -22 -5.66699 -42 -17 -60s-27 -31.667 -47 -41l74 -131h-87l-60 118h-38v-118h-82zM325 451l-43.001 -0.000976562v-91h43c16.667 0 29.334 4.16699 38.001 12.5s13 19.5 13 33.5
c0 14.667 -4.5 25.834 -13.5 33.501s-21.5 11.5 -37.5 11.5v0z" />
    <glyph glyph-name="macron" unicode="&#xaf;" horiz-adv-x="490" 
d="M116 611v81h257v-81h-257z" />
    <glyph glyph-name="degree" unicode="&#xb0;" horiz-adv-x="373" 
d="M187 404c-44.667 0 -82 13.667 -112 41s-45 62.666 -45 105.999c0 44 15 79.833 45 107.5s67.333 41.5 112 41.5c44 0 81 -13.833 111 -41.5s45 -63.5 45 -107.5c0 -43.333 -15 -78.666 -45 -105.999s-67 -41 -111 -41v0zM187 622c-18.667 0 -34.667 -6.16699 -48 -18.5
s-20 -29.833 -20 -52.5c0 -21.333 6.66699 -38.333 20 -51s29.333 -19 48 -19c18 0 33.5 6.33301 46.5 19s19.5 29.667 19.5 51c0 22.667 -6.5 40.167 -19.5 52.5s-28.5 18.5 -46.5 18.5v0z" />
    <glyph glyph-name="plusminus" unicode="&#xb1;" horiz-adv-x="491" 
d="M46 308v95h149v150h101v-150h151v-95h-151v-150h-101v150h-149zM44 0v94h403v-94h-403z" />
    <glyph glyph-name="twosuperior" unicode="&#xb2;" 
d="M24 496c0.666992 46 9.50098 81.498 26.501 106.498s39.5 45.833 67.5 62.5l29 19c15.333 8.66699 28.166 17.5 38.499 26.5s15.5 19.5 15.5 31.5c0 10.667 -3.33301 19.334 -10 26.001s-17 10 -31 10s-24.833 -4.5 -32.5 -13.5s-11.834 -22.5 -12.501 -40.5h-90
c0.666992 43.333 14.334 74.833 41.001 94.5s58.334 29.5 95.001 29.5c40 0 72.167 -9 96.5 -27s36.5 -43.333 36.5 -76c0 -27.333 -7.33301 -49 -22 -65s-34.334 -31.333 -59.001 -46l-29 -19c-13.333 -7.33301 -24.5 -14.666 -33.5 -21.999s-13.833 -15.333 -14.5 -24h155
v-73h-267z" />
    <glyph glyph-name="threesuperior" unicode="&#xb3;" 
d="M25 600l89.0029 -0.000976562c0 -16.667 4.5 -29.167 13.5 -37.5s20.167 -12.5 33.5 -12.5c12.667 0 23.5 3.83301 32.5 11.5s13.5 19.834 13.5 36.501c0 16 -4.83301 27.667 -14.5 35s-21.834 11 -36.501 11h-20v57h19c14 0 25.333 3.33301 34 10s13 17 13 31
c0 14.667 -3.66699 25.5 -11 32.5s-17.333 10.5 -30 10.5s-22.834 -3.83301 -30.501 -11.5s-11.5 -18.834 -11.5 -33.501h-85c0.666992 32.667 12.167 58.834 34.5 78.501s53.5 29.5 93.5 29.5c42 0 74.167 -9.5 96.5 -28.5s33.5 -42.167 33.5 -69.5
c0 -18.667 -4.5 -34.5 -13.5 -47.5s-20.833 -22.167 -35.5 -27.5v-3c16.667 -4.66699 30.667 -14 42 -28s17 -32.333 17 -55c0 -29.333 -11.833 -53.5 -35.5 -72.5s-58.834 -28.5 -105.501 -28.5c-44 0 -77.5 9.33301 -100.5 28s-34.833 46.667 -35.5 84v0z" />
    <glyph glyph-name="acute" unicode="&#xb4;" horiz-adv-x="490" 
d="M202 568l77 164h126l-119 -164h-84z" />
    <glyph glyph-name="mu" unicode="&#xb5;" horiz-adv-x="517" 
d="M342 0v62h-4c-10.667 -24.667 -26.667 -43.167 -48 -55.5s-46.333 -18.5 -75 -18.5c-8 0 -16 0.666992 -24 2s-15.333 3 -22 5c2.66699 -30 5 -57.667 7 -83s3 -50 3 -74v-58h-120v708h120v-311c0 -36 6.83301 -60.667 20.5 -74s31.5 -20 53.5 -20
c24.667 0 44.667 9.83301 60 29.5s23 47.167 23 82.5v293h122v-488h-116z" />
    <glyph glyph-name="paragraph" unicode="&#xb6;" horiz-adv-x="545" 
d="M378 0v688h106v-688h-106zM204 0v248c-51.333 7.33301 -93.333 30.333 -126 69s-49 89 -49 151c0 66 19.5 119.167 58.5 159.5s91.833 60.5 158.5 60.5h64v-688h-106z" />
    <glyph glyph-name="periodcentered" unicode="&#xb7;" horiz-adv-x="247" 
d="M57 186v133h133v-133h-133z" />
    <glyph glyph-name="cedilla" unicode="&#xb8;" horiz-adv-x="490" 
d="M200 -88l26 87.9971h39v-38c25.333 -1.33301 45.5 -10.166 60.5 -26.499s22.5 -36.166 22.5 -59.499c0 -27.333 -8.66699 -50.166 -26 -68.499s-43 -27.5 -77 -27.5h-63v60h45c12.667 0 22.834 2.66699 30.501 8s11.5 15 11.5 29c0 12.667 -3.83301 21.667 -11.5 27
s-17.834 8 -30.501 8h-27z" />
    <glyph glyph-name="onesuperior" unicode="&#xb9;" 
d="M62 696l-36 63l139 81h55v-269h79v-75h-260v75h84v159z" />
    <glyph glyph-name="ordmasculine" unicode="&#xba;" horiz-adv-x="360" 
d="M180 336c-47.333 0 -85.168 15 -113.501 45s-42.5 75 -42.5 135s14.333 105 43 135s66.334 45 113.001 45c47.333 0 85.166 -15 113.499 -45s42.5 -75 42.5 -135s-14.167 -105 -42.5 -135s-66.166 -45 -113.499 -45v0zM179.998 410c18.667 0 33 8.5 43 25.5
s15 43.833 15 80.5c0 37.333 -5 64.333 -15 81s-24.333 25 -43 25s-33 -8.33301 -43 -25s-15 -43.667 -15 -81c0 -36.667 5 -63.5 15 -80.5s24.333 -25.5 43 -25.5v0z" />
    <glyph glyph-name="guillemotright" unicode="&#xbb;" horiz-adv-x="489" 
d="M231 48l94 204l-94 204h99l119 -204l-119 -204h-99zM40 48l94 204l-94 204h99l119 -204l-119 -204h-99z" />
    <glyph glyph-name="onequarter" unicode="&#xbc;" horiz-adv-x="726" 
d="M422 58v60l166 227h81v-216h37v-71h-37v-58h-95v58h-152zM206 -12l309 712h74l-309 -712h-74zM62 544l-36 63l139 81h55v-269h79v-75h-260v75h84v159zM501 129h73v102z" />
    <glyph glyph-name="onehalf" unicode="&#xbd;" horiz-adv-x="726" 
d="M430 0c0.666992 46 9.50293 81.498 26.5029 106.498s39.167 45.833 66.5 62.5l29 19c15.333 8.66699 28.333 17.5 39 26.5s16 19.5 16 31.5c0 10.667 -3.5 19.334 -10.5 26.001s-17.5 10 -31.5 10s-24.833 -4.5 -32.5 -13.5s-11.834 -22.5 -12.501 -40.5h-89
c0.666992 43.333 14.167 74.833 40.5 94.5s58.166 29.5 95.499 29.5c40 0 72 -9 96 -27s36 -43.333 36 -76c0 -27.333 -7.33301 -49 -22 -65s-34.334 -31.333 -59.001 -46l-29 -19c-13.333 -7.33301 -24.5 -14.666 -33.5 -21.999s-13.833 -15.333 -14.5 -24h155v-73h-266z
M187.003 -12.002l309 712h73l-309 -712h-73zM62.0029 543.998l-36 63l139 81h55v-269h79v-75h-260v75h84v159z" />
    <glyph glyph-name="threequarters" unicode="&#xbe;" horiz-adv-x="726" 
d="M422 58v60l166 227h81v-216h37v-71h-37v-58h-95v58h-152zM25 448l89.0029 -0.000976562c0 -16.667 4.5 -29.167 13.5 -37.5s20.167 -12.5 33.5 -12.5c12.667 0 23.5 3.83301 32.5 11.5s13.5 19.834 13.5 36.501c0 16 -4.83301 27.667 -14.5 35s-21.834 11 -36.501 11h-20
v57h19c14 0 25.333 3.33301 34 10s13 17 13 31c0 14.667 -3.66699 25.5 -11 32.5s-17.333 10.5 -30 10.5s-22.834 -3.83301 -30.501 -11.5s-11.5 -18.834 -11.5 -33.501h-85c0.666992 32.667 12.167 58.834 34.5 78.501s53.5 29.5 93.5 29.5c42 0 74.167 -9.5 96.5 -28.5
s33.5 -42.167 33.5 -69.5c0 -18.667 -4.5 -34.5 -13.5 -47.5s-20.833 -22.167 -35.5 -27.5v-3c16.667 -4.66699 30.667 -14 42 -28s17 -32.333 17 -55c0 -29.333 -11.833 -53.5 -35.5 -72.5s-58.834 -28.5 -105.501 -28.5c-44 0 -77.5 9.33301 -100.5 28
s-34.833 46.667 -35.5 84v0zM192.003 -12.001l309 712h74l-309 -712h-74zM501.003 128.999h73v102z" />
    <glyph glyph-name="questiondown" unicode="&#xbf;" horiz-adv-x="441" 
d="M164 357v131h129v-131h-129zM20 -35c0 81.333 25.334 134.165 76.001 158.498s76 66.5 76 126.5v31h115v-24c0 -90.667 -23.833 -146.667 -71.5 -168s-71.5 -60 -71.5 -116c0 -22.667 6.16699 -42.167 18.5 -58.5s31.166 -24.5 56.499 -24.5
c32.667 0 55.5 10.833 68.5 32.5s19.5 47.834 19.5 78.501h115c0 -54 -15.5 -103 -46.5 -147s-83.833 -66 -158.5 -66c-61.333 0 -109.5 15.833 -144.5 47.5s-52.5 74.834 -52.5 129.501v0z" />
    <glyph glyph-name="Agrave" unicode="&#xc0;" horiz-adv-x="588" 
d="M4 0l212 688h157l211 -688h-134l-44 159h-229l-44 -159h-129zM295 565h-4l-85 -302h172zM252 768l-126 164h125l85 -164h-84z" />
    <glyph glyph-name="Aacute" unicode="&#xc1;" horiz-adv-x="588" 
d="M4 0l212 688h157l211 -688h-134l-44 159h-229l-44 -159h-129zM295 565h-4l-85 -302h172zM250 768l77 164h126l-119 -164h-84z" />
    <glyph glyph-name="Acircumflex" unicode="&#xc2;" horiz-adv-x="588" 
d="M4 0l212 688h157l211 -688h-134l-44 159h-229l-44 -159h-129zM295 565h-4l-85 -302h172zM136 768l110 164h94l110 -164h-97l-60 99l-60 -99h-97z" />
    <glyph glyph-name="Atilde" unicode="&#xc3;" horiz-adv-x="588" 
d="M4 0l212 688h157l211 -688h-134l-44 159h-229l-44 -159h-129zM295 565h-4l-85 -302h172zM137 768c0.666992 36.667 8.66699 66 24 88s38 33 68 33c26 0 49.833 -7.33301 71.5 -22s40.834 -22 57.501 -22c10.667 0 18.5 4.5 23.5 13.5s7.83301 20.5 8.5 34.5h59
c-0.666992 -36.667 -8.66699 -66 -24 -88s-38.333 -33 -69 -33c-25.333 0 -48.833 7.33301 -70.5 22s-40.834 22 -57.501 22c-10.667 0 -18.5 -4.5 -23.5 -13.5s-7.83301 -20.5 -8.5 -34.5h-59z" />
    <glyph glyph-name="Adieresis" unicode="&#xc4;" horiz-adv-x="588" 
d="M4 0l212 688h157l211 -688h-134l-44 159h-229l-44 -159h-129zM295 565h-4l-85 -302h172zM335 768v111h109v-111h-109zM142 768v111h109v-111h-109z" />
    <glyph glyph-name="Aring" unicode="&#xc5;" horiz-adv-x="588" 
d="M4 0l212 688h157l211 -688h-134l-44 159h-229l-44 -159h-129zM295 565h-4l-85 -302h172zM293 756c-30 0 -55.333 9.5 -76 28.5s-31 43.167 -31 72.5c0 30.667 10.5 55.334 31.5 74.001s46.167 28 75.5 28c28.667 0 53.667 -9.33301 75 -28s32 -43.334 32 -74.001
c0 -29.333 -10.333 -53.5 -31 -72.5s-46 -28.5 -76 -28.5v0zM293 807c14 0 25.833 4.83301 35.5 14.5s14.5 21.5 14.5 35.5c0 14.667 -4.83301 26.834 -14.5 36.501s-21.5 14.5 -35.5 14.5s-25.833 -4.83301 -35.5 -14.5s-14.5 -21.834 -14.5 -36.501
c0 -14 4.83301 -25.833 14.5 -35.5s21.5 -14.5 35.5 -14.5v0z" />
    <glyph glyph-name="AE" unicode="&#xc6;" horiz-adv-x="948" 
d="M2 0l406 688h492v-107h-306v-179h250v-102h-250v-193h316v-107h-444v154h-237l-87 -154h-140zM462 562l-173 -304h177v304h-4z" />
    <glyph glyph-name="Ccedilla" unicode="&#xc7;" horiz-adv-x="602" 
d="M274 -88l22 76.9951c-83.333 4.66699 -147.5 38.334 -192.5 101.001s-67.5 147.334 -67.5 254.001c0 110.667 25 197.667 75 261s119.667 95 209 95c72 0 129.333 -20.667 172 -62s69 -100.333 79 -177h-123c-8.66699 42.667 -23.667 75 -45 97s-49.333 33 -84 33
c-48 0 -85.5 -21.5 -112.5 -64.5s-40.5 -103.833 -40.5 -182.5c0 -78 13.5 -138.667 40.5 -182s64.5 -65 112.5 -65c36.667 0 65.167 11.167 85.5 33.5s34.833 54.5 43.5 96.5h123c-9.33301 -73.333 -34 -130.5 -74 -171.5s-92.667 -63.167 -158 -66.5v-27
c25.333 -1.33301 45.5 -10.166 60.5 -26.499s22.5 -36.166 22.5 -59.499c0 -27.333 -8.66699 -50.166 -26 -68.499s-43 -27.5 -77 -27.5h-63v60h45c12.667 0 22.834 2.66699 30.501 8s11.5 15 11.5 29c0 12.667 -3.83301 21.667 -11.5 27s-17.834 8 -30.501 8h-27z" />
    <glyph glyph-name="Egrave" unicode="&#xc8;" horiz-adv-x="541" 
d="M64 0v688h430v-107h-303v-179h246v-102h-246v-193h312v-107h-439zM237 768l-126 164h125l85 -164h-84z" />
    <glyph glyph-name="Eacute" unicode="&#xc9;" horiz-adv-x="541" 
d="M64 0v688h430v-107h-303v-179h246v-102h-246v-193h312v-107h-439zM235 768l77 164h126l-119 -164h-84z" />
    <glyph glyph-name="Ecircumflex" unicode="&#xca;" horiz-adv-x="541" 
d="M64 0v688h430v-107h-303v-179h246v-102h-246v-193h312v-107h-439zM121 768l110 164h94l110 -164h-97l-60 99l-60 -99h-97z" />
    <glyph glyph-name="Edieresis" unicode="&#xcb;" horiz-adv-x="541" 
d="M64 0v688h430v-107h-303v-179h246v-102h-246v-193h312v-107h-439zM320 768v111h109v-111h-109zM127 768v111h109v-111h-109z" />
    <glyph glyph-name="Igrave" unicode="&#xcc;" horiz-adv-x="255" 
d="M64 0v688h127v-688h-127zM87 768l-126 164h125l85 -164h-84z" />
    <glyph glyph-name="Iacute" unicode="&#xcd;" horiz-adv-x="255" 
d="M64 0v688h127v-688h-127zM85 768l77 164h126l-119 -164h-84z" />
    <glyph glyph-name="Icircumflex" unicode="&#xce;" horiz-adv-x="255" 
d="M64 0v688h127v-688h-127zM-29 768l110 164h94l110 -164h-97l-60 99l-60 -99h-97z" />
    <glyph glyph-name="Idieresis" unicode="&#xcf;" horiz-adv-x="255" 
d="M64 0v688h127v-688h-127zM170 768v111h109v-111h-109zM-23 768v111h109v-111h-109z" />
    <glyph glyph-name="Eth" unicode="&#xd0;" horiz-adv-x="621" 
d="M4 305v80.001h60v303h201c107.333 0 187.5 -32.333 240.5 -97s79.5 -146.667 79.5 -246c0 -98.667 -26.5 -180.834 -79.5 -246.501s-133.167 -98.5 -240.5 -98.5h-201v305h-60zM260 581.001h-69v-196h118v-80h-118v-198h69c71.333 0 121.666 24.167 150.999 72.5
s44 103.5 44 165.5c0 64 -14.667 119.333 -44 166s-79.666 70 -150.999 70v0z" />
    <glyph glyph-name="Ntilde" unicode="&#xd1;" horiz-adv-x="644" 
d="M64 0v688h107l284 -437h4l-6 437h127v-688h-106l-284 437h-4l5 -437h-127zM166 768c0.666992 36.667 8.66699 66 24 88s38 33 68 33c26 0 49.833 -7.33301 71.5 -22s40.834 -22 57.501 -22c10.667 0 18.5 4.5 23.5 13.5s7.83301 20.5 8.5 34.5h59
c-0.666992 -36.667 -8.66699 -66 -24 -88s-38.333 -33 -69 -33c-25.333 0 -48.833 7.33301 -70.5 22s-40.834 22 -57.501 22c-10.667 0 -18.5 -4.5 -23.5 -13.5s-7.83301 -20.5 -8.5 -34.5h-59z" />
    <glyph glyph-name="Ograve" unicode="&#xd2;" horiz-adv-x="648" 
d="M36 344c0 111.333 25.667 198.5 77 261.5s121.666 94.5 210.999 94.5c88.667 0 158.834 -31.5 210.501 -94.5s77.5 -150.167 77.5 -261.5c0 -110.667 -25.833 -197.667 -77.5 -261s-121.834 -95 -210.501 -95c-89.333 0 -159.666 31.5 -210.999 94.5
s-77 150.167 -77 261.5v0zM166 344c0 -78 14.167 -138.667 42.5 -182s66.833 -65 115.5 -65s87.167 21.667 115.5 65s42.5 104 42.5 182s-14.167 138.667 -42.5 182s-66.833 65 -115.5 65s-87.167 -21.667 -115.5 -65s-42.5 -104 -42.5 -182v0zM283 768l-126 164h125
l85 -164h-84z" />
    <glyph glyph-name="Oacute" unicode="&#xd3;" horiz-adv-x="648" 
d="M36 344c0 111.333 25.667 198.5 77 261.5s121.666 94.5 210.999 94.5c88.667 0 158.834 -31.5 210.501 -94.5s77.5 -150.167 77.5 -261.5c0 -110.667 -25.833 -197.667 -77.5 -261s-121.834 -95 -210.501 -95c-89.333 0 -159.666 31.5 -210.999 94.5
s-77 150.167 -77 261.5v0zM166 344c0 -78 14.167 -138.667 42.5 -182s66.833 -65 115.5 -65s87.167 21.667 115.5 65s42.5 104 42.5 182s-14.167 138.667 -42.5 182s-66.833 65 -115.5 65s-87.167 -21.667 -115.5 -65s-42.5 -104 -42.5 -182v0zM281 768l77 164h126
l-119 -164h-84z" />
    <glyph glyph-name="Ocircumflex" unicode="&#xd4;" horiz-adv-x="648" 
d="M36 344c0 111.333 25.667 198.5 77 261.5s121.666 94.5 210.999 94.5c88.667 0 158.834 -31.5 210.501 -94.5s77.5 -150.167 77.5 -261.5c0 -110.667 -25.833 -197.667 -77.5 -261s-121.834 -95 -210.501 -95c-89.333 0 -159.666 31.5 -210.999 94.5
s-77 150.167 -77 261.5v0zM166 344c0 -78 14.167 -138.667 42.5 -182s66.833 -65 115.5 -65s87.167 21.667 115.5 65s42.5 104 42.5 182s-14.167 138.667 -42.5 182s-66.833 65 -115.5 65s-87.167 -21.667 -115.5 -65s-42.5 -104 -42.5 -182v0zM167 768l110 164h94l110 -164
h-97l-60 99l-60 -99h-97z" />
    <glyph glyph-name="Otilde" unicode="&#xd5;" horiz-adv-x="648" 
d="M36 344c0 111.333 25.667 198.5 77 261.5s121.666 94.5 210.999 94.5c88.667 0 158.834 -31.5 210.501 -94.5s77.5 -150.167 77.5 -261.5c0 -110.667 -25.833 -197.667 -77.5 -261s-121.834 -95 -210.501 -95c-89.333 0 -159.666 31.5 -210.999 94.5
s-77 150.167 -77 261.5v0zM166 344c0 -78 14.167 -138.667 42.5 -182s66.833 -65 115.5 -65s87.167 21.667 115.5 65s42.5 104 42.5 182s-14.167 138.667 -42.5 182s-66.833 65 -115.5 65s-87.167 -21.667 -115.5 -65s-42.5 -104 -42.5 -182v0zM168 768
c0.666992 36.667 8.66699 66 24 88s38 33 68 33c26 0 49.833 -7.33301 71.5 -22s40.834 -22 57.501 -22c10.667 0 18.5 4.5 23.5 13.5s7.83301 20.5 8.5 34.5h59c-0.666992 -36.667 -8.66699 -66 -24 -88s-38.333 -33 -69 -33c-25.333 0 -48.833 7.33301 -70.5 22
s-40.834 22 -57.501 22c-10.667 0 -18.5 -4.5 -23.5 -13.5s-7.83301 -20.5 -8.5 -34.5h-59z" />
    <glyph glyph-name="Odieresis" unicode="&#xd6;" horiz-adv-x="648" 
d="M36 344c0 111.333 25.667 198.5 77 261.5s121.666 94.5 210.999 94.5c88.667 0 158.834 -31.5 210.501 -94.5s77.5 -150.167 77.5 -261.5c0 -110.667 -25.833 -197.667 -77.5 -261s-121.834 -95 -210.501 -95c-89.333 0 -159.666 31.5 -210.999 94.5
s-77 150.167 -77 261.5v0zM166 344c0 -78 14.167 -138.667 42.5 -182s66.833 -65 115.5 -65s87.167 21.667 115.5 65s42.5 104 42.5 182s-14.167 138.667 -42.5 182s-66.833 65 -115.5 65s-87.167 -21.667 -115.5 -65s-42.5 -104 -42.5 -182v0zM366 768v111h109v-111h-109z
M173 768v111h109v-111h-109z" />
    <glyph glyph-name="multiply" unicode="&#xd7;" horiz-adv-x="491" 
d="M49 385l68 68l129 -130l129 130l68 -68l-129 -131l130 -130l-69 -69l-129 130l-128 -130l-69 69l129 130z" />
    <glyph glyph-name="Oslash" unicode="&#xd8;" horiz-adv-x="648" 
d="M41 -12l67.999 99c-23.333 30.667 -41.333 67.667 -54 111s-19 92 -19 146c0 111.333 25.833 198.5 77.5 261.5s121.834 94.5 210.501 94.5c32.667 0 63.167 -4.5 91.5 -13.5s53.833 -22.167 76.5 -39.5l36 53h79l-68 -100c23.333 -30.667 41.333 -67.5 54 -110.5
s19 -91.5 19 -145.5c0 -110.667 -26 -197.667 -78 -261s-122 -95 -210 -95c-32.667 0 -63.167 4.5 -91.5 13.5s-53.833 21.833 -76.5 38.5l-35 -52h-80zM165.999 344c0 -28 1.83398 -53.832 5.50098 -77.499s9.16699 -44.834 16.5 -63.501l235 344
c-12.667 14.667 -27.334 25.667 -44.001 33s-35 11 -55 11c-48.667 0 -87.167 -21.667 -115.5 -65s-42.5 -104 -42.5 -182v0zM482 344.001c0 28 -2.00098 53.832 -6.00098 77.499s-9.33301 44.834 -16 63.501l-235 -345c12.667 -14 27.334 -24.667 44.001 -32s35 -11 55 -11
c48.667 0 87.167 21.667 115.5 65s42.5 104 42.5 182v0z" />
    <glyph glyph-name="Ugrave" unicode="&#xd9;" horiz-adv-x="619" 
d="M55 244l-0.000976562 444.001h128v-446c0 -48 10.833 -84.167 32.5 -108.5s53.167 -36.5 94.5 -36.5s72.833 12.167 94.5 36.5s32.5 60.166 32.5 107.499v447h127v-444c0 -96 -24 -162.667 -72 -200s-108.667 -56 -182 -56s-134.166 18.667 -182.499 56
s-72.5 104 -72.5 200v0zM268.999 768.001l-126 164h125l85 -164h-84z" />
    <glyph glyph-name="Uacute" unicode="&#xda;" horiz-adv-x="619" 
d="M55 244l-0.000976562 444.001h128v-446c0 -48 10.833 -84.167 32.5 -108.5s53.167 -36.5 94.5 -36.5s72.833 12.167 94.5 36.5s32.5 60.166 32.5 107.499v447h127v-444c0 -96 -24 -162.667 -72 -200s-108.667 -56 -182 -56s-134.166 18.667 -182.499 56
s-72.5 104 -72.5 200v0zM266.999 768.001l77 164h126l-119 -164h-84z" />
    <glyph glyph-name="Ucircumflex" unicode="&#xdb;" horiz-adv-x="619" 
d="M55 244l-0.000976562 444.001h128v-446c0 -48 10.833 -84.167 32.5 -108.5s53.167 -36.5 94.5 -36.5s72.833 12.167 94.5 36.5s32.5 60.166 32.5 107.499v447h127v-444c0 -96 -24 -162.667 -72 -200s-108.667 -56 -182 -56s-134.166 18.667 -182.499 56
s-72.5 104 -72.5 200v0zM152.999 768.001l110 164h94l110 -164h-97l-60 99l-60 -99h-97z" />
    <glyph glyph-name="Udieresis" unicode="&#xdc;" horiz-adv-x="619" 
d="M55 244l-0.000976562 444.001h128v-446c0 -48 10.833 -84.167 32.5 -108.5s53.167 -36.5 94.5 -36.5s72.833 12.167 94.5 36.5s32.5 60.166 32.5 107.499v447h127v-444c0 -96 -24 -162.667 -72 -200s-108.667 -56 -182 -56s-134.166 18.667 -182.499 56
s-72.5 104 -72.5 200v0zM351.999 768.001v111h109v-111h-109zM158.999 768.001v111h109v-111h-109z" />
    <glyph glyph-name="Yacute" unicode="&#xdd;" horiz-adv-x="572" 
d="M222 0v264l-214 424h141l137 -294h4l142 294h132l-215 -419v-269h-127zM243 768l77 164h126l-119 -164h-84z" />
    <glyph glyph-name="Thorn" unicode="&#xde;" horiz-adv-x="571" 
d="M64 0v687.999h127v-106h94c81.333 0 144 -21.167 188 -63.5s66 -97.166 66 -164.499c0 -70 -22 -126.667 -66 -170s-106.667 -65 -188 -65h-94v-119h-127zM277 477.999l-86 0.000976562v-255h86c44 0 77.333 11.5 100 34.5s34 54.5 34 94.5
c0 39.333 -11.333 70.166 -34 92.499s-56 33.5 -100 33.5v0z" />
    <glyph glyph-name="germandbls" unicode="&#xdf;" horiz-adv-x="542" 
d="M56 0v520c0 74 20.167 129.833 60.5 167.5s92.833 56.5 157.5 56.5c71.333 0 121.833 -16.333 151.5 -49s44.5 -68.667 44.5 -108c0 -48.667 -14.833 -85.167 -44.5 -109.5s-44.5 -50.5 -44.5 -78.5c0 -32 23 -61.167 69 -87.5s69 -73.166 69 -140.499
c0 -58 -17.833 -101 -53.5 -129s-79.5 -42 -131.5 -42h-86v96h75c24 0 42.333 5.83301 55 17.5s19 28.5 19 50.5c0 44.667 -22 77.167 -66 97.5s-66 61.5 -66 123.5c0 48 14.833 83.5 44.5 106.5s44.5 52.833 44.5 89.5c0 18.667 -6.66699 35.167 -20 49.5
s-33.333 21.5 -60 21.5c-26 0 -48.667 -9.33301 -68 -28s-29 -52.334 -29 -101.001v-523h-121z" />
    <glyph glyph-name="agrave" unicode="&#xe0;" horiz-adv-x="479" 
d="M32 124c0 41.333 12.499 74.501 37.499 99.501s62.5 41.833 112.5 50.5l70 13c20 3.33301 33.667 8.16602 41 14.499s11 17.833 11 34.5c0 23.333 -5.66699 41.833 -17 55.5s-28.333 20.5 -51 20.5s-40.667 -7 -54 -21s-20.333 -34.333 -21 -61h-114
c3.33301 57.333 23 100 59 128s80 42 132 42c63.333 0 110.333 -14.667 141 -44s46 -72.333 46 -129v-327h-115v52h-4c-12 -20.667 -28.333 -36.5 -49 -47.5s-46.667 -16.5 -78 -16.5c-45.333 0 -81.166 12.667 -107.499 38s-39.5 58 -39.5 98v0zM211.999 77.001
c22 0 42.833 8.16895 62.5 24.502s29.5 47.166 29.5 92.499v39c-4 -4.66699 -9 -8.5 -15 -11.5s-12.667 -5.16699 -20 -6.5l-54 -9c-22.667 -4 -39.167 -11.833 -49.5 -23.5s-15.5 -26.834 -15.5 -45.501c0 -20 5.66699 -35 17 -45s26.333 -15 45 -15v0zM201.999 568.003
l-126 164h125l85 -164h-84z" />
    <glyph glyph-name="aacute" unicode="&#xe1;" horiz-adv-x="479" 
d="M32 124c0 41.333 12.499 74.501 37.499 99.501s62.5 41.833 112.5 50.5l70 13c20 3.33301 33.667 8.16602 41 14.499s11 17.833 11 34.5c0 23.333 -5.66699 41.833 -17 55.5s-28.333 20.5 -51 20.5s-40.667 -7 -54 -21s-20.333 -34.333 -21 -61h-114
c3.33301 57.333 23 100 59 128s80 42 132 42c63.333 0 110.333 -14.667 141 -44s46 -72.333 46 -129v-327h-115v52h-4c-12 -20.667 -28.333 -36.5 -49 -47.5s-46.667 -16.5 -78 -16.5c-45.333 0 -81.166 12.667 -107.499 38s-39.5 58 -39.5 98v0zM211.999 77.001
c22 0 42.833 8.16895 62.5 24.502s29.5 47.166 29.5 92.499v39c-4 -4.66699 -9 -8.5 -15 -11.5s-12.667 -5.16699 -20 -6.5l-54 -9c-22.667 -4 -39.167 -11.833 -49.5 -23.5s-15.5 -26.834 -15.5 -45.501c0 -20 5.66699 -35 17 -45s26.333 -15 45 -15v0zM183.999 568.003
l77 164h126l-119 -164h-84z" />
    <glyph glyph-name="acircumflex" unicode="&#xe2;" horiz-adv-x="479" 
d="M32 124c0 41.333 12.499 74.501 37.499 99.501s62.5 41.833 112.5 50.5l70 13c20 3.33301 33.667 8.16602 41 14.499s11 17.833 11 34.5c0 23.333 -5.66699 41.833 -17 55.5s-28.333 20.5 -51 20.5s-40.667 -7 -54 -21s-20.333 -34.333 -21 -61h-114
c3.33301 57.333 23 100 59 128s80 42 132 42c63.333 0 110.333 -14.667 141 -44s46 -72.333 46 -129v-327h-115v52h-4c-12 -20.667 -28.333 -36.5 -49 -47.5s-46.667 -16.5 -78 -16.5c-45.333 0 -81.166 12.667 -107.499 38s-39.5 58 -39.5 98v0zM211.999 77.001
c22 0 42.833 8.16895 62.5 24.502s29.5 47.166 29.5 92.499v39c-4 -4.66699 -9 -8.5 -15 -11.5s-12.667 -5.16699 -20 -6.5l-54 -9c-22.667 -4 -39.167 -11.833 -49.5 -23.5s-15.5 -26.834 -15.5 -45.501c0 -20 5.66699 -35 17 -45s26.333 -15 45 -15v0zM77.999 568.003
l110 164h94l110 -164h-97l-60 99l-60 -99h-97z" />
    <glyph glyph-name="atilde" unicode="&#xe3;" horiz-adv-x="479" 
d="M32 124c0 41.333 12.499 74.501 37.499 99.501s62.5 41.833 112.5 50.5l70 13c20 3.33301 33.667 8.16602 41 14.499s11 17.833 11 34.5c0 23.333 -5.66699 41.833 -17 55.5s-28.333 20.5 -51 20.5s-40.667 -7 -54 -21s-20.333 -34.333 -21 -61h-114
c3.33301 57.333 23 100 59 128s80 42 132 42c63.333 0 110.333 -14.667 141 -44s46 -72.333 46 -129v-327h-115v52h-4c-12 -20.667 -28.333 -36.5 -49 -47.5s-46.667 -16.5 -78 -16.5c-45.333 0 -81.166 12.667 -107.499 38s-39.5 58 -39.5 98v0zM211.999 77.001
c22 0 42.833 8.16895 62.5 24.502s29.5 47.166 29.5 92.499v39c-4 -4.66699 -9 -8.5 -15 -11.5s-12.667 -5.16699 -20 -6.5l-54 -9c-22.667 -4 -39.167 -11.833 -49.5 -23.5s-15.5 -26.834 -15.5 -45.501c0 -20 5.66699 -35 17 -45s26.333 -15 45 -15v0zM78.999 588.003
c0.666992 36.667 8.66699 66 24 88s38 33 68 33c26 0 49.833 -7.33301 71.5 -22s40.834 -22 57.501 -22c10.667 0 18.5 4.5 23.5 13.5s7.83301 20.5 8.5 34.5h59c-0.666992 -36.667 -8.66699 -66 -24 -88s-38.333 -33 -69 -33c-25.333 0 -48.833 7.33301 -70.5 22
s-40.834 22 -57.501 22c-10.667 0 -18.5 -4.5 -23.5 -13.5s-7.83301 -20.5 -8.5 -34.5h-59z" />
    <glyph glyph-name="adieresis" unicode="&#xe4;" horiz-adv-x="479" 
d="M32 124c0 41.333 12.499 74.501 37.499 99.501s62.5 41.833 112.5 50.5l70 13c20 3.33301 33.667 8.16602 41 14.499s11 17.833 11 34.5c0 23.333 -5.66699 41.833 -17 55.5s-28.333 20.5 -51 20.5s-40.667 -7 -54 -21s-20.333 -34.333 -21 -61h-114
c3.33301 57.333 23 100 59 128s80 42 132 42c63.333 0 110.333 -14.667 141 -44s46 -72.333 46 -129v-327h-115v52h-4c-12 -20.667 -28.333 -36.5 -49 -47.5s-46.667 -16.5 -78 -16.5c-45.333 0 -81.166 12.667 -107.499 38s-39.5 58 -39.5 98v0zM211.999 77.001
c22 0 42.833 8.16895 62.5 24.502s29.5 47.166 29.5 92.499v39c-4 -4.66699 -9 -8.5 -15 -11.5s-12.667 -5.16699 -20 -6.5l-54 -9c-22.667 -4 -39.167 -11.833 -49.5 -23.5s-15.5 -26.834 -15.5 -45.501c0 -20 5.66699 -35 17 -45s26.333 -15 45 -15v0zM277.999 600.003
v111h109v-111h-109zM82.999 600.003v111h109v-111h-109z" />
    <glyph glyph-name="aring" unicode="&#xe5;" horiz-adv-x="479" 
d="M32 124c0 41.333 12.499 74.501 37.499 99.501s62.5 41.833 112.5 50.5l70 13c20 3.33301 33.667 8.16602 41 14.499s11 17.833 11 34.5c0 23.333 -5.66699 41.833 -17 55.5s-28.333 20.5 -51 20.5s-40.667 -7 -54 -21s-20.333 -34.333 -21 -61h-114
c3.33301 57.333 23 100 59 128s80 42 132 42c63.333 0 110.333 -14.667 141 -44s46 -72.333 46 -129v-327h-115v52h-4c-12 -20.667 -28.333 -36.5 -49 -47.5s-46.667 -16.5 -78 -16.5c-45.333 0 -81.166 12.667 -107.499 38s-39.5 58 -39.5 98v0zM211.999 77.001
c22 0 42.833 8.16895 62.5 24.502s29.5 47.166 29.5 92.499v39c-4 -4.66699 -9 -8.5 -15 -11.5s-12.667 -5.16699 -20 -6.5l-54 -9c-22.667 -4 -39.167 -11.833 -49.5 -23.5s-15.5 -26.834 -15.5 -45.501c0 -20 5.66699 -35 17 -45s26.333 -15 45 -15v0zM234.999 556.003
c-30 0 -55.333 9.5 -76 28.5s-31 43.167 -31 72.5c0 30.667 10.5 55.334 31.5 74.001s46.167 28 75.5 28c28.667 0 53.667 -9.33301 75 -28s32 -43.334 32 -74.001c0 -29.333 -10.333 -53.5 -31 -72.5s-46 -28.5 -76 -28.5v0zM234.999 607.003
c14 0 25.833 4.83301 35.5 14.5s14.5 21.5 14.5 35.5c0 14.667 -4.83301 26.834 -14.5 36.501s-21.5 14.5 -35.5 14.5s-25.833 -4.83301 -35.5 -14.5s-14.5 -21.834 -14.5 -36.501c0 -14 4.83301 -25.833 14.5 -35.5s21.5 -14.5 35.5 -14.5v0z" />
    <glyph glyph-name="ae" unicode="&#xe6;" horiz-adv-x="734" 
d="M47 330c3.33301 60 23.332 103.333 59.999 130s80 40 130 40c32 0 59.333 -4 82 -12s41 -20.333 55 -37c15.333 16 33.833 28.167 55.5 36.5s45.834 12.5 72.501 12.5c64 0 113.333 -21.5 148 -64.5s52 -102.167 52 -177.5v-35h-286c2 -48 10.833 -84.167 26.5 -108.5
s36.834 -36.5 63.501 -36.5c24 0 41.833 6.5 53.5 19.5s19.834 29.833 24.501 50.5h112c-7.33301 -50 -28.333 -89.167 -63 -117.5s-78 -42.5 -130 -42.5c-38 0 -70.333 7.5 -97 22.5s-47.667 36.5 -63 64.5c-17.333 -33.333 -39.5 -56.166 -66.5 -68.499
s-56.167 -18.5 -87.5 -18.5c-50 0 -88.333 12.5 -115 37.5s-40 57.833 -40 98.5c0 41.333 12.5 74.5 37.5 99.5s62.167 41.833 111.5 50.5l70 13c21.333 4 35.166 8.83301 41.499 14.5s9.5 17.5 9.5 35.5c0 23.333 -5.66699 41.666 -17 54.999s-28.333 20 -51 20
c-22 0 -39.833 -6.5 -53.5 -19.5s-20.834 -33.833 -21.501 -62.5h-114zM212.999 76c22.667 0 43.5 8.00098 62.5 24.001s28.5 46.667 28.5 92v41c-3.33301 -4.66699 -8 -8.5 -14 -11.5s-12.667 -5.16699 -20 -6.5l-54 -9c-22 -4 -38.333 -11.833 -49 -23.5
s-16 -26.834 -16 -45.501c0 -20 6 -35.167 18 -45.5s26.667 -15.5 44 -15.5v0zM501.999 410.001c-24 0 -42.8311 -9.5 -56.498 -28.5s-22.5 -46.5 -26.5 -82.5h162c-2.66699 36 -10.334 63.5 -23.001 82.5s-31.334 28.5 -56.001 28.5v0z" />
    <glyph glyph-name="ccedilla" unicode="&#xe7;" horiz-adv-x="462" 
d="M196 -88l21.998 77c-60 5.33301 -106.333 30 -139 74s-49 104.333 -49 181c0 81.333 19 144.333 57 189s90 67 156 67c57.333 0 102.833 -15.5 136.5 -46.5s52.834 -74.5 57.501 -130.5h-118c-2.66699 27.333 -10.167 48.166 -22.5 62.499s-30.166 21.5 -53.499 21.5
c-28.667 0 -50.834 -14.167 -66.501 -42.5s-23.5 -68.5 -23.5 -120.5s7.66699 -92.167 23 -120.5s37.333 -42.5 66 -42.5c24 0 42.333 7.16699 55 21.5s20.334 35.166 23.001 62.499h117c-4.66699 -53.333 -22.5 -95.333 -53.5 -126s-71.833 -47.334 -122.5 -50.001v-27
c25.333 -1.33301 45.5 -10.166 60.5 -26.499s22.5 -36.166 22.5 -59.499c0 -27.333 -8.66699 -50.166 -26 -68.499s-43 -27.5 -77 -27.5h-63v60h45c12.667 0 22.834 2.66699 30.501 8s11.5 15 11.5 29c0 12.667 -3.83301 21.667 -11.5 27s-17.834 8 -30.501 8h-27z" />
    <glyph glyph-name="egrave" unicode="&#xe8;" horiz-adv-x="478" 
d="M30 243c0 80 19.333 142.834 58 188.501s90.667 68.5 156 68.5c66 0 116 -21.5 150 -64.5s51 -102.167 51 -177.5v-35h-292c2 -47.333 11 -83.333 27 -108s38.667 -37 68 -37c24 0 42.167 6.5 54.5 19.5s20.833 29.833 25.5 50.5h112
c-7.33301 -50 -28.5 -89.167 -63.5 -117.5s-79.167 -42.5 -132.5 -42.5c-69.333 0 -122.333 22.167 -159 66.5s-55 107.166 -55 188.499v0zM245 410.001c-24.667 0 -44.5 -9.33301 -59.5 -28s-24.833 -46 -29.5 -82h169c-2.66699 36 -10.167 63.333 -22.5 82
s-31.5 28 -57.5 28v0zM202 568.001l-126 164h125l85 -164h-84z" />
    <glyph glyph-name="eacute" unicode="&#xe9;" horiz-adv-x="478" 
d="M30 243c0 80 19.333 142.834 58 188.501s90.667 68.5 156 68.5c66 0 116 -21.5 150 -64.5s51 -102.167 51 -177.5v-35h-292c2 -47.333 11 -83.333 27 -108s38.667 -37 68 -37c24 0 42.167 6.5 54.5 19.5s20.833 29.833 25.5 50.5h112
c-7.33301 -50 -28.5 -89.167 -63.5 -117.5s-79.167 -42.5 -132.5 -42.5c-69.333 0 -122.333 22.167 -159 66.5s-55 107.166 -55 188.499v0zM245 410.001c-24.667 0 -44.5 -9.33301 -59.5 -28s-24.833 -46 -29.5 -82h169c-2.66699 36 -10.167 63.333 -22.5 82
s-31.5 28 -57.5 28v0zM200 568.001l77 164h126l-119 -164h-84z" />
    <glyph glyph-name="ecircumflex" unicode="&#xea;" horiz-adv-x="478" 
d="M30 243c0 80 19.333 142.834 58 188.501s90.667 68.5 156 68.5c66 0 116 -21.5 150 -64.5s51 -102.167 51 -177.5v-35h-292c2 -47.333 11 -83.333 27 -108s38.667 -37 68 -37c24 0 42.167 6.5 54.5 19.5s20.833 29.833 25.5 50.5h112
c-7.33301 -50 -28.5 -89.167 -63.5 -117.5s-79.167 -42.5 -132.5 -42.5c-69.333 0 -122.333 22.167 -159 66.5s-55 107.166 -55 188.499v0zM245 410.001c-24.667 0 -44.5 -9.33301 -59.5 -28s-24.833 -46 -29.5 -82h169c-2.66699 36 -10.167 63.333 -22.5 82
s-31.5 28 -57.5 28v0zM86 568.001l110 164h94l110 -164h-97l-60 99l-60 -99h-97z" />
    <glyph glyph-name="edieresis" unicode="&#xeb;" horiz-adv-x="478" 
d="M30 243c0 80 19.333 142.834 58 188.501s90.667 68.5 156 68.5c66 0 116 -21.5 150 -64.5s51 -102.167 51 -177.5v-35h-292c2 -47.333 11 -83.333 27 -108s38.667 -37 68 -37c24 0 42.167 6.5 54.5 19.5s20.833 29.833 25.5 50.5h112
c-7.33301 -50 -28.5 -89.167 -63.5 -117.5s-79.167 -42.5 -132.5 -42.5c-69.333 0 -122.333 22.167 -159 66.5s-55 107.166 -55 188.499v0zM245 410.001c-24.667 0 -44.5 -9.33301 -59.5 -28s-24.833 -46 -29.5 -82h169c-2.66699 36 -10.167 63.333 -22.5 82
s-31.5 28 -57.5 28v0zM286 600.001v111h109v-111h-109zM91 600.001v111h109v-111h-109z" />
    <glyph glyph-name="igrave" unicode="&#xec;" horiz-adv-x="234" 
d="M56 0v488h121v-488h-121zM76 568l-126 164h125l85 -164h-84z" />
    <glyph glyph-name="iacute" unicode="&#xed;" horiz-adv-x="234" 
d="M56 0v488h121v-488h-121zM74 568l77 164h126l-119 -164h-84z" />
    <glyph glyph-name="icircumflex" unicode="&#xee;" horiz-adv-x="234" 
d="M56 0v488h121v-488h-121zM-40 568l110 164h94l110 -164h-97l-60 99l-60 -99h-97z" />
    <glyph glyph-name="idieresis" unicode="&#xef;" horiz-adv-x="234" 
d="M56 0v488h121v-488h-121zM160 600v111h109v-111h-109zM-35 600v111h109v-111h-109z" />
    <glyph glyph-name="eth" unicode="&#xf0;" horiz-adv-x="507" 
d="M176 511l-37.9971 49.999l68 55c-12.667 8 -26.5 15.5 -41.5 22.5s-30.833 13.833 -47.5 20.5l33 85c26 -8.66699 50.5 -18.167 73.5 -28.5s44.5 -21.5 64.5 -33.5l74 60l39 -49l-61 -50c41.333 -36 72.666 -81.667 93.999 -137s32.666 -124.666 33.999 -207.999v-30
c0 -100.667 -19.833 -172.5 -59.5 -215.5s-91.5 -64.5 -155.5 -64.5c-64.667 0 -116.834 20 -156.501 60s-59.5 100 -59.5 180c0 81.333 19.333 141.666 58 180.999s85 59 139 59c20.667 0 40.334 -3.66699 59.001 -11s33.667 -19.333 45 -36h4
c-8 34 -18.833 63.833 -32.5 89.5s-30.834 47.834 -51.501 66.501zM159.003 227.999c0 -50.667 8.5 -87.832 25.5 -111.499s39.833 -35.5 68.5 -35.5s51.334 11.667 68.001 35s25 60.666 25 111.999c0 52 -8.33301 89.5 -25 112.5s-39.334 34.5 -68.001 34.5
s-51.5 -12 -68.5 -36s-25.5 -61 -25.5 -111v0z" />
    <glyph glyph-name="ntilde" unicode="&#xf1;" horiz-adv-x="511" 
d="M56 0l-0.000976562 488h115v-59h4c11.333 24 28.333 41.833 51 53.5s48.334 17.5 77.001 17.5c42.667 0 79.167 -13.167 109.5 -39.5s45.5 -72.5 45.5 -138.5v-322h-122v310c0 36 -6.66699 60.833 -20 74.5s-30.666 20.5 -51.999 20.5
c-24.667 0 -45.334 -9.5 -62.001 -28.5s-25 -47.167 -25 -84.5v-292h-121zM100.999 588c0.666992 36.667 8.66699 66 24 88s38 33 68 33c26 0 49.833 -7.33301 71.5 -22s40.834 -22 57.501 -22c10.667 0 18.5 4.5 23.5 13.5s7.83301 20.5 8.5 34.5h59
c-0.666992 -36.667 -8.66699 -66 -24 -88s-38.333 -33 -69 -33c-25.333 0 -48.833 7.33301 -70.5 22s-40.834 22 -57.501 22c-10.667 0 -18.5 -4.5 -23.5 -13.5s-7.83301 -20.5 -8.5 -34.5h-59z" />
    <glyph glyph-name="ograve" unicode="&#xf2;" horiz-adv-x="493" 
d="M31 244c0 81.333 19.1689 144.333 57.502 189s91.166 67 158.499 67c68 0 120.667 -22.333 158 -67s56 -107.667 56 -189s-19 -144.333 -57 -189s-90.333 -67 -157 -67c-68.667 0 -121.834 22.333 -159.501 67s-56.5 107.667 -56.5 189v0zM154.002 244
c0 -52 7.83301 -92.166 23.5 -120.499s38.834 -42.5 69.501 -42.5c30 0 52.667 14 68 42s23 68.333 23 121c0 53.333 -7.66699 93.666 -23 120.999s-38 41 -68 41c-30.667 0 -53.834 -14 -69.501 -42s-23.5 -68 -23.5 -120v0zM206.002 568.001l-126 164h125l85 -164h-84z
" />
    <glyph glyph-name="oacute" unicode="&#xf3;" horiz-adv-x="493" 
d="M31 244c0 81.333 19.1689 144.333 57.502 189s91.166 67 158.499 67c68 0 120.667 -22.333 158 -67s56 -107.667 56 -189s-19 -144.333 -57 -189s-90.333 -67 -157 -67c-68.667 0 -121.834 22.333 -159.501 67s-56.5 107.667 -56.5 189v0zM154.002 244
c0 -52 7.83301 -92.166 23.5 -120.499s38.834 -42.5 69.501 -42.5c30 0 52.667 14 68 42s23 68.333 23 121c0 53.333 -7.66699 93.666 -23 120.999s-38 41 -68 41c-30.667 0 -53.834 -14 -69.501 -42s-23.5 -68 -23.5 -120v0zM204.002 568.001l77 164h126l-119 -164h-84z
" />
    <glyph glyph-name="ocircumflex" unicode="&#xf4;" horiz-adv-x="493" 
d="M31 244c0 81.333 19.1689 144.333 57.502 189s91.166 67 158.499 67c68 0 120.667 -22.333 158 -67s56 -107.667 56 -189s-19 -144.333 -57 -189s-90.333 -67 -157 -67c-68.667 0 -121.834 22.333 -159.501 67s-56.5 107.667 -56.5 189v0zM154.002 244
c0 -52 7.83301 -92.166 23.5 -120.499s38.834 -42.5 69.501 -42.5c30 0 52.667 14 68 42s23 68.333 23 121c0 53.333 -7.66699 93.666 -23 120.999s-38 41 -68 41c-30.667 0 -53.834 -14 -69.501 -42s-23.5 -68 -23.5 -120v0zM90.002 568.001l110 164h94l110 -164h-97
l-60 99l-60 -99h-97z" />
    <glyph glyph-name="otilde" unicode="&#xf5;" horiz-adv-x="493" 
d="M31 244c0 81.333 19.1689 144.333 57.502 189s91.166 67 158.499 67c68 0 120.667 -22.333 158 -67s56 -107.667 56 -189s-19 -144.333 -57 -189s-90.333 -67 -157 -67c-68.667 0 -121.834 22.333 -159.501 67s-56.5 107.667 -56.5 189v0zM154.002 244
c0 -52 7.83301 -92.166 23.5 -120.499s38.834 -42.5 69.501 -42.5c30 0 52.667 14 68 42s23 68.333 23 121c0 53.333 -7.66699 93.666 -23 120.999s-38 41 -68 41c-30.667 0 -53.834 -14 -69.501 -42s-23.5 -68 -23.5 -120v0zM91.002 588.001
c0.666992 36.667 8.66699 66 24 88s38 33 68 33c26 0 49.833 -7.33301 71.5 -22s40.834 -22 57.501 -22c10.667 0 18.5 4.5 23.5 13.5s7.83301 20.5 8.5 34.5h59c-0.666992 -36.667 -8.66699 -66 -24 -88s-38.333 -33 -69 -33c-25.333 0 -48.833 7.33301 -70.5 22
s-40.834 22 -57.501 22c-10.667 0 -18.5 -4.5 -23.5 -13.5s-7.83301 -20.5 -8.5 -34.5h-59z" />
    <glyph glyph-name="odieresis" unicode="&#xf6;" horiz-adv-x="493" 
d="M31 244c0 81.333 19.1689 144.333 57.502 189s91.166 67 158.499 67c68 0 120.667 -22.333 158 -67s56 -107.667 56 -189s-19 -144.333 -57 -189s-90.333 -67 -157 -67c-68.667 0 -121.834 22.333 -159.501 67s-56.5 107.667 -56.5 189v0zM154.002 244
c0 -52 7.83301 -92.166 23.5 -120.499s38.834 -42.5 69.501 -42.5c30 0 52.667 14 68 42s23 68.333 23 121c0 53.333 -7.66699 93.666 -23 120.999s-38 41 -68 41c-30.667 0 -53.834 -14 -69.501 -42s-23.5 -68 -23.5 -120v0zM290.002 600.001v111h109v-111h-109z
M95.002 600.001v111h109v-111h-109z" />
    <glyph glyph-name="divide" unicode="&#xf7;" horiz-adv-x="491" 
d="M193 369v111h105v-111h-105zM44 207v96h403v-96h-403zM193 31v111h105v-111h-105z" />
    <glyph glyph-name="oslash" unicode="&#xf8;" horiz-adv-x="491" 
d="M36 -12l48.999 70.001c-18 21.333 -31.667 47.666 -41 78.999s-14 67 -14 107c0 80 19.5 142.667 58.5 188s91.5 68 157.5 68c24.667 0 47.334 -3.16699 68.001 -9.5s39.334 -15.5 56.001 -27.5l26 37h61l-50 -71c17.333 -22 30.666 -48.667 39.999 -80
s14 -66.333 14 -105c0 -80 -19.333 -142.667 -58 -188s-91 -68 -157 -68c-24.667 0 -47.167 3 -67.5 9s-38.833 14.333 -55.5 25l-24 -34h-63zM152.999 244.001c0 -14.667 0.501953 -28.832 1.50195 -42.499s2.83301 -25.834 5.5 -36.501l148 210
c-7.33301 10 -16.333 17.667 -27 23s-22.334 8 -35.001 8c-30.667 0 -53.834 -14 -69.501 -42s-23.5 -68 -23.5 -120v0zM338.001 244.003c0 14.667 -0.666016 28.167 -1.99902 40.5s-3 23.833 -5 34.5l-146 -209c7.33301 -9.33301 16.166 -16.5 26.499 -21.5
s21.833 -7.5 34.5 -7.5c30 0 52.833 14.167 68.5 42.5s23.5 68.5 23.5 120.5v0z" />
    <glyph glyph-name="ugrave" unicode="&#xf9;" horiz-adv-x="509" 
d="M52 166l0.000976562 322h122v-310c0 -36 6.5 -60.833 19.5 -74.5s30.833 -20.5 53.5 -20.5c24 0 44 9.66699 60 29s24 47.333 24 84v292h122v-488h-116v59h-4c-10.667 -24 -27.167 -41.833 -49.5 -53.5s-47.5 -17.5 -75.5 -17.5c-42.667 0 -79.334 13.167 -110.001 39.5
s-46 72.5 -46 138.5v0zM215.001 568l-126 164h125l85 -164h-84z" />
    <glyph glyph-name="uacute" unicode="&#xfa;" horiz-adv-x="509" 
d="M52 166l0.000976562 322h122v-310c0 -36 6.5 -60.833 19.5 -74.5s30.833 -20.5 53.5 -20.5c24 0 44 9.66699 60 29s24 47.333 24 84v292h122v-488h-116v59h-4c-10.667 -24 -27.167 -41.833 -49.5 -53.5s-47.5 -17.5 -75.5 -17.5c-42.667 0 -79.334 13.167 -110.001 39.5
s-46 72.5 -46 138.5v0zM213.001 568l77 164h126l-119 -164h-84z" />
    <glyph glyph-name="ucircumflex" unicode="&#xfb;" horiz-adv-x="509" 
d="M52 166l0.000976562 322h122v-310c0 -36 6.5 -60.833 19.5 -74.5s30.833 -20.5 53.5 -20.5c24 0 44 9.66699 60 29s24 47.333 24 84v292h122v-488h-116v59h-4c-10.667 -24 -27.167 -41.833 -49.5 -53.5s-47.5 -17.5 -75.5 -17.5c-42.667 0 -79.334 13.167 -110.001 39.5
s-46 72.5 -46 138.5v0zM99.001 568l110 164h94l110 -164h-97l-60 99l-60 -99h-97z" />
    <glyph glyph-name="udieresis" unicode="&#xfc;" horiz-adv-x="509" 
d="M52 166l0.000976562 322h122v-310c0 -36 6.5 -60.833 19.5 -74.5s30.833 -20.5 53.5 -20.5c24 0 44 9.66699 60 29s24 47.333 24 84v292h122v-488h-116v59h-4c-10.667 -24 -27.167 -41.833 -49.5 -53.5s-47.5 -17.5 -75.5 -17.5c-42.667 0 -79.334 13.167 -110.001 39.5
s-46 72.5 -46 138.5v0zM299.001 600v111h109v-111h-109zM104.001 600v111h109v-111h-109z" />
    <glyph glyph-name="yacute" unicode="&#xfd;" horiz-adv-x="447" 
d="M148 0l-145 488h131l90 -360h4l93 360h122l-167 -565c-12 -40 -31 -75.167 -57 -105.5s-65.667 -45.5 -119 -45.5h-47v97h28c22.667 0 41.5 5.33301 56.5 16s26.833 31.667 35.5 63l13 52h-38zM180 568l77 164h126l-119 -164h-84z" />
    <glyph glyph-name="thorn" unicode="&#xfe;" horiz-adv-x="514" 
d="M482 247c0 -83.333 -16.832 -147.333 -50.499 -192s-78.834 -67 -135.501 -67c-28 0 -52.5 5.83301 -73.5 17.5s-36.833 29.5 -47.5 53.5h-4c2.66699 -32.667 4.33398 -63.167 5.00098 -91.5s1 -50.5 1 -66.5v-121h-121v952h121v-145c0 -16 -0.333008 -38.167 -1 -66.5
s-2.33398 -58.833 -5.00098 -91.5h4c12.667 24 29.5 41.833 50.5 53.5s46.167 17.5 75.5 17.5c56 0 100.167 -21.333 132.5 -64s48.5 -105.667 48.5 -189v0zM359.001 246c0 52 -7.66699 91.832 -23 119.499s-37.666 41.5 -66.999 41.5s-52 -14.167 -68 -42.5
s-24 -68.166 -24 -119.499c0 -52 8 -92.333 24 -121s38.667 -43 68 -43s51.666 14.5 66.999 43.5s23 69.5 23 121.5v0z" />
    <glyph glyph-name="ydieresis" unicode="&#xff;" horiz-adv-x="447" 
d="M148 0l-145 488h131l90 -360h4l93 360h122l-167 -565c-12 -40 -31 -75.167 -57 -105.5s-65.667 -45.5 -119 -45.5h-47v97h28c22.667 0 41.5 5.33301 56.5 16s26.833 31.667 35.5 63l13 52h-38zM266 600v111h109v-111h-109zM71 600v111h109v-111h-109z" />
    <glyph glyph-name="Amacron" unicode="&#x100;" horiz-adv-x="588" 
d="M4 0l212 688h157l211 -688h-134l-44 159h-229l-44 -159h-129zM295 565h-4l-85 -302h172zM164 776v81h257v-81h-257z" />
    <glyph glyph-name="amacron" unicode="&#x101;" horiz-adv-x="479" 
d="M32 124c0 41.333 12.499 74.501 37.499 99.501s62.5 41.833 112.5 50.5l70 13c20 3.33301 33.667 8.16602 41 14.499s11 17.833 11 34.5c0 23.333 -5.66699 41.833 -17 55.5s-28.333 20.5 -51 20.5s-40.667 -7 -54 -21s-20.333 -34.333 -21 -61h-114
c3.33301 57.333 23 100 59 128s80 42 132 42c63.333 0 110.333 -14.667 141 -44s46 -72.333 46 -129v-327h-115v52h-4c-12 -20.667 -28.333 -36.5 -49 -47.5s-46.667 -16.5 -78 -16.5c-45.333 0 -81.166 12.667 -107.499 38s-39.5 58 -39.5 98v0zM211.999 77.001
c22 0 42.833 8.16895 62.5 24.502s29.5 47.166 29.5 92.499v39c-4 -4.66699 -9 -8.5 -15 -11.5s-12.667 -5.16699 -20 -6.5l-54 -9c-22.667 -4 -39.167 -11.833 -49.5 -23.5s-15.5 -26.834 -15.5 -45.501c0 -20 5.66699 -35 17 -45s26.333 -15 45 -15v0zM105.999 611.003v81
h257v-81h-257z" />
    <glyph glyph-name="Abreve" unicode="&#x102;" horiz-adv-x="588" 
d="M4 0l212 688h157l211 -688h-134l-44 159h-229l-44 -159h-129zM295 565h-4l-85 -302h172zM293 768c-34.667 0 -65.333 11 -92 33s-41.334 60.333 -44.001 115h66c2.66699 -25.333 9.83398 -44.833 21.501 -58.5s27.834 -20.5 48.501 -20.5s36.5 7 47.5 21
s17.833 33.333 20.5 58h67c-2.66699 -54.667 -17.334 -93 -44.001 -115s-57 -33 -91 -33v0z" />
    <glyph glyph-name="abreve" unicode="&#x103;" horiz-adv-x="479" 
d="M32 124c0 41.333 12.499 74.501 37.499 99.501s62.5 41.833 112.5 50.5l70 13c20 3.33301 33.667 8.16602 41 14.499s11 17.833 11 34.5c0 23.333 -5.66699 41.833 -17 55.5s-28.333 20.5 -51 20.5s-40.667 -7 -54 -21s-20.333 -34.333 -21 -61h-114
c3.33301 57.333 23 100 59 128s80 42 132 42c63.333 0 110.333 -14.667 141 -44s46 -72.333 46 -129v-327h-115v52h-4c-12 -20.667 -28.333 -36.5 -49 -47.5s-46.667 -16.5 -78 -16.5c-45.333 0 -81.166 12.667 -107.499 38s-39.5 58 -39.5 98v0zM211.999 77.001
c22 0 42.833 8.16895 62.5 24.502s29.5 47.166 29.5 92.499v39c-4 -4.66699 -9 -8.5 -15 -11.5s-12.667 -5.16699 -20 -6.5l-54 -9c-22.667 -4 -39.167 -11.833 -49.5 -23.5s-15.5 -26.834 -15.5 -45.501c0 -20 5.66699 -35 17 -45s26.333 -15 45 -15v0zM234.999 576.003
c-34.667 0 -65.333 11 -92 33s-41.334 60.333 -44.001 115h66c2.66699 -25.333 9.83398 -44.833 21.501 -58.5s27.834 -20.5 48.501 -20.5s36.5 7 47.5 21s17.833 33.333 20.5 58h67c-2.66699 -54.667 -17.334 -93 -44.001 -115s-57 -33 -91 -33v0z" />
    <glyph glyph-name="Aogonek" unicode="&#x104;" horiz-adv-x="588" 
d="M447 -129c0 22.667 6.66797 44.001 20.001 64.001s31.666 41.667 54.999 65h-72l-44 159h-229l-44 -159h-129l212 688h157l211 -688h-2c-18.667 -22.667 -33 -43 -43 -61s-15 -33.333 -15 -46s3.5 -22.834 10.5 -30.501s19.167 -11.5 36.5 -11.5h25v-71h-40
c-37.333 0 -64.833 8.33301 -82.5 25s-26.5 38.667 -26.5 66v0zM295.001 565.001h-4l-85 -302h172z" />
    <glyph glyph-name="aogonek" unicode="&#x105;" horiz-adv-x="479" 
d="M290 -129c0 22.667 6.66699 44.002 20 64.002s31.666 41.667 54.999 65h-55v52h-4c-12 -20.667 -28.333 -36.5 -49 -47.5s-46.667 -16.5 -78 -16.5c-45.333 0 -81.166 12.667 -107.499 38s-39.5 58 -39.5 98c0 41.333 12.5 74.5 37.5 99.5s62.5 41.833 112.5 50.5l70 13
c20 3.33301 33.667 8.16602 41 14.499s11 17.833 11 34.5c0 23.333 -5.66699 41.833 -17 55.5s-28.333 20.5 -51 20.5s-40.667 -7 -54 -21s-20.333 -34.333 -21 -61h-114c3.33301 57.333 23 100 59 128s80 42 132 42c63.333 0 110.333 -14.667 141 -44s46 -72.333 46 -129
v-327c-18.667 -22.667 -33 -43 -43 -61s-15 -33.333 -15 -46s3.5 -22.834 10.5 -30.501s19.167 -11.5 36.5 -11.5h25v-71h-40c-37.333 0 -64.833 8.33301 -82.5 25s-26.5 38.667 -26.5 66v0zM212 77.002c22 0 42.833 8.16895 62.5 24.502s29.5 47.166 29.5 92.499v39
c-4 -4.66699 -9 -8.5 -15 -11.5s-12.667 -5.16699 -20 -6.5l-54 -9c-22.667 -4 -39.167 -11.833 -49.5 -23.5s-15.5 -26.834 -15.5 -45.501c0 -20 5.66699 -35 17 -45s26.333 -15 45 -15v0z" />
    <glyph glyph-name="Cacute" unicode="&#x106;" horiz-adv-x="602" 
d="M36 344c0 110.667 24.999 197.667 74.999 261s119.667 95 209 95c72 0 129.333 -20.667 172 -62s69 -100.333 79 -177h-123c-8.66699 42.667 -23.667 75 -45 97s-49.333 33 -84 33c-48 0 -85.5 -21.5 -112.5 -64.5s-40.5 -103.833 -40.5 -182.5
c0 -78 13.5 -138.667 40.5 -182s64.5 -65 112.5 -65c36.667 0 65.167 11.167 85.5 33.5s34.833 54.5 43.5 96.5h123c-10 -76.667 -36.667 -135.667 -80 -177s-100.666 -62 -171.999 -62c-91.333 0 -161.333 31.667 -210 95s-73 150.333 -73 261v0zM275.999 768l77 164h126
l-119 -164h-84z" />
    <glyph glyph-name="cacute" unicode="&#x107;" horiz-adv-x="462" 
d="M30 244c0 81.333 18.998 144.335 56.998 189.002s90 67 156 67c57.333 0 102.833 -15.5 136.5 -46.5s52.834 -74.5 57.501 -130.5h-118c-2.66699 27.333 -10.167 48.166 -22.5 62.499s-30.166 21.5 -53.499 21.5c-28.667 0 -50.834 -14.167 -66.501 -42.5
s-23.5 -68.5 -23.5 -120.5s7.66699 -92.167 23 -120.5s37.333 -42.5 66 -42.5c24 0 42.333 7.16699 55 21.5s20.334 35.166 23.001 62.499h117c-4.66699 -56 -24.167 -99.5 -58.5 -130.5s-79.5 -46.5 -135.5 -46.5c-68 0 -120.5 22.333 -157.5 67s-55.5 107.667 -55.5 189v0
zM199.998 568.002l77 164h126l-119 -164h-84z" />
    <glyph glyph-name="Ccircumflex" unicode="&#x108;" horiz-adv-x="602" 
d="M36 344c0 110.667 24.999 197.667 74.999 261s119.667 95 209 95c72 0 129.333 -20.667 172 -62s69 -100.333 79 -177h-123c-8.66699 42.667 -23.667 75 -45 97s-49.333 33 -84 33c-48 0 -85.5 -21.5 -112.5 -64.5s-40.5 -103.833 -40.5 -182.5
c0 -78 13.5 -138.667 40.5 -182s64.5 -65 112.5 -65c36.667 0 65.167 11.167 85.5 33.5s34.833 54.5 43.5 96.5h123c-10 -76.667 -36.667 -135.667 -80 -177s-100.666 -62 -171.999 -62c-91.333 0 -161.333 31.667 -210 95s-73 150.333 -73 261v0zM161.999 768l110 164h94
l110 -164h-97l-60 99l-60 -99h-97z" />
    <glyph glyph-name="ccircumflex" unicode="&#x109;" horiz-adv-x="462" 
d="M30 244c0 81.333 18.998 144.335 56.998 189.002s90 67 156 67c57.333 0 102.833 -15.5 136.5 -46.5s52.834 -74.5 57.501 -130.5h-118c-2.66699 27.333 -10.167 48.166 -22.5 62.499s-30.166 21.5 -53.499 21.5c-28.667 0 -50.834 -14.167 -66.501 -42.5
s-23.5 -68.5 -23.5 -120.5s7.66699 -92.167 23 -120.5s37.333 -42.5 66 -42.5c24 0 42.333 7.16699 55 21.5s20.334 35.166 23.001 62.499h117c-4.66699 -56 -24.167 -99.5 -58.5 -130.5s-79.5 -46.5 -135.5 -46.5c-68 0 -120.5 22.333 -157.5 67s-55.5 107.667 -55.5 189v0
zM85.998 568.002l110 164h94l110 -164h-97l-60 99l-60 -99h-97z" />
    <glyph glyph-name="Cdotaccent" unicode="&#x10a;" horiz-adv-x="602" 
d="M36 344c0 110.667 24.999 197.667 74.999 261s119.667 95 209 95c72 0 129.333 -20.667 172 -62s69 -100.333 79 -177h-123c-8.66699 42.667 -23.667 75 -45 97s-49.333 33 -84 33c-48 0 -85.5 -21.5 -112.5 -64.5s-40.5 -103.833 -40.5 -182.5
c0 -78 13.5 -138.667 40.5 -182s64.5 -65 112.5 -65c36.667 0 65.167 11.167 85.5 33.5s34.833 54.5 43.5 96.5h123c-10 -76.667 -36.667 -135.667 -80 -177s-100.666 -62 -171.999 -62c-91.333 0 -161.333 31.667 -210 95s-73 150.333 -73 261v0zM261.999 768v111h114v-111
h-114z" />
    <glyph glyph-name="cdotaccent" unicode="&#x10b;" horiz-adv-x="462" 
d="M30 244c0 81.333 18.998 144.335 56.998 189.002s90 67 156 67c57.333 0 102.833 -15.5 136.5 -46.5s52.834 -74.5 57.501 -130.5h-118c-2.66699 27.333 -10.167 48.166 -22.5 62.499s-30.166 21.5 -53.499 21.5c-28.667 0 -50.834 -14.167 -66.501 -42.5
s-23.5 -68.5 -23.5 -120.5s7.66699 -92.167 23 -120.5s37.333 -42.5 66 -42.5c24 0 42.333 7.16699 55 21.5s20.334 35.166 23.001 62.499h117c-4.66699 -56 -24.167 -99.5 -58.5 -130.5s-79.5 -46.5 -135.5 -46.5c-68 0 -120.5 22.333 -157.5 67s-55.5 107.667 -55.5 189v0
zM185.998 600.002v111h114v-111h-114z" />
    <glyph glyph-name="Ccaron" unicode="&#x10c;" horiz-adv-x="602" 
d="M36 344c0 110.667 24.999 197.667 74.999 261s119.667 95 209 95c72 0 129.333 -20.667 172 -62s69 -100.333 79 -177h-123c-8.66699 42.667 -23.667 75 -45 97s-49.333 33 -84 33c-48 0 -85.5 -21.5 -112.5 -64.5s-40.5 -103.833 -40.5 -182.5
c0 -78 13.5 -138.667 40.5 -182s64.5 -65 112.5 -65c36.667 0 65.167 11.167 85.5 33.5s34.833 54.5 43.5 96.5h123c-10 -76.667 -36.667 -135.667 -80 -177s-100.666 -62 -171.999 -62c-91.333 0 -161.333 31.667 -210 95s-73 150.333 -73 261v0zM271.999 768l-110 164h97
l60 -99l60 99h97l-110 -164h-94z" />
    <glyph glyph-name="ccaron" unicode="&#x10d;" horiz-adv-x="462" 
d="M30 244c0 81.333 18.998 144.335 56.998 189.002s90 67 156 67c57.333 0 102.833 -15.5 136.5 -46.5s52.834 -74.5 57.501 -130.5h-118c-2.66699 27.333 -10.167 48.166 -22.5 62.499s-30.166 21.5 -53.499 21.5c-28.667 0 -50.834 -14.167 -66.501 -42.5
s-23.5 -68.5 -23.5 -120.5s7.66699 -92.167 23 -120.5s37.333 -42.5 66 -42.5c24 0 42.333 7.16699 55 21.5s20.334 35.166 23.001 62.499h117c-4.66699 -56 -24.167 -99.5 -58.5 -130.5s-79.5 -46.5 -135.5 -46.5c-68 0 -120.5 22.333 -157.5 67s-55.5 107.667 -55.5 189v0
zM195.998 568.002l-110 164h97l60 -99l60 99h97l-110 -164h-94z" />
    <glyph glyph-name="Dcaron" unicode="&#x10e;" horiz-adv-x="621" 
d="M64 0v688.001h202c106.667 0 186.5 -32.333 239.5 -97s79.5 -146.667 79.5 -246c0 -98.667 -26.5 -180.834 -79.5 -246.501s-132.833 -98.5 -239.5 -98.5h-202zM260 581.001h-69v-474h69c71.333 0 121.666 24.167 150.999 72.5s44 103.5 44 165.5
c0 64 -14.667 119.333 -44 166s-79.666 70 -150.999 70v0zM234 768.001l-110 164h97l60 -99l60 99h97l-110 -164h-94z" />
    <glyph glyph-name="dcaron" unicode="&#x10f;" horiz-adv-x="514" 
d="M31 241c0 83.333 16.8301 147.333 50.4971 192s78.834 67 135.501 67c28.667 0 53.334 -5.83301 74.001 -17.5s36.334 -29.5 47.001 -53.5h3c-2.66699 32.667 -4.16699 63.167 -4.5 91.5s-0.5 50.833 -0.5 67.5v144h121v-732h-115v59h-4
c-11.333 -24 -27.833 -41.833 -49.5 -53.5s-47.167 -17.5 -76.5 -17.5c-55.333 0 -99.333 21.333 -132 64s-49 105.667 -49 189v0zM153.997 242c0 -52 7.83301 -91.832 23.5 -119.499s38.167 -41.5 67.5 -41.5s51.833 14.167 67.5 42.5s23.5 68.166 23.5 119.499
c0 52 -7.83301 92.333 -23.5 121s-38.167 43 -67.5 43s-51.833 -14.5 -67.5 -43.5s-23.5 -69.5 -23.5 -121.5v0zM527.997 527.001l34 102h-48v103h114v-91l-49 -114h-51z" />
    <glyph glyph-name="Dcroat" unicode="&#x110;" horiz-adv-x="621" 
d="M4 305v80.001h60v303h201c107.333 0 187.5 -32.333 240.5 -97s79.5 -146.667 79.5 -246c0 -98.667 -26.5 -180.834 -79.5 -246.501s-133.167 -98.5 -240.5 -98.5h-201v305h-60zM260 581.001h-69v-196h118v-80h-118v-198h69c71.333 0 121.666 24.167 150.999 72.5
s44 103.5 44 165.5c0 64 -14.667 119.333 -44 166s-79.666 70 -150.999 70v0z" />
    <glyph glyph-name="dcroat" unicode="&#x111;" horiz-adv-x="514" 
d="M219 588l-0.00292969 68h117v76h121v-76h55v-68h-55v-588h-115v59h-4c-11.333 -24 -27.833 -41.833 -49.5 -53.5s-47.167 -17.5 -76.5 -17.5c-55.333 0 -99.333 21.333 -132 64s-49 105.667 -49 189s16.833 147.333 50.5 192s78.834 67 135.501 67
c28.667 0 53.334 -5.66699 74.001 -17s36.334 -29.333 47.001 -54h3c-2.66699 32.667 -4.16699 63.167 -4.5 91.5s-0.5 50.833 -0.5 67.5h-117zM153.997 242c0 -52 7.83301 -91.832 23.5 -119.499s38.167 -41.5 67.5 -41.5s51.833 14.167 67.5 42.5
s23.5 68.166 23.5 119.499c0 52 -7.83301 92.333 -23.5 121s-38.167 43 -67.5 43s-51.833 -14.5 -67.5 -43.5s-23.5 -69.5 -23.5 -121.5v0z" />
    <glyph glyph-name="Emacron" unicode="&#x112;" horiz-adv-x="541" 
d="M64 0v688h430v-107h-303v-179h246v-102h-246v-193h312v-107h-439zM149 776v81h257v-81h-257z" />
    <glyph glyph-name="emacron" unicode="&#x113;" horiz-adv-x="478" 
d="M30 243c0 80 19.333 142.834 58 188.501s90.667 68.5 156 68.5c66 0 116 -21.5 150 -64.5s51 -102.167 51 -177.5v-35h-292c2 -47.333 11 -83.333 27 -108s38.667 -37 68 -37c24 0 42.167 6.5 54.5 19.5s20.833 29.833 25.5 50.5h112
c-7.33301 -50 -28.5 -89.167 -63.5 -117.5s-79.167 -42.5 -132.5 -42.5c-69.333 0 -122.333 22.167 -159 66.5s-55 107.166 -55 188.499v0zM245 410.001c-24.667 0 -44.5 -9.33301 -59.5 -28s-24.833 -46 -29.5 -82h169c-2.66699 36 -10.167 63.333 -22.5 82
s-31.5 28 -57.5 28v0zM114 611.001v81h257v-81h-257z" />
    <glyph glyph-name="Ebreve" unicode="&#x114;" horiz-adv-x="541" 
d="M64 0v688h430v-107h-303v-179h246v-102h-246v-193h312v-107h-439zM278 768c-34.667 0 -65.333 11 -92 33s-41.334 60.333 -44.001 115h66c2.66699 -25.333 9.83398 -44.833 21.501 -58.5s27.834 -20.5 48.501 -20.5s36.5 7 47.5 21s17.833 33.333 20.5 58h67
c-2.66699 -54.667 -17.334 -93 -44.001 -115s-57 -33 -91 -33v0z" />
    <glyph glyph-name="ebreve" unicode="&#x115;" horiz-adv-x="478" 
d="M30 243c0 80 19.333 142.834 58 188.501s90.667 68.5 156 68.5c66 0 116 -21.5 150 -64.5s51 -102.167 51 -177.5v-35h-292c2 -47.333 11 -83.333 27 -108s38.667 -37 68 -37c24 0 42.167 6.5 54.5 19.5s20.833 29.833 25.5 50.5h112
c-7.33301 -50 -28.5 -89.167 -63.5 -117.5s-79.167 -42.5 -132.5 -42.5c-69.333 0 -122.333 22.167 -159 66.5s-55 107.166 -55 188.499v0zM245 410.001c-24.667 0 -44.5 -9.33301 -59.5 -28s-24.833 -46 -29.5 -82h169c-2.66699 36 -10.167 63.333 -22.5 82
s-31.5 28 -57.5 28v0zM243 576.001c-34.667 0 -65.333 11 -92 33s-41.334 60.333 -44.001 115h66c2.66699 -25.333 9.83398 -44.833 21.501 -58.5s27.834 -20.5 48.501 -20.5s36.5 7 47.5 21s17.833 33.333 20.5 58h67c-2.66699 -54.667 -17.334 -93 -44.001 -115
s-57 -33 -91 -33v0z" />
    <glyph glyph-name="Edotaccent" unicode="&#x116;" horiz-adv-x="541" 
d="M64 0v688h430v-107h-303v-179h246v-102h-246v-193h312v-107h-439zM221 768v111h114v-111h-114z" />
    <glyph glyph-name="edotaccent" unicode="&#x117;" horiz-adv-x="478" 
d="M30 243c0 80 19.333 142.834 58 188.501s90.667 68.5 156 68.5c66 0 116 -21.5 150 -64.5s51 -102.167 51 -177.5v-35h-292c2 -47.333 11 -83.333 27 -108s38.667 -37 68 -37c24 0 42.167 6.5 54.5 19.5s20.833 29.833 25.5 50.5h112
c-7.33301 -50 -28.5 -89.167 -63.5 -117.5s-79.167 -42.5 -132.5 -42.5c-69.333 0 -122.333 22.167 -159 66.5s-55 107.166 -55 188.499v0zM245 410.001c-24.667 0 -44.5 -9.33301 -59.5 -28s-24.833 -46 -29.5 -82h169c-2.66699 36 -10.167 63.333 -22.5 82
s-31.5 28 -57.5 28v0zM186 600.001v111h114v-111h-114z" />
    <glyph glyph-name="Eogonek" unicode="&#x118;" horiz-adv-x="541" 
d="M64 0l0.000976562 688.001h430v-107h-303v-179h246v-102h-246v-193h312v-107h-1c-18.667 -22.667 -33 -43 -43 -61s-15 -33.333 -15 -46s3.5 -22.834 10.5 -30.501s19.167 -11.5 36.5 -11.5h25v-71h-40c-37.333 0 -64.833 8.33301 -82.5 25s-26.5 38.667 -26.5 66
c0 22.667 6.66699 44 20 64s31.666 41.667 54.999 65h-378z" />
    <glyph glyph-name="eogonek" unicode="&#x119;" horiz-adv-x="478" 
d="M163 -124c0 23.333 7.66895 44.335 23.002 63.002s33.333 35 54 49c-68 0.666992 -120 23 -156 67s-54 106.667 -54 188c0 80 19.333 142.833 58 188.5s90.667 68.5 156 68.5c66 0 116 -21.5 150 -64.5s51 -102.167 51 -177.5v-35h-292c2 -47.333 11 -83.333 27 -108
s38.667 -37 68 -37c24 0 42.167 6.5 54.5 19.5s20.833 29.833 25.5 50.5h112c-4.66699 -30.667 -14.334 -57 -29.001 -79s-33.334 -40 -56.001 -54c-28.667 -18 -54.167 -37.833 -76.5 -59.5s-33.5 -41.834 -33.5 -60.501c0 -14 3.83301 -24.833 11.5 -32.5
s20.5 -11.5 38.5 -11.5h22v-71h-40c-36 0 -64 8.16699 -84 24.5s-30 40.166 -30 71.499v0zM245.002 410.002c-24.667 0 -44.5 -9.33301 -59.5 -28s-24.833 -46 -29.5 -82h169c-2.66699 36 -10.167 63.333 -22.5 82s-31.5 28 -57.5 28v0z" />
    <glyph glyph-name="Ecaron" unicode="&#x11a;" horiz-adv-x="541" 
d="M64 0v688h430v-107h-303v-179h246v-102h-246v-193h312v-107h-439zM231 768l-110 164h97l60 -99l60 99h97l-110 -164h-94z" />
    <glyph glyph-name="ecaron" unicode="&#x11b;" horiz-adv-x="478" 
d="M30 243c0 80 19.333 142.834 58 188.501s90.667 68.5 156 68.5c66 0 116 -21.5 150 -64.5s51 -102.167 51 -177.5v-35h-292c2 -47.333 11 -83.333 27 -108s38.667 -37 68 -37c24 0 42.167 6.5 54.5 19.5s20.833 29.833 25.5 50.5h112
c-7.33301 -50 -28.5 -89.167 -63.5 -117.5s-79.167 -42.5 -132.5 -42.5c-69.333 0 -122.333 22.167 -159 66.5s-55 107.166 -55 188.499v0zM245 410.001c-24.667 0 -44.5 -9.33301 -59.5 -28s-24.833 -46 -29.5 -82h169c-2.66699 36 -10.167 63.333 -22.5 82
s-31.5 28 -57.5 28v0zM196 568.001l-110 164h97l60 -99l60 99h97l-110 -164h-94z" />
    <glyph glyph-name="Gcircumflex" unicode="&#x11c;" horiz-adv-x="642" 
d="M505 0l-14.999 65.9971h-4c-19.333 -25.333 -43.166 -44.666 -71.499 -57.999s-61.5 -20 -99.5 -20c-86.667 0 -154.834 31.667 -204.501 95s-74.5 150.333 -74.5 261s26.167 197.667 78.5 261s123.166 95 212.499 95c73.333 0 131.833 -20.167 175.5 -60.5
s70.5 -94.166 80.5 -161.499h-123c-8.66699 34 -23.5 61.333 -44.5 82s-50.5 31 -88.5 31c-49.333 0 -88.5 -21.333 -117.5 -64s-43.5 -103.667 -43.5 -183s14.5 -140.333 43.5 -183s68.833 -64 119.5 -64c38 0 71 13.833 99 41.5s42 66.834 42 117.501v20h-140v97h253v-373
h-78zM170.001 767.997l110 164h94l110 -164h-97l-60 99l-60 -99h-97z" />
    <glyph glyph-name="gcircumflex" unicode="&#x11d;" horiz-adv-x="514" 
d="M44 -62l111.997 0.000976562c0.666992 -23.333 8.5 -42.166 23.5 -56.499s36.167 -21.5 63.5 -21.5c32 0 56.5 9.16699 73.5 27.5s25.5 49.166 25.5 92.499v79h-4c-11.333 -24 -27.833 -41.833 -49.5 -53.5s-47.167 -17.5 -76.5 -17.5c-55.333 0 -99.333 21.333 -132 64
s-49 105.667 -49 189s16.833 147.333 50.5 192s78.834 67 135.501 67c28.667 0 53.334 -5.83301 74.001 -17.5s36.334 -29.5 47.001 -53.5h4v59h115v-500c0 -74.667 -18.667 -129.334 -56 -164.001s-90.333 -52 -159 -52c-60.667 0 -108.667 14 -144 42
s-53.333 69.333 -54 124v0zM153.997 242.001c0 -52 7.83301 -91.832 23.5 -119.499s38.167 -41.5 67.5 -41.5s51.833 14.167 67.5 42.5s23.5 68.166 23.5 119.499c0 52 -7.83301 92.333 -23.5 121s-38.167 43 -67.5 43s-51.833 -14.5 -67.5 -43.5s-23.5 -69.5 -23.5 -121.5
v0zM87.9971 568.002l110 164h94l110 -164h-97l-60 99l-60 -99h-97z" />
    <glyph glyph-name="Gbreve" unicode="&#x11e;" horiz-adv-x="642" 
d="M505 0l-14.999 65.9971h-4c-19.333 -25.333 -43.166 -44.666 -71.499 -57.999s-61.5 -20 -99.5 -20c-86.667 0 -154.834 31.667 -204.501 95s-74.5 150.333 -74.5 261s26.167 197.667 78.5 261s123.166 95 212.499 95c73.333 0 131.833 -20.167 175.5 -60.5
s70.5 -94.166 80.5 -161.499h-123c-8.66699 34 -23.5 61.333 -44.5 82s-50.5 31 -88.5 31c-49.333 0 -88.5 -21.333 -117.5 -64s-43.5 -103.667 -43.5 -183s14.5 -140.333 43.5 -183s68.833 -64 119.5 -64c38 0 71 13.833 99 41.5s42 66.834 42 117.501v20h-140v97h253v-373
h-78zM327.001 767.997c-34.667 0 -65.333 11 -92 33s-41.334 60.333 -44.001 115h66c2.66699 -25.333 9.83398 -44.833 21.501 -58.5s27.834 -20.5 48.501 -20.5s36.5 7 47.5 21s17.833 33.333 20.5 58h67c-2.66699 -54.667 -17.334 -93 -44.001 -115s-57 -33 -91 -33v0z
" />
    <glyph glyph-name="gbreve" unicode="&#x11f;" horiz-adv-x="514" 
d="M44 -62l111.997 0.000976562c0.666992 -23.333 8.5 -42.166 23.5 -56.499s36.167 -21.5 63.5 -21.5c32 0 56.5 9.16699 73.5 27.5s25.5 49.166 25.5 92.499v79h-4c-11.333 -24 -27.833 -41.833 -49.5 -53.5s-47.167 -17.5 -76.5 -17.5c-55.333 0 -99.333 21.333 -132 64
s-49 105.667 -49 189s16.833 147.333 50.5 192s78.834 67 135.501 67c28.667 0 53.334 -5.83301 74.001 -17.5s36.334 -29.5 47.001 -53.5h4v59h115v-500c0 -74.667 -18.667 -129.334 -56 -164.001s-90.333 -52 -159 -52c-60.667 0 -108.667 14 -144 42
s-53.333 69.333 -54 124v0zM153.997 242.001c0 -52 7.83301 -91.832 23.5 -119.499s38.167 -41.5 67.5 -41.5s51.833 14.167 67.5 42.5s23.5 68.166 23.5 119.499c0 52 -7.83301 92.333 -23.5 121s-38.167 43 -67.5 43s-51.833 -14.5 -67.5 -43.5s-23.5 -69.5 -23.5 -121.5
v0zM244.997 576.002c-34.667 0 -65.333 11 -92 33s-41.334 60.333 -44.001 115h66c2.66699 -25.333 9.83398 -44.833 21.501 -58.5s27.834 -20.5 48.501 -20.5s36.5 7 47.5 21s17.833 33.333 20.5 58h67c-2.66699 -54.667 -17.334 -93 -44.001 -115s-57 -33 -91 -33v0z" />
    <glyph glyph-name="Gdotaccent" unicode="&#x120;" horiz-adv-x="642" 
d="M505 0l-14.999 65.9971h-4c-19.333 -25.333 -43.166 -44.666 -71.499 -57.999s-61.5 -20 -99.5 -20c-86.667 0 -154.834 31.667 -204.501 95s-74.5 150.333 -74.5 261s26.167 197.667 78.5 261s123.166 95 212.499 95c73.333 0 131.833 -20.167 175.5 -60.5
s70.5 -94.166 80.5 -161.499h-123c-8.66699 34 -23.5 61.333 -44.5 82s-50.5 31 -88.5 31c-49.333 0 -88.5 -21.333 -117.5 -64s-43.5 -103.667 -43.5 -183s14.5 -140.333 43.5 -183s68.833 -64 119.5 -64c38 0 71 13.833 99 41.5s42 66.834 42 117.501v20h-140v97h253v-373
h-78zM270.001 767.997v111h114v-111h-114z" />
    <glyph glyph-name="gdotaccent" unicode="&#x121;" horiz-adv-x="514" 
d="M44 -62l111.997 0.000976562c0.666992 -23.333 8.5 -42.166 23.5 -56.499s36.167 -21.5 63.5 -21.5c32 0 56.5 9.16699 73.5 27.5s25.5 49.166 25.5 92.499v79h-4c-11.333 -24 -27.833 -41.833 -49.5 -53.5s-47.167 -17.5 -76.5 -17.5c-55.333 0 -99.333 21.333 -132 64
s-49 105.667 -49 189s16.833 147.333 50.5 192s78.834 67 135.501 67c28.667 0 53.334 -5.83301 74.001 -17.5s36.334 -29.5 47.001 -53.5h4v59h115v-500c0 -74.667 -18.667 -129.334 -56 -164.001s-90.333 -52 -159 -52c-60.667 0 -108.667 14 -144 42
s-53.333 69.333 -54 124v0zM153.997 242.001c0 -52 7.83301 -91.832 23.5 -119.499s38.167 -41.5 67.5 -41.5s51.833 14.167 67.5 42.5s23.5 68.166 23.5 119.499c0 52 -7.83301 92.333 -23.5 121s-38.167 43 -67.5 43s-51.833 -14.5 -67.5 -43.5s-23.5 -69.5 -23.5 -121.5
v0zM187.997 600.002v111h114v-111h-114z" />
    <glyph glyph-name="Gcommaaccent" unicode="&#x122;" horiz-adv-x="642" 
d="M505 0l-14.999 65.9971h-4c-19.333 -25.333 -43.166 -44.666 -71.499 -57.999s-61.5 -20 -99.5 -20c-86.667 0 -154.834 31.667 -204.501 95s-74.5 150.333 -74.5 261s26.167 197.667 78.5 261s123.166 95 212.499 95c73.333 0 131.833 -20.167 175.5 -60.5
s70.5 -94.166 80.5 -161.499h-123c-8.66699 34 -23.5 61.333 -44.5 82s-50.5 31 -88.5 31c-49.333 0 -88.5 -21.333 -117.5 -64s-43.5 -103.667 -43.5 -183s14.5 -140.333 43.5 -183s68.833 -64 119.5 -64c38 0 71 13.833 99 41.5s42 66.834 42 117.501v20h-140v97h253v-373
h-78zM262.001 -61.0029h114v-88l-49 -108h-51l35 95h-49v101z" />
    <glyph glyph-name="gcommaaccent" unicode="&#x123;" horiz-adv-x="514" 
d="M44 -62l111.997 0.000976562c0.666992 -23.333 8.5 -42.166 23.5 -56.499s36.167 -21.5 63.5 -21.5c32 0 56.5 9.16699 73.5 27.5s25.5 49.166 25.5 92.499v79h-4c-11.333 -24 -27.833 -41.833 -49.5 -53.5s-47.167 -17.5 -76.5 -17.5c-55.333 0 -99.333 21.333 -132 64
s-49 105.667 -49 189s16.833 147.333 50.5 192s78.834 67 135.501 67c28.667 0 53.334 -5.83301 74.001 -17.5s36.334 -29.5 47.001 -53.5h4v59h115v-500c0 -74.667 -18.667 -129.334 -56 -164.001s-90.333 -52 -159 -52c-60.667 0 -108.667 14 -144 42
s-53.333 69.333 -54 124v0zM153.997 242.001c0 -52 7.83301 -91.832 23.5 -119.499s38.167 -41.5 67.5 -41.5s51.833 14.167 67.5 42.5s23.5 68.166 23.5 119.499c0 52 -7.83301 92.333 -23.5 121s-38.167 43 -67.5 43s-51.833 -14.5 -67.5 -43.5s-23.5 -69.5 -23.5 -121.5
v0zM187.997 568.002v88l49 109h50l-34 -96h49v-101h-114z" />
    <glyph glyph-name="Hcircumflex" unicode="&#x124;" horiz-adv-x="641" 
d="M64 0v688h127v-284h259v284h127v-688h-127v293h-259v-293h-127zM164 768l110 164h94l110 -164h-97l-60 99l-60 -99h-97z" />
    <glyph glyph-name="hcircumflex" unicode="&#x125;" horiz-adv-x="511" 
d="M56 0v732h121v-140c0 -16 -0.333008 -39 -1 -69s-2.33398 -61.333 -5.00098 -94h4c11.333 24 28.333 41.833 51 53.5s48.334 17.5 77.001 17.5c42.667 0 79.167 -13.167 109.5 -39.5s45.5 -72.5 45.5 -138.5v-322h-122v310c0 36 -6.66699 60.833 -20 74.5
s-30.666 20.5 -51.999 20.5c-24.667 0 -45.334 -9.5 -62.001 -28.5s-25 -46.833 -25 -83.5v-293h-121zM-40 802l110 164h94l110 -164h-97l-60 99l-60 -99h-97z" />
    <glyph glyph-name="Hbar" unicode="&#x126;" horiz-adv-x="641" 
d="M2 509v78h62v101h127v-101h259v101h127v-101h62v-78h-62v-509h-127v293h-259v-293h-127v509h-62zM191 509v-105h259v105h-259z" />
    <glyph glyph-name="hbar" unicode="&#x127;" horiz-adv-x="511" 
d="M0 588v68h56v76h121v-76h116v-68h-116c0 -16.667 -0.333008 -39.5 -1 -68.5s-2.33398 -59.167 -5.00098 -90.5h4c11.333 24 28.333 41.833 51 53.5s48.334 17.5 77.001 17.5c42.667 0 79.167 -13.167 109.5 -39.5s45.5 -72.5 45.5 -138.5v-322h-122v310
c0 36 -6.66699 60.833 -20 74.5s-30.666 20.5 -51.999 20.5c-24.667 0 -45.334 -9.66699 -62.001 -29s-25 -48 -25 -86v-290h-121v588h-56z" />
    <glyph glyph-name="Itilde" unicode="&#x128;" horiz-adv-x="255" 
d="M64 0v688h127v-688h-127zM-28 768c0.666992 36.667 8.66699 66 24 88s38 33 68 33c26 0 49.833 -7.33301 71.5 -22s40.834 -22 57.501 -22c10.667 0 18.5 4.5 23.5 13.5s7.83301 20.5 8.5 34.5h59c-0.666992 -36.667 -8.66699 -66 -24 -88s-38.333 -33 -69 -33
c-25.333 0 -48.833 7.33301 -70.5 22s-40.834 22 -57.501 22c-10.667 0 -18.5 -4.5 -23.5 -13.5s-7.83301 -20.5 -8.5 -34.5h-59z" />
    <glyph glyph-name="itilde" unicode="&#x129;" horiz-adv-x="234" 
d="M56 0v488h121v-488h-121zM-39 588c0.666992 36.667 8.66699 66 24 88s38 33 68 33c26 0 49.833 -7.33301 71.5 -22s40.834 -22 57.501 -22c10.667 0 18.5 4.5 23.5 13.5s7.83301 20.5 8.5 34.5h59c-0.666992 -36.667 -8.66699 -66 -24 -88s-38.333 -33 -69 -33
c-25.333 0 -48.833 7.33301 -70.5 22s-40.834 22 -57.501 22c-10.667 0 -18.5 -4.5 -23.5 -13.5s-7.83301 -20.5 -8.5 -34.5h-59z" />
    <glyph glyph-name="Imacron" unicode="&#x12a;" horiz-adv-x="255" 
d="M64 0v688h127v-688h-127zM-1 776v81h257v-81h-257z" />
    <glyph glyph-name="imacron" unicode="&#x12b;" horiz-adv-x="234" 
d="M56 0v488h121v-488h-121zM-12 611v81h257v-81h-257z" />
    <glyph glyph-name="Ibreve" unicode="&#x12c;" horiz-adv-x="255" 
d="M64 0v688h127v-688h-127zM128 768c-34.667 0 -65.333 11 -92 33s-41.334 60.333 -44.001 115h66c2.66699 -25.333 9.83398 -44.833 21.501 -58.5s27.834 -20.5 48.501 -20.5s36.5 7 47.5 21s17.833 33.333 20.5 58h67c-2.66699 -54.667 -17.334 -93 -44.001 -115
s-57 -33 -91 -33v0z" />
    <glyph glyph-name="ibreve" unicode="&#x12d;" horiz-adv-x="234" 
d="M56 0v488h121v-488h-121zM117 576c-34.667 0 -65.333 11 -92 33s-41.334 60.333 -44.001 115h66c2.66699 -25.333 9.83398 -44.833 21.501 -58.5s27.834 -20.5 48.501 -20.5s36.5 7 47.5 21s17.833 33.333 20.5 58h67c-2.66699 -54.667 -17.334 -93 -44.001 -115
s-57 -33 -91 -33v0z" />
    <glyph glyph-name="Iogonek" unicode="&#x12e;" horiz-adv-x="255" 
d="M64 0l0.000976562 688.001h127v-688h-3c-18.667 -22.667 -33 -43 -43 -61s-15 -33.333 -15 -46s3.5 -22.834 10.5 -30.501s19.167 -11.5 36.5 -11.5h25v-71h-40c-37.333 0 -64.833 8.33301 -82.5 25s-26.5 38.667 -26.5 66c0 22.667 6.66699 44 20 64
s31.666 41.667 54.999 65h-64z" />
    <glyph glyph-name="iogonek" unicode="&#x12f;" horiz-adv-x="234" 
d="M56 0l0.000976562 488.001h121v-488c-18.667 -22.667 -33 -43 -43 -61s-15 -33.333 -15 -46s3.5 -22.834 10.5 -30.501s19.167 -11.5 36.5 -11.5h25v-71h-40c-37.333 0 -64.833 8.33301 -82.5 25s-26.5 38.667 -26.5 66c0 22.667 6.66699 44 20 64
s31.666 41.667 54.999 65h-61zM52.001 614.001v118h129v-118h-129z" />
    <glyph glyph-name="Idotaccent" unicode="&#x130;" horiz-adv-x="255" 
d="M64 0v688h127v-688h-127zM71 768v111h114v-111h-114z" />
    <glyph glyph-name="dotlessi" unicode="&#x131;" horiz-adv-x="234" 
d="M56 0v488h121v-488h-121z" />
    <glyph glyph-name="IJ" unicode="&#x132;" horiz-adv-x="737" 
d="M64 0v688h127v-688h-127zM288 182l0.000976562 42h125v-48c0 -30 6.66699 -51.333 20 -64s29.666 -19 48.999 -19c20.667 0 37.5 6.5 50.5 19.5s19.5 35.167 19.5 66.5v509h127v-498c0 -72.667 -17.833 -124.5 -53.5 -155.5s-83.5 -46.5 -143.5 -46.5
c-56 0 -102.333 15 -139 45s-55 79.667 -55 149v0z" />
    <glyph glyph-name="ij" unicode="&#x133;" horiz-adv-x="468" 
d="M52 614v118h129v-118h-129zM56 0v488h121v-488h-121zM286 614v118h129v-118h-129zM290 -54v542h121v-550c0 -48.667 -10.333 -87.167 -31 -115.5s-61.667 -42.5 -123 -42.5h-39v95h23c18.667 0 31.5 5.66699 38.5 17s10.5 29.333 10.5 54v0z" />
    <glyph glyph-name="Jcircumflex" unicode="&#x134;" horiz-adv-x="479" 
d="M30 181v43h125v-47c0 -30 6.83301 -51.167 20.5 -63.5s30.167 -18.5 49.5 -18.5c20.667 0 37.5 6.33301 50.5 19s19.5 34.667 19.5 66v508h127v-498c0 -72.667 -17.833 -124.5 -53.5 -155.5s-83.5 -46.5 -143.5 -46.5c-56 0 -102.5 15 -139.5 45s-55.5 79.333 -55.5 148
v0zM203 768l110 164h94l110 -164h-97l-60 99l-60 -99h-97z" />
    <glyph glyph-name="jcircumflex" unicode="&#x135;" horiz-adv-x="234" 
d="M56 -54l-0.000976562 542h121v-550c0 -48.667 -10.333 -87.167 -31 -115.5s-61.667 -42.5 -123 -42.5h-38v95h23c18.667 0 31.334 5.66699 38.001 17s10 29.333 10 54v0zM-40.001 568l110 164h94l110 -164h-97l-60 99l-60 -99h-97z" />
    <glyph glyph-name="Kcommaaccent" unicode="&#x136;" horiz-adv-x="592" 
d="M63 0v688h127v-313l244 313h141l-237 -296l247 -392h-143l-183 292l-69 -87v-205h-127zM248 -61h114v-88l-49 -108h-51l35 95h-49v101z" />
    <glyph glyph-name="kcommaaccent" unicode="&#x137;" horiz-adv-x="473" 
d="M56 0v732h121v-443l149 199h132l-156 -196l170 -292h-134l-112 196l-49 -63v-133h-121zM193 -61h114v-88l-49 -108h-51l35 95h-49v101z" />
    <glyph glyph-name="Lacute" unicode="&#x139;" horiz-adv-x="490" 
d="M64 0v688h127v-580h270v-108h-397zM84 768l77 164h126l-119 -164h-84z" />
    <glyph glyph-name="lacute" unicode="&#x13a;" horiz-adv-x="234" 
d="M56 0v732h121v-732h-121zM74 810l77 164h126l-119 -164h-84z" />
    <glyph glyph-name="Lcommaaccent" unicode="&#x13b;" horiz-adv-x="490" 
d="M64 0v688h127v-580h270v-108h-397zM204 -61h114v-88l-49 -108h-51l35 95h-49v101z" />
    <glyph glyph-name="lcommaaccent" unicode="&#x13c;" horiz-adv-x="234" 
d="M56 0v732h121v-732h-121zM60 -61h114v-88l-49 -108h-51l35 95h-49v101z" />
    <glyph glyph-name="Lcaron" unicode="&#x13d;" horiz-adv-x="490" 
d="M64 0v688h127v-580h270v-108h-397zM301 483l35 102h-49v103h114v-91l-49 -114h-51z" />
    <glyph glyph-name="lcaron" unicode="&#x13e;" horiz-adv-x="234" 
d="M247 527l34 102h-49v103h115v-91l-49 -114h-51zM56 0v732h121v-732h-121z" />
    <glyph glyph-name="Ldot" unicode="&#x13f;" horiz-adv-x="490" 
d="M64 0v688h127v-580h270v-108h-397zM272 307v113h115v-113h-115z" />
    <glyph glyph-name="ldot" unicode="&#x140;" horiz-adv-x="346" 
d="M56 0v732h121v-732h-121zM232 273v113h114v-113h-114z" />
    <glyph glyph-name="Lslash" unicode="&#x141;" horiz-adv-x="490" 
d="M0 169v92l64 50v377h127v-278l104 80v-91l-104 -81v-210h270v-108h-397v219z" />
    <glyph glyph-name="lslash" unicode="&#x142;" horiz-adv-x="234" 
d="M1 281l55 52v399h121v-286l56 53v-85l-56 -55v-359h-121v245l-55 -51v87z" />
    <glyph glyph-name="Nacute" unicode="&#x143;" horiz-adv-x="644" 
d="M64 0v688h107l284 -437h4l-6 437h127v-688h-106l-284 437h-4l5 -437h-127zM279 768l77 164h126l-119 -164h-84z" />
    <glyph glyph-name="nacute" unicode="&#x144;" horiz-adv-x="511" 
d="M56 0l-0.000976562 488h115v-59h4c11.333 24 28.333 41.833 51 53.5s48.334 17.5 77.001 17.5c42.667 0 79.167 -13.167 109.5 -39.5s45.5 -72.5 45.5 -138.5v-322h-122v310c0 36 -6.66699 60.833 -20 74.5s-30.666 20.5 -51.999 20.5
c-24.667 0 -45.334 -9.5 -62.001 -28.5s-25 -47.167 -25 -84.5v-292h-121zM213.999 568l77 164h126l-119 -164h-84z" />
    <glyph glyph-name="Ncommaaccent" unicode="&#x145;" horiz-adv-x="644" 
d="M64 0v688h107l284 -437h4l-6 437h127v-688h-106l-284 437h-4l5 -437h-127zM265 -61h114v-88l-49 -108h-51l35 95h-49v101z" />
    <glyph glyph-name="ncommaaccent" unicode="&#x146;" horiz-adv-x="511" 
d="M56 0l-0.000976562 488h115v-59h4c11.333 24 28.333 41.833 51 53.5s48.334 17.5 77.001 17.5c42.667 0 79.167 -13.167 109.5 -39.5s45.5 -72.5 45.5 -138.5v-322h-122v310c0 36 -6.66699 60.833 -20 74.5s-30.666 20.5 -51.999 20.5
c-24.667 0 -45.334 -9.5 -62.001 -28.5s-25 -47.167 -25 -84.5v-292h-121zM196.999 -61h114v-88l-49 -108h-51l35 95h-49v101z" />
    <glyph glyph-name="Ncaron" unicode="&#x147;" horiz-adv-x="644" 
d="M64 0v688h107l284 -437h4l-6 437h127v-688h-106l-284 437h-4l5 -437h-127zM275 768l-110 164h97l60 -99l60 99h97l-110 -164h-94z" />
    <glyph glyph-name="ncaron" unicode="&#x148;" horiz-adv-x="511" 
d="M56 0l-0.000976562 488h115v-59h4c11.333 24 28.333 41.833 51 53.5s48.334 17.5 77.001 17.5c42.667 0 79.167 -13.167 109.5 -39.5s45.5 -72.5 45.5 -138.5v-322h-122v310c0 36 -6.66699 60.833 -20 74.5s-30.666 20.5 -51.999 20.5
c-24.667 0 -45.334 -9.5 -62.001 -28.5s-25 -47.167 -25 -84.5v-292h-121zM209.999 568l-110 164h97l60 -99l60 99h97l-110 -164h-94z" />
    <glyph glyph-name="napostrophe" unicode="&#x149;" horiz-adv-x="511" 
d="M56 0l-0.000976562 488h115v-59h4c11.333 24 28.333 41.833 51 53.5s48.334 17.5 77.001 17.5c42.667 0 79.167 -13.167 109.5 -39.5s45.5 -72.5 45.5 -138.5v-322h-122v310c0 36 -6.66699 60.833 -20 74.5s-30.666 20.5 -51.999 20.5
c-24.667 0 -45.334 -9.5 -62.001 -28.5s-25 -47.167 -25 -84.5v-292h-121zM65.999 568l35 96h-49v101h114v-89l-49 -108h-51z" />
    <glyph glyph-name="Eng" unicode="&#x14a;" horiz-adv-x="644" 
d="M64 0v687.999h109l282 -440h4l-6 440h127v-735c0 -61.333 -11.333 -105.5 -34 -132.5s-62.667 -40.5 -120 -40.5h-60v101h32c20.667 0 36.667 5.83301 48 17.5s17 31.834 17 60.501v56l-274 425h-4l5 -440h-126z" />
    <glyph glyph-name="eng" unicode="&#x14b;" horiz-adv-x="511" 
d="M336 -54l-0.00195312 364c0 36 -6.66699 60.833 -20 74.5s-30.666 20.5 -51.999 20.5c-24.667 0 -45.334 -9.5 -62.001 -28.5s-25 -47.167 -25 -84.5v-292h-121v488h115v-59h4c11.333 24 28.333 41.833 51 53.5s48.334 17.5 77.001 17.5
c42.667 0 79.167 -13.167 109.5 -39.5s45.5 -72.5 45.5 -138.5v-384c0 -48.667 -10.333 -87.167 -31 -115.5s-61.667 -42.5 -123 -42.5h-40v95h24c18.667 0 31.334 5.66699 38.001 17s10 29.333 10 54v0z" />
    <glyph glyph-name="Omacron" unicode="&#x14c;" horiz-adv-x="648" 
d="M36 344c0 111.333 25.667 198.5 77 261.5s121.666 94.5 210.999 94.5c88.667 0 158.834 -31.5 210.501 -94.5s77.5 -150.167 77.5 -261.5c0 -110.667 -25.833 -197.667 -77.5 -261s-121.834 -95 -210.501 -95c-89.333 0 -159.666 31.5 -210.999 94.5
s-77 150.167 -77 261.5v0zM166 344c0 -78 14.167 -138.667 42.5 -182s66.833 -65 115.5 -65s87.167 21.667 115.5 65s42.5 104 42.5 182s-14.167 138.667 -42.5 182s-66.833 65 -115.5 65s-87.167 -21.667 -115.5 -65s-42.5 -104 -42.5 -182v0zM195 776v81h257v-81h-257z
" />
    <glyph glyph-name="omacron" unicode="&#x14d;" horiz-adv-x="493" 
d="M31 244c0 81.333 19.1689 144.333 57.502 189s91.166 67 158.499 67c68 0 120.667 -22.333 158 -67s56 -107.667 56 -189s-19 -144.333 -57 -189s-90.333 -67 -157 -67c-68.667 0 -121.834 22.333 -159.501 67s-56.5 107.667 -56.5 189v0zM154.002 244
c0 -52 7.83301 -92.166 23.5 -120.499s38.834 -42.5 69.501 -42.5c30 0 52.667 14 68 42s23 68.333 23 121c0 53.333 -7.66699 93.666 -23 120.999s-38 41 -68 41c-30.667 0 -53.834 -14 -69.501 -42s-23.5 -68 -23.5 -120v0zM118.002 611.001v81h257v-81h-257z" />
    <glyph glyph-name="Obreve" unicode="&#x14e;" horiz-adv-x="648" 
d="M36 344c0 111.333 25.667 198.5 77 261.5s121.666 94.5 210.999 94.5c88.667 0 158.834 -31.5 210.501 -94.5s77.5 -150.167 77.5 -261.5c0 -110.667 -25.833 -197.667 -77.5 -261s-121.834 -95 -210.501 -95c-89.333 0 -159.666 31.5 -210.999 94.5
s-77 150.167 -77 261.5v0zM166 344c0 -78 14.167 -138.667 42.5 -182s66.833 -65 115.5 -65s87.167 21.667 115.5 65s42.5 104 42.5 182s-14.167 138.667 -42.5 182s-66.833 65 -115.5 65s-87.167 -21.667 -115.5 -65s-42.5 -104 -42.5 -182v0zM324 768
c-34.667 0 -65.333 11 -92 33s-41.334 60.333 -44.001 115h66c2.66699 -25.333 9.83398 -44.833 21.501 -58.5s27.834 -20.5 48.501 -20.5s36.5 7 47.5 21s17.833 33.333 20.5 58h67c-2.66699 -54.667 -17.334 -93 -44.001 -115s-57 -33 -91 -33v0z" />
    <glyph glyph-name="obreve" unicode="&#x14f;" horiz-adv-x="493" 
d="M31 244c0 81.333 19.1689 144.333 57.502 189s91.166 67 158.499 67c68 0 120.667 -22.333 158 -67s56 -107.667 56 -189s-19 -144.333 -57 -189s-90.333 -67 -157 -67c-68.667 0 -121.834 22.333 -159.501 67s-56.5 107.667 -56.5 189v0zM154.002 244
c0 -52 7.83301 -92.166 23.5 -120.499s38.834 -42.5 69.501 -42.5c30 0 52.667 14 68 42s23 68.333 23 121c0 53.333 -7.66699 93.666 -23 120.999s-38 41 -68 41c-30.667 0 -53.834 -14 -69.501 -42s-23.5 -68 -23.5 -120v0zM247.002 576.001c-34.667 0 -65.333 11 -92 33
s-41.334 60.333 -44.001 115h66c2.66699 -25.333 9.83398 -44.833 21.501 -58.5s27.834 -20.5 48.501 -20.5s36.5 7 47.5 21s17.833 33.333 20.5 58h67c-2.66699 -54.667 -17.334 -93 -44.001 -115s-57 -33 -91 -33v0z" />
    <glyph glyph-name="Ohungarumlaut" unicode="&#x150;" horiz-adv-x="648" 
d="M36 344c0 111.333 25.667 198.5 77 261.5s121.666 94.5 210.999 94.5c88.667 0 158.834 -31.5 210.501 -94.5s77.5 -150.167 77.5 -261.5c0 -110.667 -25.833 -197.667 -77.5 -261s-121.834 -95 -210.501 -95c-89.333 0 -159.666 31.5 -210.999 94.5
s-77 150.167 -77 261.5v0zM166 344c0 -78 14.167 -138.667 42.5 -182s66.833 -65 115.5 -65s87.167 21.667 115.5 65s42.5 104 42.5 182s-14.167 138.667 -42.5 182s-66.833 65 -115.5 65s-87.167 -21.667 -115.5 -65s-42.5 -104 -42.5 -182v0zM370 768l83 164h126
l-126 -164h-83zM192 768l83 164h126l-126 -164h-83z" />
    <glyph glyph-name="ohungarumlaut" unicode="&#x151;" horiz-adv-x="493" 
d="M31 244c0 81.333 19.1689 144.333 57.502 189s91.166 67 158.499 67c68 0 120.667 -22.333 158 -67s56 -107.667 56 -189s-19 -144.333 -57 -189s-90.333 -67 -157 -67c-68.667 0 -121.834 22.333 -159.501 67s-56.5 107.667 -56.5 189v0zM154.002 244
c0 -52 7.83301 -92.166 23.5 -120.499s38.834 -42.5 69.501 -42.5c30 0 52.667 14 68 42s23 68.333 23 121c0 53.333 -7.66699 93.666 -23 120.999s-38 41 -68 41c-30.667 0 -53.834 -14 -69.501 -42s-23.5 -68 -23.5 -120v0zM293.002 568.001l83 164h126l-126 -164h-83z
M115.002 568.001l83 164h126l-126 -164h-83z" />
    <glyph glyph-name="OE" unicode="&#x152;" horiz-adv-x="912" 
d="M864 581l-308 -0.000976562v-179h252v-102h-252v-193h318v-107h-519c-106.667 0 -186.5 32.333 -239.5 97s-79.5 146.667 -79.5 246c0 98.667 26.5 180.834 79.5 246.501s132.833 98.5 239.5 98.5h509v-107zM167 342.999c0 -64 14.5 -119.333 43.5 -166
s79.167 -70 150.5 -70h68v474h-68c-71.333 0 -121.5 -24.167 -150.5 -72.5s-43.5 -103.5 -43.5 -165.5v0z" />
    <glyph glyph-name="oe" unicode="&#x153;" horiz-adv-x="774" 
d="M30 244c0 80 19.3301 142.667 57.9971 188s91.334 68 158.001 68c33.333 0 62.333 -5.83301 87 -17.5s45 -28.834 61 -51.501c16 22.667 36 39.834 60 51.501s52.333 17.5 85 17.5c66 0 116.333 -21.5 151 -64.5s52 -102.167 52 -177.5v-35h-292
c2 -47.333 10.833 -83.333 26.5 -108s37.834 -37 66.501 -37c24 0 42.5 6.5 55.5 19.5s21.833 29.833 26.5 50.5h112c-7.33301 -50 -28.5 -89.167 -63.5 -117.5s-79.5 -42.5 -133.5 -42.5c-34 0 -63.333 5.66699 -88 17s-44.667 28 -60 50
c-16 -22 -36.167 -38.667 -60.5 -50s-52.833 -17 -85.5 -17c-67.333 0 -120.166 22.667 -158.499 68s-57.5 108 -57.5 188v0zM152.997 244c0 -52 7.83301 -92.167 23.5 -120.5s38.834 -42.5 69.501 -42.5s53.667 14.167 69 42.5s23 68.5 23 120.5
c0 52.667 -7.66699 93 -23 121s-38.333 42 -69 42s-53.834 -14.167 -69.501 -42.5s-23.5 -68.5 -23.5 -120.5v0zM538.997 410c-24 0 -43.168 -9.50098 -57.501 -28.501s-23.833 -46.5 -28.5 -82.5h168c-2.66699 36.667 -10.667 64.334 -24 83.001s-32.666 28 -57.999 28v0z
" />
    <glyph glyph-name="Racute" unicode="&#x154;" horiz-adv-x="590" 
d="M62 0v688h224c81.333 0 143.5 -18.5 186.5 -55.5s64.5 -89.167 64.5 -156.5c0 -48 -11.667 -89.667 -35 -125s-57 -61.333 -101 -78l160 -273h-140l-143 255h-88v-255h-128zM284 584h-94v-227h94c42.667 0 74.167 10.833 94.5 32.5s30.5 50.167 30.5 85.5
c0 34 -10.333 60.667 -31 80s-52 29 -94 29v0zM234 768l77 164h126l-119 -164h-84z" />
    <glyph glyph-name="racute" unicode="&#x155;" horiz-adv-x="343" 
d="M56 0l-0.000976562 488h115v-63h3c10.667 24.667 25.167 43.334 43.5 56.001s39.833 19 64.5 19c8.66699 0 18.334 -1.33301 29.001 -4s20.334 -7.33398 29.001 -14.001l-21 -106c-8.66699 5.33301 -17.5 9 -26.5 11s-17.5 3 -25.5 3
c-28.667 0 -50.834 -11.167 -66.501 -33.5s-23.5 -55.5 -23.5 -99.5v-257h-121zM152.999 568l77 164h126l-119 -164h-84z" />
    <glyph glyph-name="Rcommaaccent" unicode="&#x156;" horiz-adv-x="590" 
d="M62 0v688h224c81.333 0 143.5 -18.5 186.5 -55.5s64.5 -89.167 64.5 -156.5c0 -48 -11.667 -89.667 -35 -125s-57 -61.333 -101 -78l160 -273h-140l-143 255h-88v-255h-128zM284 584h-94v-227h94c42.667 0 74.167 10.833 94.5 32.5s30.5 50.167 30.5 85.5
c0 34 -10.333 60.667 -31 80s-52 29 -94 29v0zM235 -61h114v-88l-49 -108h-51l35 95h-49v101z" />
    <glyph glyph-name="rcommaaccent" unicode="&#x157;" horiz-adv-x="343" 
d="M56 0l-0.000976562 488h115v-63h3c10.667 24.667 25.167 43.334 43.5 56.001s39.833 19 64.5 19c8.66699 0 18.334 -1.33301 29.001 -4s20.334 -7.33398 29.001 -14.001l-21 -106c-8.66699 5.33301 -17.5 9 -26.5 11s-17.5 3 -25.5 3
c-28.667 0 -50.834 -11.167 -66.501 -33.5s-23.5 -55.5 -23.5 -99.5v-257h-121zM58.999 -61h114v-88l-49 -108h-51l35 95h-49v101z" />
    <glyph glyph-name="Rcaron" unicode="&#x158;" horiz-adv-x="590" 
d="M62 0v688h224c81.333 0 143.5 -18.5 186.5 -55.5s64.5 -89.167 64.5 -156.5c0 -48 -11.667 -89.667 -35 -125s-57 -61.333 -101 -78l160 -273h-140l-143 255h-88v-255h-128zM284 584h-94v-227h94c42.667 0 74.167 10.833 94.5 32.5s30.5 50.167 30.5 85.5
c0 34 -10.333 60.667 -31 80s-52 29 -94 29v0zM230 768l-110 164h97l60 -99l60 99h97l-110 -164h-94z" />
    <glyph glyph-name="rcaron" unicode="&#x159;" horiz-adv-x="343" 
d="M56 0l-0.000976562 488h115v-63h3c10.667 24.667 25.167 43.334 43.5 56.001s39.833 19 64.5 19c8.66699 0 18.334 -1.33301 29.001 -4s20.334 -7.33398 29.001 -14.001l-21 -106c-8.66699 5.33301 -17.5 9 -26.5 11s-17.5 3 -25.5 3
c-28.667 0 -50.834 -11.167 -66.501 -33.5s-23.5 -55.5 -23.5 -99.5v-257h-121zM148.999 568l-110 164h97l60 -99l60 99h97l-110 -164h-94z" />
    <glyph glyph-name="Sacute" unicode="&#x15a;" horiz-adv-x="566" 
d="M37 192h123.999c0 -35.333 11.167 -61.666 33.5 -78.999s50.5 -26 84.5 -26c34.667 0 63.167 8.16699 85.5 24.5s33.5 41.5 33.5 75.5c0 77.333 -58.167 116.833 -174.5 118.5s-174.5 66.5 -174.5 194.5c0 57.333 21.333 105 64 143s99.667 57 171 57
c68.667 0 123.834 -16.667 165.501 -50s62.5 -80.333 62.5 -141h-124c0 32.667 -10.167 56.167 -30.5 70.5s-44.833 21.5 -73.5 21.5s-53.667 -7.33301 -75 -22s-32 -37.334 -32 -68.001c0 -77.333 58.333 -116.833 175 -118.5s175 -66.167 175 -193.5
c0 -62 -21.833 -112.667 -65.5 -152s-104.5 -59 -182.5 -59c-77.333 0 -137 18 -179 54s-63 86 -63 150v0zM239.999 768l77 164h126l-119 -164h-84z" />
    <glyph glyph-name="sacute" unicode="&#x15b;" horiz-adv-x="448" 
d="M29 138l109.999 0.00195312c0 -24.667 8 -42.334 24 -53.001s35 -16 57 -16c24.667 0 44.167 5.33301 58.5 16s21.5 26.334 21.5 47.001c0 18.667 -6.33301 32 -19 40s-28 14.333 -46 19l-74 19c-34 8.66699 -63 23.167 -87 43.5s-36 51.5 -36 93.5
c0 47.333 17.5 84.666 52.5 111.999s79.833 41 134.5 41s98.834 -11.833 132.501 -35.5s50.5 -59.5 50.5 -107.5h-110c0 20.667 -6.83301 36.167 -20.5 46.5s-31.5 15.5 -53.5 15.5s-39.5 -5 -52.5 -15s-19.5 -24 -19.5 -42c0 -16.667 5.5 -29.334 16.5 -38.001
s26.833 -15.334 47.5 -20.001l73 -19c32 -8 61.5 -21.667 88.5 -41s40.5 -51 40.5 -95c0 -54 -18.833 -94.333 -56.5 -121s-85.167 -40 -142.5 -40c-56.667 0 -102.5 12.333 -137.5 37s-52.5 62.334 -52.5 113.001v0zM181.999 568.002l77 164h126l-119 -164h-84z" />
    <glyph glyph-name="Scircumflex" unicode="&#x15c;" horiz-adv-x="566" 
d="M37 192h123.999c0 -35.333 11.167 -61.666 33.5 -78.999s50.5 -26 84.5 -26c34.667 0 63.167 8.16699 85.5 24.5s33.5 41.5 33.5 75.5c0 77.333 -58.167 116.833 -174.5 118.5s-174.5 66.5 -174.5 194.5c0 57.333 21.333 105 64 143s99.667 57 171 57
c68.667 0 123.834 -16.667 165.501 -50s62.5 -80.333 62.5 -141h-124c0 32.667 -10.167 56.167 -30.5 70.5s-44.833 21.5 -73.5 21.5s-53.667 -7.33301 -75 -22s-32 -37.334 -32 -68.001c0 -77.333 58.333 -116.833 175 -118.5s175 -66.167 175 -193.5
c0 -62 -21.833 -112.667 -65.5 -152s-104.5 -59 -182.5 -59c-77.333 0 -137 18 -179 54s-63 86 -63 150v0zM125.999 768l110 164h94l110 -164h-97l-60 99l-60 -99h-97z" />
    <glyph glyph-name="scircumflex" unicode="&#x15d;" horiz-adv-x="448" 
d="M29 138l109.999 0.00195312c0 -24.667 8 -42.334 24 -53.001s35 -16 57 -16c24.667 0 44.167 5.33301 58.5 16s21.5 26.334 21.5 47.001c0 18.667 -6.33301 32 -19 40s-28 14.333 -46 19l-74 19c-34 8.66699 -63 23.167 -87 43.5s-36 51.5 -36 93.5
c0 47.333 17.5 84.666 52.5 111.999s79.833 41 134.5 41s98.834 -11.833 132.501 -35.5s50.5 -59.5 50.5 -107.5h-110c0 20.667 -6.83301 36.167 -20.5 46.5s-31.5 15.5 -53.5 15.5s-39.5 -5 -52.5 -15s-19.5 -24 -19.5 -42c0 -16.667 5.5 -29.334 16.5 -38.001
s26.833 -15.334 47.5 -20.001l73 -19c32 -8 61.5 -21.667 88.5 -41s40.5 -51 40.5 -95c0 -54 -18.833 -94.333 -56.5 -121s-85.167 -40 -142.5 -40c-56.667 0 -102.5 12.333 -137.5 37s-52.5 62.334 -52.5 113.001v0zM67.999 568.002l110 164h94l110 -164h-97l-60 99
l-60 -99h-97z" />
    <glyph glyph-name="Scedilla" unicode="&#x15e;" horiz-adv-x="566" 
d="M234 -88l21.9971 76.9961c-69.333 3.33301 -123.166 22.833 -161.499 58.5s-57.5 83.834 -57.5 144.501h124c0 -35.333 11.167 -61.666 33.5 -78.999s50.5 -26 84.5 -26c34.667 0 63.167 8.16699 85.5 24.5s33.5 41.5 33.5 75.5c0 77.333 -58.167 116.833 -174.5 118.5
s-174.5 66.5 -174.5 194.5c0 57.333 21.333 105 64 143s99.667 57 171 57c68.667 0 123.834 -16.667 165.501 -50s62.5 -80.333 62.5 -141h-124c0 32.667 -10.167 56.167 -30.5 70.5s-44.833 21.5 -73.5 21.5s-53.667 -7.33301 -75 -22s-32 -37.334 -32 -68.001
c0 -77.333 58.333 -116.833 175 -118.5s175 -66.167 175 -193.5c0 -59.333 -20.167 -108.333 -60.5 -147s-96.166 -59.667 -167.499 -63v-27c25.333 -1.33301 45.5 -10.166 60.5 -26.499s22.5 -36.166 22.5 -59.499c0 -27.333 -8.66699 -50.166 -26 -68.499
s-43 -27.5 -77 -27.5h-63v60h45c12.667 0 22.834 2.66699 30.501 8s11.5 15 11.5 29c0 12.667 -3.83301 21.667 -11.5 27s-17.834 8 -30.501 8h-27z" />
    <glyph glyph-name="scedilla" unicode="&#x15f;" horiz-adv-x="448" 
d="M175 -88l22 76.999c-50.667 2.66699 -91.334 16.167 -122.001 40.5s-46 60.5 -46 108.5h110c0 -24.667 8 -42.334 24 -53.001s35 -16 57 -16c24.667 0 44.167 5.33301 58.5 16s21.5 26.334 21.5 47.001c0 18.667 -6.33301 32 -19 40s-28 14.333 -46 19l-74 19
c-34 8.66699 -63 23.167 -87 43.5s-36 51.5 -36 93.5c0 47.333 17.5 84.666 52.5 111.999s79.833 41 134.5 41s98.834 -11.833 132.501 -35.5s50.5 -59.5 50.5 -107.5h-110c0 20.667 -6.83301 36.167 -20.5 46.5s-31.5 15.5 -53.5 15.5s-39.5 -5 -52.5 -15
s-19.5 -24 -19.5 -42c0 -16.667 5.5 -29.334 16.5 -38.001s26.833 -15.334 47.5 -20.001l73 -19c32 -8 61.5 -21.667 88.5 -41s40.5 -51 40.5 -95c0 -51.333 -16.667 -90.166 -50 -116.499s-76 -40.833 -128 -43.5v-27c25.333 -1.33301 45.5 -10.166 60.5 -26.499
s22.5 -36.166 22.5 -59.499c0 -27.333 -8.66699 -50.166 -26 -68.499s-43 -27.5 -77 -27.5h-63v60h45c12.667 0 22.834 2.66699 30.501 8s11.5 15 11.5 29c0 12.667 -3.83301 21.667 -11.5 27s-17.834 8 -30.501 8h-27z" />
    <glyph glyph-name="Scaron" unicode="&#x160;" horiz-adv-x="566" 
d="M37 192h123.999c0 -35.333 11.167 -61.666 33.5 -78.999s50.5 -26 84.5 -26c34.667 0 63.167 8.16699 85.5 24.5s33.5 41.5 33.5 75.5c0 77.333 -58.167 116.833 -174.5 118.5s-174.5 66.5 -174.5 194.5c0 57.333 21.333 105 64 143s99.667 57 171 57
c68.667 0 123.834 -16.667 165.501 -50s62.5 -80.333 62.5 -141h-124c0 32.667 -10.167 56.167 -30.5 70.5s-44.833 21.5 -73.5 21.5s-53.667 -7.33301 -75 -22s-32 -37.334 -32 -68.001c0 -77.333 58.333 -116.833 175 -118.5s175 -66.167 175 -193.5
c0 -62 -21.833 -112.667 -65.5 -152s-104.5 -59 -182.5 -59c-77.333 0 -137 18 -179 54s-63 86 -63 150v0zM235.999 768l-110 164h97l60 -99l60 99h97l-110 -164h-94z" />
    <glyph glyph-name="scaron" unicode="&#x161;" horiz-adv-x="448" 
d="M29 138l109.999 0.00195312c0 -24.667 8 -42.334 24 -53.001s35 -16 57 -16c24.667 0 44.167 5.33301 58.5 16s21.5 26.334 21.5 47.001c0 18.667 -6.33301 32 -19 40s-28 14.333 -46 19l-74 19c-34 8.66699 -63 23.167 -87 43.5s-36 51.5 -36 93.5
c0 47.333 17.5 84.666 52.5 111.999s79.833 41 134.5 41s98.834 -11.833 132.501 -35.5s50.5 -59.5 50.5 -107.5h-110c0 20.667 -6.83301 36.167 -20.5 46.5s-31.5 15.5 -53.5 15.5s-39.5 -5 -52.5 -15s-19.5 -24 -19.5 -42c0 -16.667 5.5 -29.334 16.5 -38.001
s26.833 -15.334 47.5 -20.001l73 -19c32 -8 61.5 -21.667 88.5 -41s40.5 -51 40.5 -95c0 -54 -18.833 -94.333 -56.5 -121s-85.167 -40 -142.5 -40c-56.667 0 -102.5 12.333 -137.5 37s-52.5 62.334 -52.5 113.001v0zM177.999 568.002l-110 164h97l60 -99l60 99h97
l-110 -164h-94z" />
    <glyph glyph-name="Tcommaaccent" unicode="&#x162;" horiz-adv-x="527" 
d="M218 -88l26 87.9971h-44v580h-192v108h511v-108h-192v-580h-44v-38c25.333 -1.33301 45.5 -10.166 60.5 -26.499s22.5 -36.166 22.5 -59.499c0 -27.333 -8.66699 -50.166 -26 -68.499s-43 -27.5 -77 -27.5h-63v60h45c12.667 0 22.834 2.66699 30.501 8s11.5 15 11.5 29
c0 12.667 -3.83301 21.667 -11.5 27s-17.834 8 -30.501 8h-27z" />
    <glyph glyph-name="tcommaaccent" unicode="&#x163;" horiz-adv-x="318" 
d="M141 -88l25 93.9971c-34 8.66699 -57.833 25 -71.5 49s-20.5 57 -20.5 99v242h-80v92h80v148h121v-148h100v-92h-100v-234c0 -24 4.16699 -40.667 12.5 -50s23.5 -14 45.5 -14h42v-98h-64h-13c-4 0 -7.66699 0.333008 -11 1v-39
c25.333 -1.33301 45.5 -10.166 60.5 -26.499s22.5 -36.166 22.5 -59.499c0 -27.333 -8.66699 -50.166 -26 -68.499s-43.333 -27.5 -78 -27.5h-62v60h45c12 0 22 2.66699 30 8s12 15 12 29c0 12.667 -4 21.667 -12 27s-18 8 -30 8h-28z" />
    <glyph glyph-name="Tcaron" unicode="&#x164;" horiz-adv-x="527" 
d="M8 580v108h511v-108h-192v-580h-127v580h-192zM216 768l-110 164h97l60 -99l60 99h97l-110 -164h-94z" />
    <glyph glyph-name="tcaron" unicode="&#x165;" horiz-adv-x="318" 
d="M74 154v242h-80v92h80v148h121v-148h100v-92h-100v-234c0 -24 4.16699 -40.833 12.5 -50.5s23.5 -14.5 45.5 -14.5h44v-97h-66c-58.667 -0 -99.5 12.333 -122.5 37s-34.5 63.667 -34.5 117v0zM247 548l35 101h-49v103h115v-91l-49 -113h-52z" />
    <glyph glyph-name="Tbar" unicode="&#x166;" horiz-adv-x="527" 
d="M8 579v109h510v-109h-191v-232h144v-79h-144v-268h-127v268h-145v79h145v232h-192z" />
    <glyph glyph-name="tbar" unicode="&#x167;" horiz-adv-x="318" 
d="M-6 218l-0.000976562 68.001h80v110h-80v92h80v148h121v-148h100v-92h-100v-110h100v-68h-100v-58c0 -22.667 4.16699 -38.834 12.5 -48.501s23.5 -14.5 45.5 -14.5h42v-97h-65c-57.333 0 -97.666 12 -120.999 36s-35 61.667 -35 113v69h-80z" />
    <glyph glyph-name="Utilde" unicode="&#x168;" horiz-adv-x="619" 
d="M55 244l-0.000976562 444.001h128v-446c0 -48 10.833 -84.167 32.5 -108.5s53.167 -36.5 94.5 -36.5s72.833 12.167 94.5 36.5s32.5 60.166 32.5 107.499v447h127v-444c0 -96 -24 -162.667 -72 -200s-108.667 -56 -182 -56s-134.166 18.667 -182.499 56
s-72.5 104 -72.5 200v0zM153.999 768.001c0.666992 36.667 8.66699 66 24 88s38 33 68 33c26 0 49.833 -7.33301 71.5 -22s40.834 -22 57.501 -22c10.667 0 18.5 4.5 23.5 13.5s7.83301 20.5 8.5 34.5h59c-0.666992 -36.667 -8.66699 -66 -24 -88s-38.333 -33 -69 -33
c-25.333 0 -48.833 7.33301 -70.5 22s-40.834 22 -57.501 22c-10.667 0 -18.5 -4.5 -23.5 -13.5s-7.83301 -20.5 -8.5 -34.5h-59z" />
    <glyph glyph-name="utilde" unicode="&#x169;" horiz-adv-x="509" 
d="M52 166l0.000976562 322h122v-310c0 -36 6.5 -60.833 19.5 -74.5s30.833 -20.5 53.5 -20.5c24 0 44 9.66699 60 29s24 47.333 24 84v292h122v-488h-116v59h-4c-10.667 -24 -27.167 -41.833 -49.5 -53.5s-47.5 -17.5 -75.5 -17.5c-42.667 0 -79.334 13.167 -110.001 39.5
s-46 72.5 -46 138.5v0zM100.001 588c0.666992 36.667 8.66699 66 24 88s38 33 68 33c26 0 49.833 -7.33301 71.5 -22s40.834 -22 57.501 -22c10.667 0 18.5 4.5 23.5 13.5s7.83301 20.5 8.5 34.5h59c-0.666992 -36.667 -8.66699 -66 -24 -88s-38.333 -33 -69 -33
c-25.333 0 -48.833 7.33301 -70.5 22s-40.834 22 -57.501 22c-10.667 0 -18.5 -4.5 -23.5 -13.5s-7.83301 -20.5 -8.5 -34.5h-59z" />
    <glyph glyph-name="Umacron" unicode="&#x16a;" horiz-adv-x="619" 
d="M55 244l-0.000976562 444.001h128v-446c0 -48 10.833 -84.167 32.5 -108.5s53.167 -36.5 94.5 -36.5s72.833 12.167 94.5 36.5s32.5 60.166 32.5 107.499v447h127v-444c0 -96 -24 -162.667 -72 -200s-108.667 -56 -182 -56s-134.166 18.667 -182.499 56
s-72.5 104 -72.5 200v0zM180.999 776.001v81h257v-81h-257z" />
    <glyph glyph-name="umacron" unicode="&#x16b;" horiz-adv-x="509" 
d="M52 166l0.000976562 322h122v-310c0 -36 6.5 -60.833 19.5 -74.5s30.833 -20.5 53.5 -20.5c24 0 44 9.66699 60 29s24 47.333 24 84v292h122v-488h-116v59h-4c-10.667 -24 -27.167 -41.833 -49.5 -53.5s-47.5 -17.5 -75.5 -17.5c-42.667 0 -79.334 13.167 -110.001 39.5
s-46 72.5 -46 138.5v0zM127.001 611v81h257v-81h-257z" />
    <glyph glyph-name="Ubreve" unicode="&#x16c;" horiz-adv-x="619" 
d="M55 244l-0.000976562 444.001h128v-446c0 -48 10.833 -84.167 32.5 -108.5s53.167 -36.5 94.5 -36.5s72.833 12.167 94.5 36.5s32.5 60.166 32.5 107.499v447h127v-444c0 -96 -24 -162.667 -72 -200s-108.667 -56 -182 -56s-134.166 18.667 -182.499 56
s-72.5 104 -72.5 200v0zM309.999 768.001c-34.667 0 -65.333 11 -92 33s-41.334 60.333 -44.001 115h66c2.66699 -25.333 9.83398 -44.833 21.501 -58.5s27.834 -20.5 48.501 -20.5s36.5 7 47.5 21s17.833 33.333 20.5 58h67c-2.66699 -54.667 -17.334 -93 -44.001 -115
s-57 -33 -91 -33v0z" />
    <glyph glyph-name="ubreve" unicode="&#x16d;" horiz-adv-x="509" 
d="M52 166l0.000976562 322h122v-310c0 -36 6.5 -60.833 19.5 -74.5s30.833 -20.5 53.5 -20.5c24 0 44 9.66699 60 29s24 47.333 24 84v292h122v-488h-116v59h-4c-10.667 -24 -27.167 -41.833 -49.5 -53.5s-47.5 -17.5 -75.5 -17.5c-42.667 0 -79.334 13.167 -110.001 39.5
s-46 72.5 -46 138.5v0zM256.001 576c-34.667 0 -65.333 11 -92 33s-41.334 60.333 -44.001 115h66c2.66699 -25.333 9.83398 -44.833 21.501 -58.5s27.834 -20.5 48.501 -20.5s36.5 7 47.5 21s17.833 33.333 20.5 58h67c-2.66699 -54.667 -17.334 -93 -44.001 -115
s-57 -33 -91 -33v0z" />
    <glyph glyph-name="Uring" unicode="&#x16e;" horiz-adv-x="619" 
d="M55 244l-0.000976562 444.001h128v-446c0 -48 10.833 -84.167 32.5 -108.5s53.167 -36.5 94.5 -36.5s72.833 12.167 94.5 36.5s32.5 60.166 32.5 107.499v447h127v-444c0 -96 -24 -162.667 -72 -200s-108.667 -56 -182 -56s-134.166 18.667 -182.499 56
s-72.5 104 -72.5 200v0zM309.999 756.001c-30 0 -55.333 9.5 -76 28.5s-31 43.167 -31 72.5c0 30.667 10.5 55.334 31.5 74.001s46.167 28 75.5 28c28.667 0 53.667 -9.33301 75 -28s32 -43.334 32 -74.001c0 -29.333 -10.333 -53.5 -31 -72.5s-46 -28.5 -76 -28.5v0z
M309.999 807.001c14 0 25.833 4.83301 35.5 14.5s14.5 21.5 14.5 35.5c0 14.667 -4.83301 26.834 -14.5 36.501s-21.5 14.5 -35.5 14.5s-25.833 -4.83301 -35.5 -14.5s-14.5 -21.834 -14.5 -36.501c0 -14 4.83301 -25.833 14.5 -35.5s21.5 -14.5 35.5 -14.5v0z" />
    <glyph glyph-name="uring" unicode="&#x16f;" horiz-adv-x="509" 
d="M52 166l0.000976562 322h122v-310c0 -36 6.5 -60.833 19.5 -74.5s30.833 -20.5 53.5 -20.5c24 0 44 9.66699 60 29s24 47.333 24 84v292h122v-488h-116v59h-4c-10.667 -24 -27.167 -41.833 -49.5 -53.5s-47.5 -17.5 -75.5 -17.5c-42.667 0 -79.334 13.167 -110.001 39.5
s-46 72.5 -46 138.5v0zM256.001 556c-30 0 -55.333 9.5 -76 28.5s-31 43.167 -31 72.5c0 30.667 10.5 55.334 31.5 74.001s46.167 28 75.5 28c28.667 0 53.667 -9.33301 75 -28s32 -43.334 32 -74.001c0 -29.333 -10.333 -53.5 -31 -72.5s-46 -28.5 -76 -28.5v0z
M256.001 607c14 0 25.833 4.83301 35.5 14.5s14.5 21.5 14.5 35.5c0 14.667 -4.83301 26.834 -14.5 36.501s-21.5 14.5 -35.5 14.5s-25.833 -4.83301 -35.5 -14.5s-14.5 -21.834 -14.5 -36.501c0 -14 4.83301 -25.833 14.5 -35.5s21.5 -14.5 35.5 -14.5v0z" />
    <glyph glyph-name="Uhungarumlaut" unicode="&#x170;" horiz-adv-x="619" 
d="M55 244l-0.000976562 444.001h128v-446c0 -48 10.833 -84.167 32.5 -108.5s53.167 -36.5 94.5 -36.5s72.833 12.167 94.5 36.5s32.5 60.166 32.5 107.499v447h127v-444c0 -96 -24 -162.667 -72 -200s-108.667 -56 -182 -56s-134.166 18.667 -182.499 56
s-72.5 104 -72.5 200v0zM355.999 768.001l83 164h126l-126 -164h-83zM177.999 768.001l83 164h126l-126 -164h-83z" />
    <glyph glyph-name="uhungarumlaut" unicode="&#x171;" horiz-adv-x="509" 
d="M52 166l0.000976562 322h122v-310c0 -36 6.5 -60.833 19.5 -74.5s30.833 -20.5 53.5 -20.5c24 0 44 9.66699 60 29s24 47.333 24 84v292h122v-488h-116v59h-4c-10.667 -24 -27.167 -41.833 -49.5 -53.5s-47.5 -17.5 -75.5 -17.5c-42.667 0 -79.334 13.167 -110.001 39.5
s-46 72.5 -46 138.5v0zM302.001 568l83 164h126l-126 -164h-83zM124.001 568l83 164h126l-126 -164h-83z" />
    <glyph glyph-name="Uogonek" unicode="&#x172;" horiz-adv-x="619" 
d="M257 -124c0 23.333 7.33105 44.501 21.998 63.501s32.334 35.5 53.001 49.5c-3.33301 -0.666992 -7 -1 -11 -1h-11c-73.333 0 -134.166 18.667 -182.499 56s-72.5 104 -72.5 200v444h128v-446c0 -48 10.833 -84.167 32.5 -108.5s53.167 -36.5 94.5 -36.5
s72.833 12.167 94.5 36.5s32.5 60.166 32.5 107.499v447h127v-444c0 -60 -10 -108 -30 -144s-46.333 -63.333 -79 -82c-32.667 -18 -60.167 -38.333 -82.5 -61s-33.5 -43.334 -33.5 -62.001c0 -14 4 -24.833 12 -32.5s20.667 -11.5 38 -11.5h23v-71h-40
c-36.667 0 -65 8.33301 -85 25s-30 40.334 -30 71.001v0z" />
    <glyph glyph-name="uogonek" unicode="&#x173;" horiz-adv-x="509" 
d="M317 -129c0 22.667 6.66895 44.001 20.002 64.001s31.666 41.667 54.999 65h-55v59h-4c-10.667 -24 -27.167 -41.833 -49.5 -53.5s-47.5 -17.5 -75.5 -17.5c-42.667 0 -79.334 13.167 -110.001 39.5s-46 72.5 -46 138.5v322h122v-310c0 -36 6.5 -60.833 19.5 -74.5
s30.833 -20.5 53.5 -20.5c24 0 44 9.66699 60 29s24 47.333 24 84v292h122v-488h-1c-18.667 -22.667 -33 -43 -43 -61s-15 -33.333 -15 -46s3.5 -22.834 10.5 -30.501s19.167 -11.5 36.5 -11.5h25v-71h-40c-37.333 0 -64.833 8.33301 -82.5 25s-26.5 38.667 -26.5 66v0z" />
    <glyph glyph-name="Wcircumflex" unicode="&#x174;" horiz-adv-x="846" 
d="M152 0l-146 688h134l99 -542h4l115 542h135l114 -542h4l98 542h131l-145 -688h-161l-108 520h-4l-108 -520h-162zM266 768l110 164h94l110 -164h-97l-60 99l-60 -99h-97z" />
    <glyph glyph-name="wcircumflex" unicode="&#x175;" horiz-adv-x="678" 
d="M119 0l-114 488h123l67 -362h4l82 362h120l81 -362h4l68 362h119l-115 -488h-138l-79 360h-4l-79 -360h-139zM182 568l110 164h94l110 -164h-97l-60 99l-60 -99h-97z" />
    <glyph glyph-name="Ycircumflex" unicode="&#x176;" horiz-adv-x="572" 
d="M222 0v264l-214 424h141l137 -294h4l142 294h132l-215 -419v-269h-127zM129 768l110 164h94l110 -164h-97l-60 99l-60 -99h-97z" />
    <glyph glyph-name="ycircumflex" unicode="&#x177;" horiz-adv-x="447" 
d="M148 0l-145 488h131l90 -360h4l93 360h122l-167 -565c-12 -40 -31 -75.167 -57 -105.5s-65.667 -45.5 -119 -45.5h-47v97h28c22.667 0 41.5 5.33301 56.5 16s26.833 31.667 35.5 63l13 52h-38zM66 568l110 164h94l110 -164h-97l-60 99l-60 -99h-97z" />
    <glyph glyph-name="Ydieresis" unicode="&#x178;" horiz-adv-x="572" 
d="M222 0v264l-214 424h141l137 -294h4l142 294h132l-215 -419v-269h-127zM328 768v111h109v-111h-109zM135 768v111h109v-111h-109z" />
    <glyph glyph-name="Zacute" unicode="&#x179;" horiz-adv-x="519" 
d="M37 581v107h455v-75l-306 -506h304v-107h-463v73l306 508h-296zM217 768l77 164h126l-119 -164h-84z" />
    <glyph glyph-name="zacute" unicode="&#x17a;" horiz-adv-x="409" 
d="M27 395v93h352v-73l-208 -322h212v-93h-356v65l212 330h-212zM160 568l77 164h126l-119 -164h-84z" />
    <glyph glyph-name="Zdotaccent" unicode="&#x17b;" horiz-adv-x="519" 
d="M37 581v107h455v-75l-306 -506h304v-107h-463v73l306 508h-296zM203 768v111h114v-111h-114z" />
    <glyph glyph-name="zdotaccent" unicode="&#x17c;" horiz-adv-x="409" 
d="M27 395v93h352v-73l-208 -322h212v-93h-356v65l212 330h-212zM146 600v111h114v-111h-114z" />
    <glyph glyph-name="Zcaron" unicode="&#x17d;" horiz-adv-x="519" 
d="M37 581v107h455v-75l-306 -506h304v-107h-463v73l306 508h-296zM213 768l-110 164h97l60 -99l60 99h97l-110 -164h-94z" />
    <glyph glyph-name="zcaron" unicode="&#x17e;" horiz-adv-x="409" 
d="M27 395v93h352v-73l-208 -322h212v-93h-356v65l212 330h-212zM156 568l-110 164h97l60 -99l60 99h97l-110 -164h-94z" />
    <glyph glyph-name="longs" unicode="&#x17f;" horiz-adv-x="294" 
d="M76 0v396h-79v92h79v81c0 56 11.833 97.167 35.5 123.5s65.5 39.5 125.5 39.5h66v-95h-41c-24.667 0 -41.5 -5.66699 -50.5 -17s-13.5 -31.333 -13.5 -60v-560h-122z" />
    <glyph glyph-name="florin" unicode="&#x192;" horiz-adv-x="491" 
d="M51 279v78.998h115l17 163c6.66699 65.333 24.167 111.5 52.5 138.5s67.5 40.5 117.5 40.5c46 0 80.667 -13.167 104 -39.5s33 -67.5 29 -123.5l-3 -38h-102l3 36c2.66699 26.667 1.16699 45.834 -4.5 57.501s-15.834 17.5 -30.501 17.5s-25.334 -7.16699 -32.001 -21.5
s-11.667 -36.833 -15 -67.5l-17 -163h129v-79h-137l-30 -290c-6.66699 -64.667 -24.167 -110.667 -52.5 -138s-67.5 -41 -117.5 -41c-46 0 -81 13.167 -105 39.5s-33 67.5 -27 123.5l4 38h100l-3 -35c-2 -27.333 -0.333008 -46.666 5 -57.999s15.333 -17 30 -17
s25.334 7 32.001 21s11.334 36.333 14.001 67l30 290h-106z" />
    <glyph glyph-name="AEacute" unicode="&#x1fc;" horiz-adv-x="948" 
d="M2 0l406 688h492v-107h-306v-179h250v-102h-250v-193h316v-107h-444v154h-237l-87 -154h-140zM462 562l-173 -304h177v304h-4zM487 768l77 164h126l-119 -164h-84z" />
    <glyph glyph-name="aeacute" unicode="&#x1fd;" horiz-adv-x="734" 
d="M47 330c3.33301 60 23.332 103.333 59.999 130s80 40 130 40c32 0 59.333 -4 82 -12s41 -20.333 55 -37c15.333 16 33.833 28.167 55.5 36.5s45.834 12.5 72.501 12.5c64 0 113.333 -21.5 148 -64.5s52 -102.167 52 -177.5v-35h-286c2 -48 10.833 -84.167 26.5 -108.5
s36.834 -36.5 63.501 -36.5c24 0 41.833 6.5 53.5 19.5s19.834 29.833 24.501 50.5h112c-7.33301 -50 -28.333 -89.167 -63 -117.5s-78 -42.5 -130 -42.5c-38 0 -70.333 7.5 -97 22.5s-47.667 36.5 -63 64.5c-17.333 -33.333 -39.5 -56.166 -66.5 -68.499
s-56.167 -18.5 -87.5 -18.5c-50 0 -88.333 12.5 -115 37.5s-40 57.833 -40 98.5c0 41.333 12.5 74.5 37.5 99.5s62.167 41.833 111.5 50.5l70 13c21.333 4 35.166 8.83301 41.499 14.5s9.5 17.5 9.5 35.5c0 23.333 -5.66699 41.666 -17 54.999s-28.333 20 -51 20
c-22 0 -39.833 -6.5 -53.5 -19.5s-20.834 -33.833 -21.501 -62.5h-114zM212.999 76c22.667 0 43.5 8.00098 62.5 24.001s28.5 46.667 28.5 92v41c-3.33301 -4.66699 -8 -8.5 -14 -11.5s-12.667 -5.16699 -20 -6.5l-54 -9c-22 -4 -38.333 -11.833 -49 -23.5
s-16 -26.834 -16 -45.501c0 -20 6 -35.167 18 -45.5s26.667 -15.5 44 -15.5v0zM501.999 410.001c-24 0 -42.8311 -9.5 -56.498 -28.5s-22.5 -46.5 -26.5 -82.5h162c-2.66699 36 -10.334 63.5 -23.001 82.5s-31.334 28.5 -56.001 28.5v0zM322.001 568.001l77 164h126
l-119 -164h-84z" />
    <glyph glyph-name="Oslashacute" unicode="&#x1fe;" horiz-adv-x="648" 
d="M41 -12l67.999 99c-23.333 30.667 -41.333 67.667 -54 111s-19 92 -19 146c0 111.333 25.833 198.5 77.5 261.5s121.834 94.5 210.501 94.5c32.667 0 63.167 -4.5 91.5 -13.5s53.833 -22.167 76.5 -39.5l36 53h79l-68 -100c23.333 -30.667 41.333 -67.5 54 -110.5
s19 -91.5 19 -145.5c0 -110.667 -26 -197.667 -78 -261s-122 -95 -210 -95c-32.667 0 -63.167 4.5 -91.5 13.5s-53.833 21.833 -76.5 38.5l-35 -52h-80zM165.999 344c0 -28 1.83398 -53.832 5.50098 -77.499s9.16699 -44.834 16.5 -63.501l235 344
c-12.667 14.667 -27.334 25.667 -44.001 33s-35 11 -55 11c-48.667 0 -87.167 -21.667 -115.5 -65s-42.5 -104 -42.5 -182v0zM482 344.001c0 28 -2.00098 53.832 -6.00098 77.499s-9.33301 44.834 -16 63.501l-235 -345c12.667 -14 27.334 -24.667 44.001 -32s35 -11 55 -11
c48.667 0 87.167 21.667 115.5 65s42.5 104 42.5 182v0zM280.999 768l77 164h126l-119 -164h-84z" />
    <glyph glyph-name="oslashacute" unicode="&#x1ff;" horiz-adv-x="491" 
d="M36 -12l48.999 70.001c-18 21.333 -31.667 47.666 -41 78.999s-14 67 -14 107c0 80 19.5 142.667 58.5 188s91.5 68 157.5 68c24.667 0 47.334 -3.16699 68.001 -9.5s39.334 -15.5 56.001 -27.5l26 37h61l-50 -71c17.333 -22 30.666 -48.667 39.999 -80
s14 -66.333 14 -105c0 -80 -19.333 -142.667 -58 -188s-91 -68 -157 -68c-24.667 0 -47.167 3 -67.5 9s-38.833 14.333 -55.5 25l-24 -34h-63zM152.999 244.001c0 -14.667 0.501953 -28.832 1.50195 -42.499s2.83301 -25.834 5.5 -36.501l148 210
c-7.33301 10 -16.333 17.667 -27 23s-22.334 8 -35.001 8c-30.667 0 -53.834 -14 -69.501 -42s-23.5 -68 -23.5 -120v0zM338.001 244.003c0 14.667 -0.666016 28.167 -1.99902 40.5s-3 23.833 -5 34.5l-146 -209c7.33301 -9.33301 16.166 -16.5 26.499 -21.5
s21.833 -7.5 34.5 -7.5c30 0 52.833 14.167 68.5 42.5s23.5 68.5 23.5 120.5v0zM203.002 568.003l77 164h126l-119 -164h-84z" />
    <glyph glyph-name="Scommaaccent" unicode="&#x218;" horiz-adv-x="566" 
d="M37 192h123.999c0 -35.333 11.167 -61.666 33.5 -78.999s50.5 -26 84.5 -26c34.667 0 63.167 8.16699 85.5 24.5s33.5 41.5 33.5 75.5c0 77.333 -58.167 116.833 -174.5 118.5s-174.5 66.5 -174.5 194.5c0 57.333 21.333 105 64 143s99.667 57 171 57
c68.667 0 123.834 -16.667 165.501 -50s62.5 -80.333 62.5 -141h-124c0 32.667 -10.167 56.167 -30.5 70.5s-44.833 21.5 -73.5 21.5s-53.667 -7.33301 -75 -22s-32 -37.334 -32 -68.001c0 -77.333 58.333 -116.833 175 -118.5s175 -66.167 175 -193.5
c0 -62 -21.833 -112.667 -65.5 -152s-104.5 -59 -182.5 -59c-77.333 0 -137 18 -179 54s-63 86 -63 150v0zM221.999 -61h114v-88l-49 -108h-51l35 95h-49v101z" />
    <glyph glyph-name="scommaaccent" unicode="&#x219;" horiz-adv-x="448" 
d="M29 138l109.999 0.00195312c0 -24.667 8 -42.334 24 -53.001s35 -16 57 -16c24.667 0 44.167 5.33301 58.5 16s21.5 26.334 21.5 47.001c0 18.667 -6.33301 32 -19 40s-28 14.333 -46 19l-74 19c-34 8.66699 -63 23.167 -87 43.5s-36 51.5 -36 93.5
c0 47.333 17.5 84.666 52.5 111.999s79.833 41 134.5 41s98.834 -11.833 132.501 -35.5s50.5 -59.5 50.5 -107.5h-110c0 20.667 -6.83301 36.167 -20.5 46.5s-31.5 15.5 -53.5 15.5s-39.5 -5 -52.5 -15s-19.5 -24 -19.5 -42c0 -16.667 5.5 -29.334 16.5 -38.001
s26.833 -15.334 47.5 -20.001l73 -19c32 -8 61.5 -21.667 88.5 -41s40.5 -51 40.5 -95c0 -54 -18.833 -94.333 -56.5 -121s-85.167 -40 -142.5 -40c-56.667 0 -102.5 12.333 -137.5 37s-52.5 62.334 -52.5 113.001v0zM162.999 -60.998h114v-88l-49 -108h-51l35 95h-49v101z
" />
    <glyph glyph-name="uni021A" unicode="&#x21a;" horiz-adv-x="527" 
d="M8 580v108h511v-108h-192v-580h-127v580h-192zM206 -61h114v-88l-49 -108h-51l35 95h-49v101z" />
    <glyph glyph-name="uni021B" unicode="&#x21b;" horiz-adv-x="318" 
d="M74 154v242h-80v92h80v148h121v-148h100v-92h-100v-234c0 -24 4.16699 -40.667 12.5 -50s23.5 -14 45.5 -14h42v-98h-64c-58.667 -0 -99.5 12.333 -122.5 37s-34.5 63.667 -34.5 117v0zM124 -61h114v-88l-49 -108h-51l35 95h-49v101z" />
    <glyph glyph-name="circumflex" unicode="&#x2c6;" horiz-adv-x="490" 
d="M88 568l110 164h94l110 -164h-97l-60 99l-60 -99h-97z" />
    <glyph glyph-name="caron" unicode="&#x2c7;" horiz-adv-x="490" 
d="M198 568l-110 164h97l60 -99l60 99h97l-110 -164h-94z" />
    <glyph glyph-name="uni02C9" unicode="&#x2c9;" horiz-adv-x="490" 
d="M116 611v81h257v-81h-257z" />
    <glyph glyph-name="breve" unicode="&#x2d8;" horiz-adv-x="490" 
d="M245 576c-34.667 0 -65.333 11 -92 33s-41.334 60.333 -44.001 115h66c2.66699 -25.333 9.83398 -44.833 21.501 -58.5s27.834 -20.5 48.501 -20.5s36.5 7 47.5 21s17.833 33.333 20.5 58h67c-2.66699 -54.667 -17.334 -93 -44.001 -115s-57 -33 -91 -33v0z" />
    <glyph glyph-name="dotaccent" unicode="&#x2d9;" horiz-adv-x="490" 
d="M188 600v111h114v-111h-114z" />
    <glyph glyph-name="ring" unicode="&#x2da;" horiz-adv-x="490" 
d="M245 556c-30 0 -55.333 9.5 -76 28.5s-31 43.167 -31 72.5c0 30.667 10.5 55.334 31.5 74.001s46.167 28 75.5 28c28.667 0 53.667 -9.33301 75 -28s32 -43.334 32 -74.001c0 -29.333 -10.333 -53.5 -31 -72.5s-46 -28.5 -76 -28.5v0zM245 607
c14 0 25.833 4.83301 35.5 14.5s14.5 21.5 14.5 35.5c0 14.667 -4.83301 26.834 -14.5 36.501s-21.5 14.5 -35.5 14.5s-25.833 -4.83301 -35.5 -14.5s-14.5 -21.834 -14.5 -36.501c0 -14 4.83301 -25.833 14.5 -35.5s21.5 -14.5 35.5 -14.5v0z" />
    <glyph glyph-name="ogonek" unicode="&#x2db;" horiz-adv-x="490" 
d="M170 -129c0 22.667 6.66797 44.001 20.001 64.001s31.666 41.667 54.999 65h60c-18.667 -22.667 -33 -43 -43 -61s-15 -33.333 -15 -46s3.5 -22.834 10.5 -30.501s19.167 -11.5 36.5 -11.5h25v-71h-40c-37.333 0 -64.833 8.33301 -82.5 25s-26.5 38.667 -26.5 66v0z" />
    <glyph glyph-name="tilde" unicode="&#x2dc;" horiz-adv-x="490" 
d="M89 588c0.666992 36.667 8.66699 66 24 88s38 33 68 33c26 0 49.833 -7.33301 71.5 -22s40.834 -22 57.501 -22c10.667 0 18.5 4.5 23.5 13.5s7.83301 20.5 8.5 34.5h59c-0.666992 -36.667 -8.66699 -66 -24 -88s-38.333 -33 -69 -33c-25.333 0 -48.833 7.33301 -70.5 22
s-40.834 22 -57.501 22c-10.667 0 -18.5 -4.5 -23.5 -13.5s-7.83301 -20.5 -8.5 -34.5h-59z" />
    <glyph glyph-name="hungarumlaut" unicode="&#x2dd;" horiz-adv-x="490" 
d="M291 568l83 164h126l-126 -164h-83zM113 568l83 164h126l-126 -164h-83z" />
    <glyph glyph-name="uni0394" unicode="&#x394;" horiz-adv-x="570" 
d="M14 0l206 688h130l206 -688h-542zM285 556h-4l-121 -457h245z" />
    <glyph glyph-name="uni03A9" unicode="&#x3a9;" horiz-adv-x="616" 
d="M349 0v244.999c28.667 8.66699 54.167 28 76.5 58s33.5 71 33.5 123c0 54.667 -13.833 98.167 -41.5 130.5s-64.167 48.5 -109.5 48.5s-81.833 -16.167 -109.5 -48.5s-41.5 -75.833 -41.5 -130.5c0 -52 11.167 -93 33.5 -123s47.833 -49.333 76.5 -58v-245h-209v91h108
v100c-40 21.333 -72 52.333 -96 93s-36 88 -36 142c0 76.667 24.167 141.5 72.5 194.5s115.5 79.5 201.5 79.5s153.167 -26.5 201.5 -79.5s72.5 -117.833 72.5 -194.5c0 -54.667 -12 -102.167 -36 -142.5s-56 -71.166 -96 -92.499v-100h108v-91h-209z" />
    <glyph glyph-name="uni03BC" unicode="&#x3bc;" horiz-adv-x="517" 
d="M342 0v62h-4c-10.667 -24.667 -26.667 -43.167 -48 -55.5s-46.333 -18.5 -75 -18.5c-8 0 -16 0.666992 -24 2s-15.333 3 -22 5c2.66699 -30 5 -57.667 7 -83s3 -50 3 -74v-58h-120v708h120v-311c0 -36 6.83301 -60.667 20.5 -74s31.5 -20 53.5 -20
c24.667 0 44.667 9.83301 60 29.5s23 47.167 23 82.5v293h122v-488h-116z" />
    <glyph glyph-name="pi" unicode="&#x3c0;" horiz-adv-x="521" 
d="M62 0v488h397v-488h-121v393h-155v-393h-121z" />
    <glyph glyph-name="Wgrave" unicode="&#x1e80;" horiz-adv-x="846" 
d="M152 0l-146 688h134l99 -542h4l115 542h135l114 -542h4l98 542h131l-145 -688h-161l-108 520h-4l-108 -520h-162zM382 768l-126 164h125l85 -164h-84z" />
    <glyph glyph-name="wgrave" unicode="&#x1e81;" horiz-adv-x="678" 
d="M119 0l-114 488h123l67 -362h4l82 362h120l81 -362h4l68 362h119l-115 -488h-138l-79 360h-4l-79 -360h-139zM298 568l-126 164h125l85 -164h-84z" />
    <glyph glyph-name="Wacute" unicode="&#x1e82;" horiz-adv-x="846" 
d="M152 0l-146 688h134l99 -542h4l115 542h135l114 -542h4l98 542h131l-145 -688h-161l-108 520h-4l-108 -520h-162zM380 768l77 164h126l-119 -164h-84z" />
    <glyph glyph-name="wacute" unicode="&#x1e83;" horiz-adv-x="678" 
d="M119 0l-114 488h123l67 -362h4l82 362h120l81 -362h4l68 362h119l-115 -488h-138l-79 360h-4l-79 -360h-139zM296 568l77 164h126l-119 -164h-84z" />
    <glyph glyph-name="Wdieresis" unicode="&#x1e84;" horiz-adv-x="846" 
d="M152 0l-146 688h134l99 -542h4l115 542h135l114 -542h4l98 542h131l-145 -688h-161l-108 520h-4l-108 -520h-162zM465 768v111h109v-111h-109zM272 768v111h109v-111h-109z" />
    <glyph glyph-name="wdieresis" unicode="&#x1e85;" horiz-adv-x="678" 
d="M119 0l-114 488h123l67 -362h4l82 362h120l81 -362h4l68 362h119l-115 -488h-138l-79 360h-4l-79 -360h-139zM382 600v111h109v-111h-109zM187 600v111h109v-111h-109z" />
    <glyph glyph-name="Ygrave" unicode="&#x1ef2;" horiz-adv-x="572" 
d="M222 0v264l-214 424h141l137 -294h4l142 294h132l-215 -419v-269h-127zM245 768l-126 164h125l85 -164h-84z" />
    <glyph glyph-name="ygrave" unicode="&#x1ef3;" horiz-adv-x="447" 
d="M148 0l-145 488h131l90 -360h4l93 360h122l-167 -565c-12 -40 -31 -75.167 -57 -105.5s-65.667 -45.5 -119 -45.5h-47v97h28c22.667 0 41.5 5.33301 56.5 16s26.833 31.667 35.5 63l13 52h-38zM182 568l-126 164h125l85 -164h-84z" />
    <glyph glyph-name="endash" unicode="&#x2013;" horiz-adv-x="462" 
d="M41 201v102h380v-102h-380z" />
    <glyph glyph-name="emdash" unicode="&#x2014;" horiz-adv-x="698" 
d="M41 201v102h616v-102h-616z" />
    <glyph glyph-name="quoteleft" unicode="&#x2018;" horiz-adv-x="233" 
d="M56 413v118l43 157h55l-28 -151h50v-124h-120z" />
    <glyph glyph-name="quoteright" unicode="&#x2019;" horiz-adv-x="233" 
d="M79 413l27 151h-50v124h120v-118l-42 -157h-55z" />
    <glyph glyph-name="quotesinglbase" unicode="&#x201a;" horiz-adv-x="233" 
d="M106 0h-50v124h120v-117l-42 -158h-55z" />
    <glyph glyph-name="quotedblleft" unicode="&#x201c;" horiz-adv-x="419" 
d="M56 413v118l43 157h55l-28 -151h50v-124h-120zM244 413v118l42 157h55l-28 -151h50v-124h-119z" />
    <glyph glyph-name="quotedblright" unicode="&#x201d;" horiz-adv-x="419" 
d="M79 413l27 151h-50v124h120v-118l-42 -157h-55zM266 413l28 151h-50v124h119v-118l-42 -157h-55z" />
    <glyph glyph-name="quotedblbase" unicode="&#x201e;" horiz-adv-x="419" 
d="M106 0h-50v124h120v-117l-42 -158h-55zM294 0h-50v124h119v-117l-42 -158h-55z" />
    <glyph glyph-name="dagger" unicode="&#x2020;" horiz-adv-x="443" 
d="M36 435v83h136v170h100v-170h136v-83h-136v-435h-100v435h-136z" />
    <glyph glyph-name="daggerdbl" unicode="&#x2021;" horiz-adv-x="443" 
d="M36 444v82h136v162h100v-162h136v-82h-136v-204h136v-82h-136v-158h-100v158h-136v82h136v204h-136z" />
    <glyph glyph-name="bullet" unicode="&#x2022;" horiz-adv-x="450" 
d="M225 80c-48 0 -88.667 16.667 -122 50s-50 74 -50 122s16.667 88.667 50 122s74 50 122 50s88.667 -16.667 122 -50s50 -74 50 -122s-16.667 -88.667 -50 -122s-74 -50 -122 -50v0z" />
    <glyph glyph-name="ellipsis" unicode="&#x2026;" horiz-adv-x="736" 
d="M546 0v134h134v-134h-134zM301 0v134h134v-134h-134zM57 0v134h133v-134h-133z" />
    <glyph glyph-name="perthousand" unicode="&#x2030;" horiz-adv-x="1048" 
d="M161 336c-48.667 0 -85.167 16 -109.5 48s-36.5 76 -36.5 132c0 54 12.167 97.5 36.5 130.5s60.833 49.5 109.5 49.5c48 0 84.167 -16 108.5 -48s36.5 -76 36.5 -132c0 -54 -12.167 -97.5 -36.5 -130.5s-60.5 -49.5 -108.5 -49.5v0zM161 411
c15.333 0 27.5 7.66699 36.5 23s13.5 42.666 13.5 81.999s-4.5 66.666 -13.5 81.999s-21.167 23 -36.5 23c-16 0 -28.5 -7.66699 -37.5 -23s-13.5 -42.666 -13.5 -81.999s4.5 -66.666 13.5 -81.999s21.5 -23 37.5 -23v0zM172 -12l309 712h74l-309 -712h-74zM566 -8
c-48 0 -84.167 16 -108.5 48s-36.5 76 -36.5 132c0 54 12.167 97.5 36.5 130.5s60.5 49.5 108.5 49.5s84.167 -16 108.5 -48s36.5 -76 36.5 -132c0 -54 -12.167 -97.5 -36.5 -130.5s-60.5 -49.5 -108.5 -49.5v0zM566 67c15.333 0 27.5 7.66699 36.5 23
s13.5 42.666 13.5 81.999s-4.5 66.666 -13.5 81.999s-21.167 23 -36.5 23c-16 0 -28.5 -7.66699 -37.5 -23s-13.5 -42.666 -13.5 -81.999s4.5 -66.666 13.5 -81.999s21.5 -23 37.5 -23v0zM887 -8c-48 0 -84.167 16 -108.5 48s-36.5 76 -36.5 132
c0 54 12.167 97.5 36.5 130.5s60.5 49.5 108.5 49.5c48.667 0 85 -16 109 -48s36 -76 36 -132c0 -54 -12 -97.5 -36 -130.5s-60.333 -49.5 -109 -49.5v0zM887 67c15.333 0 27.667 7.66699 37 23s14 42.666 14 81.999s-4.5 66.666 -13.5 81.999s-21.5 23 -37.5 23
s-28.333 -7.66699 -37 -23s-13 -42.666 -13 -81.999s4.5 -66.666 13.5 -81.999s21.167 -23 36.5 -23v0z" />
    <glyph glyph-name="guilsinglleft" unicode="&#x2039;" horiz-adv-x="297" 
d="M158 48l-120 204l120 204h100l-95 -204l95 -204h-100z" />
    <glyph glyph-name="guilsinglright" unicode="&#x203a;" horiz-adv-x="297" 
d="M38 48l95 204l-95 204h100l120 -204l-120 -204h-100z" />
    <glyph glyph-name="fraction" unicode="&#x2044;" horiz-adv-x="84" 
d="M-150 -12c12.667 25.333 64.333 144 155 356s142 330.667 154 356h74l-309 -712h-74z" />
    <glyph glyph-name="uni2070" unicode="&#x2070;" 
d="M161 488c-48.667 0 -85.167 16 -109.5 48s-36.5 76 -36.5 132c0 54 12.167 97.5 36.5 130.5s60.833 49.5 109.5 49.5c48 0 84.167 -16 108.5 -48s36.5 -76 36.5 -132c0 -54 -12.167 -97.5 -36.5 -130.5s-60.5 -49.5 -108.5 -49.5v0zM161 563
c15.333 0 27.5 7.66699 36.5 23s13.5 42.666 13.5 81.999s-4.5 66.666 -13.5 81.999s-21.167 23 -36.5 23c-16 0 -28.5 -7.66699 -37.5 -23s-13.5 -42.666 -13.5 -81.999s4.5 -66.666 13.5 -81.999s21.5 -23 37.5 -23v0z" />
    <glyph glyph-name="uni2074" unicode="&#x2074;" 
d="M16 554v60l166 227h81v-216h38v-71h-38v-58h-94v58h-153zM96 625h73v102z" />
    <glyph glyph-name="uni2075" unicode="&#x2075;" 
d="M32 589l88.999 -0.000976562c0.666992 -10.667 4.33398 -19.667 11.001 -27s16.334 -11 29.001 -11c11.333 0 21.166 4.16699 29.499 12.5s12.5 21.833 12.5 40.5c0 19.333 -4.16699 32.833 -12.5 40.5s-17.833 11.5 -28.5 11.5s-19.167 -2.66699 -25.5 -8
s-10.833 -12.666 -13.5 -21.999l-84 10l13 204h225v-74h-148l-6 -71c6 6.66699 14 12 24 16s22.667 6 38 6c30 0 55.667 -8.5 77 -25.5s32 -44.5 32 -82.5c0 -40.667 -12.5 -71 -37.5 -91s-56.5 -30 -94.5 -30c-44 0 -76.333 9.66699 -97 29s-31.667 43.333 -33 72v0z" />
    <glyph glyph-name="uni2076" unicode="&#x2076;" 
d="M291 747l-86.999 -0.000976562c-0.666992 10.667 -3.83398 19.334 -9.50098 26.001s-13.834 10 -24.501 10c-14 0 -25.167 -6.33301 -33.5 -19s-13.5 -38 -15.5 -76h3c6.66699 9.33301 16.167 16.5 28.5 21.5s25.833 7.5 40.5 7.5c28.667 0 53.167 -8.5 73.5 -25.5
s30.5 -44.5 30.5 -82.5c0 -39.333 -12.5 -69.333 -37.5 -90s-56.167 -31 -93.5 -31c-44 0 -78.333 12.667 -103 38s-37 69.333 -37 132c0 66 13 114.167 39 144.5s61.333 45.5 106 45.5c42 0 72.333 -9.5 91 -28.5s28.334 -43.167 29.001 -72.5v0zM165.001 655.999
c-10.667 0 -20.167 -3.66699 -28.5 -11s-12.5 -21 -12.5 -41c0 -19.333 4 -33 12 -41s17.667 -12 29 -12c10.667 0 20.167 3.83301 28.5 11.5s12.5 21.5 12.5 41.5c0 19.333 -4 32.833 -12 40.5s-17.667 11.5 -29 11.5v0z" />
    <glyph glyph-name="uni2077" unicode="&#x2077;" 
d="M67 496l121 262h-161v82h268v-54l-129 -290h-99z" />
    <glyph glyph-name="uni2078" unicode="&#x2078;" 
d="M20 587c0 22.667 5.5 41.167 16.5 55.5s24.833 24.166 41.5 29.499v3c-14 5.33301 -25.5 14.5 -34.5 27.5s-13.5 28.833 -13.5 47.5c0 26.667 11 49.667 33 69s54.667 29 98 29c42.667 0 75.167 -9.66699 97.5 -29s33.5 -42.333 33.5 -69
c0 -18.667 -4.5 -34.5 -13.5 -47.5s-20.833 -22.167 -35.5 -27.5v-3c16.667 -5.33301 30.667 -15.166 42 -29.499s17 -32.833 17 -55.5c0 -28.667 -11.833 -52.334 -35.5 -71.001s-58.834 -28 -105.501 -28c-47.333 0 -82.666 9.33301 -105.999 28s-35 42.334 -35 71.001v0z
M114 596c0 -16.667 4.5 -28.667 13.5 -36s20.167 -11 33.5 -11c12.667 0 23.5 3.66699 32.5 11s13.5 19.333 13.5 36c0 16 -4.5 27.833 -13.5 35.5s-19.833 11.5 -32.5 11.5c-13.333 0 -24.5 -3.83301 -33.5 -11.5s-13.5 -19.5 -13.5 -35.5v0zM119 744
c0 -14.667 3.83301 -25.334 11.5 -32.001s17.834 -10 30.501 -10s22.667 3.33301 30 10s11 17.334 11 32.001c0 14 -3.66699 24.5 -11 31.5s-17.333 10.5 -30 10.5s-22.834 -3.5 -30.501 -10.5s-11.5 -17.5 -11.5 -31.5v0z" />
    <glyph glyph-name="uni2079" unicode="&#x2079;" 
d="M29 589h86.999c0 -10.667 3.5 -19.334 10.5 -26.001s15.833 -10 26.5 -10c13.333 0 23.666 6.33301 30.999 19s11.666 38 12.999 76h-1c-5.33301 -9.33301 -14.166 -16.5 -26.499 -21.5s-26.166 -7.5 -41.499 -7.5c-28.667 0 -53.5 8.33301 -74.5 25
s-31.5 43.334 -31.5 80.001c0 40 12.5 70.667 37.5 92s56.5 32 94.5 32c44 0 78.167 -12.667 102.5 -38s36.5 -69.333 36.5 -132c0 -66.667 -12.167 -115 -36.5 -145s-59.166 -45 -104.499 -45c-41.333 0 -72 9.5 -92 28.5s-30.333 43.167 -31 72.5v0zM154.999 680
c10.667 0 20.167 3.66699 28.5 11s12.5 21.333 12.5 42c0 18.667 -4 32 -12 40s-17.667 12 -29 12c-10.667 0 -20.167 -3.83301 -28.5 -11.5s-12.5 -21.5 -12.5 -41.5c0 -19.333 4 -32.833 12 -40.5s17.667 -11.5 29 -11.5v0z" />
    <glyph glyph-name="uni2080" unicode="&#x2080;" 
d="M161 -160c-48.667 0 -85.167 16 -109.5 48s-36.5 76 -36.5 132c0 54 12.167 97.5 36.5 130.5s60.833 49.5 109.5 49.5c48 0 84.167 -16 108.5 -48s36.5 -76 36.5 -132c0 -54 -12.167 -97.5 -36.5 -130.5s-60.5 -49.5 -108.5 -49.5v0zM161 -85
c15.333 0 27.5 7.66699 36.5 23s13.5 42.666 13.5 81.999s-4.5 66.666 -13.5 81.999s-21.167 23 -36.5 23c-16 0 -28.5 -7.66699 -37.5 -23s-13.5 -42.666 -13.5 -81.999s4.5 -66.666 13.5 -81.999s21.5 -23 37.5 -23v0z" />
    <glyph glyph-name="uni2081" unicode="&#x2081;" 
d="M62 48l-36 63l139 81h55v-269h79v-75h-260v75h84v159z" />
    <glyph glyph-name="uni2082" unicode="&#x2082;" 
d="M24 -152c0.666992 46 9.50098 81.498 26.501 106.498s39.5 45.833 67.5 62.5l29 19c15.333 8.66699 28.166 17.5 38.499 26.5s15.5 19.5 15.5 31.5c0 10.667 -3.33301 19.334 -10 26.001s-17 10 -31 10s-24.833 -4.5 -32.5 -13.5s-11.834 -22.5 -12.501 -40.5h-90
c0.666992 43.333 14.334 74.833 41.001 94.5s58.334 29.5 95.001 29.5c40 0 72.167 -9 96.5 -27s36.5 -43.333 36.5 -76c0 -27.333 -7.33301 -49 -22 -65s-34.334 -31.333 -59.001 -46l-29 -19c-13.333 -7.33301 -24.5 -14.666 -33.5 -21.999s-13.833 -15.333 -14.5 -24h155
v-73h-267z" />
    <glyph glyph-name="uni2083" unicode="&#x2083;" 
d="M25 -48l89.0029 -0.000976562c0 -16.667 4.5 -29.167 13.5 -37.5s20.167 -12.5 33.5 -12.5c12.667 0 23.5 3.83301 32.5 11.5s13.5 19.834 13.5 36.501c0 16 -4.83301 27.667 -14.5 35s-21.834 11 -36.501 11h-20v57h19c14 0 25.333 3.33301 34 10s13 17 13 31
c0 14.667 -3.66699 25.5 -11 32.5s-17.333 10.5 -30 10.5s-22.834 -3.83301 -30.501 -11.5s-11.5 -18.834 -11.5 -33.501h-85c0.666992 32.667 12.167 58.834 34.5 78.501s53.5 29.5 93.5 29.5c42 0 74.167 -9.5 96.5 -28.5s33.5 -42.167 33.5 -69.5
c0 -18.667 -4.5 -34.5 -13.5 -47.5s-20.833 -22.167 -35.5 -27.5v-3c16.667 -4.66699 30.667 -14 42 -28s17 -32.333 17 -55c0 -29.333 -11.833 -53.5 -35.5 -72.5s-58.834 -28.5 -105.501 -28.5c-44 0 -77.5 9.33301 -100.5 28s-34.833 46.667 -35.5 84v0z" />
    <glyph glyph-name="uni2084" unicode="&#x2084;" 
d="M16 -94v60l166 227h81v-216h38v-71h-38v-58h-94v58h-153zM96 -23h73v102z" />
    <glyph glyph-name="uni2085" unicode="&#x2085;" 
d="M32 -59l88.999 -0.000976562c0.666992 -10.667 4.33398 -19.667 11.001 -27s16.334 -11 29.001 -11c11.333 0 21.166 4.16699 29.499 12.5s12.5 21.833 12.5 40.5c0 19.333 -4.16699 32.833 -12.5 40.5s-17.833 11.5 -28.5 11.5s-19.167 -2.66699 -25.5 -8
s-10.833 -12.666 -13.5 -21.999l-84 10l13 204h225v-74h-148l-6 -71c6 6.66699 14 12 24 16s22.667 6 38 6c30 0 55.667 -8.5 77 -25.5s32 -44.5 32 -82.5c0 -40.667 -12.5 -71 -37.5 -91s-56.5 -30 -94.5 -30c-44 0 -76.333 9.66699 -97 29s-31.667 43.333 -33 72v0z" />
    <glyph glyph-name="uni2086" unicode="&#x2086;" 
d="M291 99l-86.999 -0.000976562c-0.666992 10.667 -3.83398 19.334 -9.50098 26.001s-13.834 10 -24.501 10c-14 0 -25.167 -6.33301 -33.5 -19s-13.5 -38 -15.5 -76h3c6.66699 9.33301 16.167 16.5 28.5 21.5s25.833 7.5 40.5 7.5c28.667 0 53.167 -8.5 73.5 -25.5
s30.5 -44.5 30.5 -82.5c0 -39.333 -12.5 -69.333 -37.5 -90s-56.167 -31 -93.5 -31c-44 0 -78.333 12.667 -103 38s-37 69.333 -37 132c0 66 13 114.167 39 144.5s61.333 45.5 106 45.5c42 0 72.333 -9.5 91 -28.5s28.334 -43.167 29.001 -72.5v0zM165.001 7.99902
c-10.667 0 -20.167 -3.66699 -28.5 -11s-12.5 -21 -12.5 -41c0 -19.333 4 -33 12 -41s17.667 -12 29 -12c10.667 0 20.167 3.83301 28.5 11.5s12.5 21.5 12.5 41.5c0 19.333 -4 32.833 -12 40.5s-17.667 11.5 -29 11.5v0z" />
    <glyph glyph-name="uni2087" unicode="&#x2087;" 
d="M67 -152l121 262h-161v82h268v-54l-129 -290h-99z" />
    <glyph glyph-name="uni2088" unicode="&#x2088;" 
d="M20 -61c0 22.667 5.5 41.167 16.5 55.5s24.833 24.166 41.5 29.499v3c-14 5.33301 -25.5 14.5 -34.5 27.5s-13.5 28.833 -13.5 47.5c0 26.667 11 49.667 33 69s54.667 29 98 29c42.667 0 75.167 -9.66699 97.5 -29s33.5 -42.333 33.5 -69
c0 -18.667 -4.5 -34.5 -13.5 -47.5s-20.833 -22.167 -35.5 -27.5v-3c16.667 -5.33301 30.667 -15.166 42 -29.499s17 -32.833 17 -55.5c0 -28.667 -11.833 -52.334 -35.5 -71.001s-58.834 -28 -105.501 -28c-47.333 0 -82.666 9.33301 -105.999 28s-35 42.334 -35 71.001v0z
M114 -52c0 -16.667 4.5 -28.667 13.5 -36s20.167 -11 33.5 -11c12.667 0 23.5 3.66699 32.5 11s13.5 19.333 13.5 36c0 16 -4.5 27.833 -13.5 35.5s-19.833 11.5 -32.5 11.5c-13.333 0 -24.5 -3.83301 -33.5 -11.5s-13.5 -19.5 -13.5 -35.5v0zM119 96
c0 -14.667 3.83301 -25.334 11.5 -32.001s17.834 -10 30.501 -10s22.667 3.33301 30 10s11 17.334 11 32.001c0 14 -3.66699 24.5 -11 31.5s-17.333 10.5 -30 10.5s-22.834 -3.5 -30.501 -10.5s-11.5 -17.5 -11.5 -31.5v0z" />
    <glyph glyph-name="uni2089" unicode="&#x2089;" 
d="M29 -59h86.999c0 -10.667 3.5 -19.334 10.5 -26.001s15.833 -10 26.5 -10c13.333 0 23.666 6.33301 30.999 19s11.666 38 12.999 76h-1c-5.33301 -9.33301 -14.166 -16.5 -26.499 -21.5s-26.166 -7.5 -41.499 -7.5c-28.667 0 -53.5 8.33301 -74.5 25
s-31.5 43.334 -31.5 80.001c0 40 12.5 70.667 37.5 92s56.5 32 94.5 32c44 0 78.167 -12.667 102.5 -38s36.5 -69.333 36.5 -132c0 -66.667 -12.167 -115 -36.5 -145s-59.166 -45 -104.499 -45c-41.333 0 -72 9.5 -92 28.5s-30.333 43.167 -31 72.5v0zM154.999 32
c10.667 0 20.167 3.66699 28.5 11s12.5 21.333 12.5 42c0 18.667 -4 32 -12 40s-17.667 12 -29 12c-10.667 0 -20.167 -3.83301 -28.5 -11.5s-12.5 -21.5 -12.5 -41.5c0 -19.333 4 -32.833 12 -40.5s17.667 -11.5 29 -11.5v0z" />
    <glyph glyph-name="Euro" unicode="&#x20ac;" horiz-adv-x="491" 
d="M3 385l17.999 64.001h45c9.33301 77.333 31.5 138.5 66.5 183.5s84.5 67.5 148.5 67.5c58 0 102 -16.333 132 -49s48.667 -78 56 -136h-110c-5.33301 29.333 -14.333 51 -27 65s-29.334 21 -50.001 21c-26.667 0 -47.667 -12.167 -63 -36.5
s-25.666 -62.833 -30.999 -115.5h158l-19 -64h-144v-77h140l-19 -65h-117c5.33301 -54 16 -93.5 32 -118.5s37.333 -37.5 64 -37.5c20 0 35.833 6.5 47.5 19.5s20.834 33.167 27.501 60.5h110c-8 -56 -27.167 -99.833 -57.5 -131.5s-73.5 -47.5 -129.5 -47.5
c-65.333 0 -115.333 22.667 -150 68s-56.667 107.666 -66 186.999h-80l19 65h56v36v20.5c0 7 0.333008 13.833 1 20.5h-58z" />
    <glyph glyph-name="afii61289" unicode="&#x2113;" horiz-adv-x="412" 
d="M129 26c-14 14.667 -23.833 33.832 -29.5 57.499s-8.5 50.834 -8.5 81.501v74l-2 1l-59 -41l-12 24l37 30l36 31v136c0 71.333 6.5 125 19.5 161s30.833 64.333 53.5 85c13.333 12 27 20.5 41 25.5s28.667 7.5 44 7.5c31.333 0 56 -11.5 74 -34.5s27 -54.167 27 -93.5
c0 -66 -22 -122.167 -66 -168.5s-82.333 -82.5 -115 -108.5v-109c0 -54 9 -90.5 27 -109.5s39.333 -28.5 64 -28.5c23.333 0 44.5 7 63.5 21s37.167 33.667 54.5 59l22 -16c-16 -38 -38.5 -68 -67.5 -90s-62.833 -33 -101.5 -33c-22.667 0 -42.5 3.33301 -59.5 10
s-31.167 16 -42.5 28v0zM171 341.998c30.667 26.667 58.5 59.667 83.5 99s37.5 83 37.5 131c0 30.667 -5 53.5 -15 68.5s-23.333 22.5 -40 22.5c-21.333 0 -38 -13.5 -50 -40.5s-18 -73.167 -18 -138.5v-141z" />
    <glyph glyph-name="afii61352" unicode="&#x2116;" horiz-adv-x="1036" 
d="M61 0v688h110l278 -438h4l-4 438h127v-688h-109l-279 437h-4l4 -437h-127zM679 517c0 60 14.1699 105 42.5029 135s66.166 45 113.499 45s85.166 -15 113.499 -45s42.5 -75 42.5 -135s-14.333 -105 -43 -135s-66.334 -45 -113.001 -45c-48 0 -86 15 -114 45
s-42 75 -42 135v0zM679.003 0v71h312v-71h-312zM679.003 178v71h312v-71h-312zM777.003 517c0 -38 5 -65.5 15 -82.5s24.333 -25.5 43 -25.5s33 8.5 43 25.5s15 44.5 15 82.5c0 37.333 -5 64.5 -15 81.5s-24.333 25.5 -43 25.5s-33 -8.5 -43 -25.5s-15 -44.167 -15 -81.5v0z
" />
    <glyph glyph-name="trademark" unicode="&#x2122;" horiz-adv-x="692" 
d="M306 344v344h117l60 -227h4l60 227h118v-344h-83l5 235h-4l-65 -235h-66l-65 235h-4l5 -235h-82zM4 614v74h269v-74h-92v-270h-83v270h-94z" />
    <glyph glyph-name="Omega" unicode="&#x2126;" horiz-adv-x="616" 
d="M349 0v244.999c28.667 8.66699 54.167 28 76.5 58s33.5 71 33.5 123c0 54.667 -13.833 98.167 -41.5 130.5s-64.167 48.5 -109.5 48.5s-81.833 -16.167 -109.5 -48.5s-41.5 -75.833 -41.5 -130.5c0 -52 11.167 -93 33.5 -123s47.833 -49.333 76.5 -58v-245h-209v91h108
v100c-40 21.333 -72 52.333 -96 93s-36 88 -36 142c0 76.667 24.167 141.5 72.5 194.5s115.5 79.5 201.5 79.5s153.167 -26.5 201.5 -79.5s72.5 -117.833 72.5 -194.5c0 -54.667 -12 -102.167 -36 -142.5s-56 -71.166 -96 -92.499v-100h108v-91h-209z" />
    <glyph glyph-name="estimated" unicode="&#x212e;" horiz-adv-x="850" 
d="M184 113c30 -31.333 65.999 -56.333 107.999 -75s87 -28 135 -28c50.667 0 98.167 10.5 142.5 31.5s81.833 49.5 112.5 85.5h58c-36 -42 -81.5 -75.667 -136.5 -101s-114.167 -38 -177.5 -38c-108.667 0 -202 34.667 -280 104s-117 153.333 -117 252
c0 98 39 181.833 117 251.5s171.333 104.5 280 104.5s201.834 -34.833 279.501 -104.5s116.5 -153.5 116.5 -251.5v-10h-641c-2 0 -3.66699 -0.333008 -5 -1s-2 -1.66699 -2 -3v-194c0 -4 1 -8 3 -12s4.33301 -7.66699 7 -11v0zM180.999 355l492.001 0.000976562
c0.666992 0 1.5 0.5 2.5 1.5s1.5 2.5 1.5 4.5v193c0 4.66699 -0.833008 9 -2.5 13s-4.16699 7.66699 -7.5 11c-30.667 30.667 -66.834 55 -108.501 73s-85.5 27 -131.5 27c-48 0 -92.833 -9.5 -134.5 -28.5s-77.5 -43.833 -107.5 -74.5
c-3.33301 -3.33301 -6 -7.33301 -8 -12s-3 -9.33398 -3 -14.001v-188c0 -2 0.666992 -3.5 2 -4.5s3 -1.5 5 -1.5v0z" />
    <glyph glyph-name="uni2153" unicode="&#x2153;" horiz-adv-x="726" 
d="M430 104l89.002 -0.000976562c0 -16.667 4.5 -29.167 13.5 -37.5s20.167 -12.5 33.5 -12.5c12.667 0 23.5 3.83301 32.5 11.5s13.5 19.834 13.5 36.501c0 16 -4.83301 27.667 -14.5 35s-21.834 11 -36.501 11h-20v57h19c14.667 0 26.167 3.33301 34.5 10s12.5 17 12.5 31
c0 14.667 -3.66699 25.5 -11 32.5s-17.333 10.5 -30 10.5s-22.667 -3.83301 -30 -11.5s-11 -18.834 -11 -33.501h-86c0.666992 32.667 12.167 58.834 34.5 78.501s53.5 29.5 93.5 29.5c42 0 74.167 -9.5 96.5 -28.5s33.5 -42.167 33.5 -69.5
c0 -18.667 -4.5 -34.5 -13.5 -47.5s-20.833 -22.167 -35.5 -27.5v-3c16.667 -4.66699 30.667 -14 42 -28s17 -32.333 17 -55c0 -29.333 -11.833 -53.5 -35.5 -72.5s-58.834 -28.5 -105.501 -28.5c-44 0 -77.5 9.33301 -100.5 28s-34.833 46.667 -35.5 84v0zM189.002 -12.001
l309 712h73l-309 -712h-73zM62.002 543.999l-36 63l139 81h55v-269h79v-75h-260v75h84v159z" />
    <glyph glyph-name="uni2154" unicode="&#x2154;" horiz-adv-x="726" 
d="M24 344c0.666992 46 9.50098 81.498 26.501 106.498s39.5 45.833 67.5 62.5l29 19c15.333 8.66699 28.166 17.5 38.499 26.5s15.5 19.5 15.5 31.5c0 10.667 -3.33301 19.334 -10 26.001s-17 10 -31 10s-24.833 -4.5 -32.5 -13.5s-11.834 -22.5 -12.501 -40.5h-90
c0.666992 43.333 14.334 74.833 41.001 94.5s58.334 29.5 95.001 29.5c40 0 72.167 -9 96.5 -27s36.5 -43.333 36.5 -76c0 -27.333 -7.33301 -49 -22 -65s-34.334 -31.333 -59.001 -46l-29 -19c-13.333 -7.33301 -24.5 -14.666 -33.5 -21.999s-13.833 -15.333 -14.5 -24h155
v-73h-267zM430.001 103.998l89.002 -0.000976562c0 -16.667 4.5 -29.167 13.5 -37.5s20.167 -12.5 33.5 -12.5c12.667 0 23.5 3.83301 32.5 11.5s13.5 19.834 13.5 36.501c0 16 -4.83301 27.667 -14.5 35s-21.834 11 -36.501 11h-20v57h19c14.667 0 26.167 3.33301 34.5 10
s12.5 17 12.5 31c0 14.667 -3.66699 25.5 -11 32.5s-17.333 10.5 -30 10.5s-22.667 -3.83301 -30 -11.5s-11 -18.834 -11 -33.501h-86c0.666992 32.667 12.167 58.834 34.5 78.501s53.5 29.5 93.5 29.5c42 0 74.167 -9.5 96.5 -28.5s33.5 -42.167 33.5 -69.5
c0 -18.667 -4.5 -34.5 -13.5 -47.5s-20.833 -22.167 -35.5 -27.5v-3c16.667 -4.66699 30.667 -14 42 -28s17 -32.333 17 -55c0 -29.333 -11.833 -53.5 -35.5 -72.5s-58.834 -28.5 -105.501 -28.5c-44 0 -77.5 9.33301 -100.5 28s-34.833 46.667 -35.5 84v0z
M187.003 -12.0029l309 712h74l-309 -712h-74z" />
    <glyph glyph-name="uni2155" unicode="&#x2155;" horiz-adv-x="726" 
d="M437 93l88.999 -0.000976562c0.666992 -10.667 4.33398 -19.667 11.001 -27s16.334 -11 29.001 -11c11.333 0 21.166 4.16699 29.499 12.5s12.5 21.833 12.5 40.5c0 19.333 -4.16699 32.833 -12.5 40.5s-17.833 11.5 -28.5 11.5s-19.167 -2.66699 -25.5 -8
s-10.833 -12.666 -13.5 -21.999l-84 10l13 204h225v-74h-148l-6 -71c6 6.66699 14 12 24 16s22.667 6 38 6c30 0 55.667 -8.5 77 -25.5s32 -44.5 32 -82.5c0 -40.667 -12.5 -71 -37.5 -91s-56.5 -30 -94.5 -30c-44 0 -76.333 9.66699 -97 29s-31.667 43.333 -33 72v0z
M184.999 -12.001l309 712h73l-309 -712h-73zM61.999 543.999l-36 63l139 81h55v-269h79v-75h-260v75h84v159z" />
    <glyph glyph-name="uni2156" unicode="&#x2156;" horiz-adv-x="726" 
d="M24 344c0.666992 46 9.50098 81.498 26.501 106.498s39.5 45.833 67.5 62.5l29 19c15.333 8.66699 28.166 17.5 38.499 26.5s15.5 19.5 15.5 31.5c0 10.667 -3.33301 19.334 -10 26.001s-17 10 -31 10s-24.833 -4.5 -32.5 -13.5s-11.834 -22.5 -12.501 -40.5h-90
c0.666992 43.333 14.334 74.833 41.001 94.5s58.334 29.5 95.001 29.5c40 0 72.167 -9 96.5 -27s36.5 -43.333 36.5 -76c0 -27.333 -7.33301 -49 -22 -65s-34.334 -31.333 -59.001 -46l-29 -19c-13.333 -7.33301 -24.5 -14.666 -33.5 -21.999s-13.833 -15.333 -14.5 -24h155
v-73h-267zM437.001 92.998l88.999 -0.000976562c0.666992 -10.667 4.33398 -19.667 11.001 -27s16.334 -11 29.001 -11c11.333 0 21.166 4.16699 29.499 12.5s12.5 21.833 12.5 40.5c0 19.333 -4.16699 32.833 -12.5 40.5s-17.833 11.5 -28.5 11.5
s-19.167 -2.66699 -25.5 -8s-10.833 -12.666 -13.5 -21.999l-84 10l13 204h225v-74h-148l-6 -71c6 6.66699 14 12 24 16s22.667 6 38 6c30 0 55.667 -8.5 77 -25.5s32 -44.5 32 -82.5c0 -40.667 -12.5 -71 -37.5 -91s-56.5 -30 -94.5 -30c-44 0 -76.333 9.66699 -97 29
s-31.667 43.333 -33 72v0zM181 -12.0029l309 712h74l-309 -712h-74z" />
    <glyph glyph-name="uni2157" unicode="&#x2157;" horiz-adv-x="726" 
d="M437 93l88.999 -0.000976562c0.666992 -10.667 4.33398 -19.667 11.001 -27s16.334 -11 29.001 -11c11.333 0 21.166 4.16699 29.499 12.5s12.5 21.833 12.5 40.5c0 19.333 -4.16699 32.833 -12.5 40.5s-17.833 11.5 -28.5 11.5s-19.167 -2.66699 -25.5 -8
s-10.833 -12.666 -13.5 -21.999l-84 10l13 204h225v-74h-148l-6 -71c6 6.66699 14 12 24 16s22.667 6 38 6c30 0 55.667 -8.5 77 -25.5s32 -44.5 32 -82.5c0 -40.667 -12.5 -71 -37.5 -91s-56.5 -30 -94.5 -30c-44 0 -76.333 9.66699 -97 29s-31.667 43.333 -33 72v0z
M24.999 447.999l89.0029 -0.000976562c0 -16.667 4.5 -29.167 13.5 -37.5s20.167 -12.5 33.5 -12.5c12.667 0 23.5 3.83301 32.5 11.5s13.5 19.834 13.5 36.501c0 16 -4.83301 27.667 -14.5 35s-21.834 11 -36.501 11h-20v57h19c14 0 25.333 3.33301 34 10s13 17 13 31
c0 14.667 -3.66699 25.5 -11 32.5s-17.333 10.5 -30 10.5s-22.834 -3.83301 -30.501 -11.5s-11.5 -18.834 -11.5 -33.501h-85c0.666992 32.667 12.167 58.834 34.5 78.501s53.5 29.5 93.5 29.5c42 0 74.167 -9.5 96.5 -28.5s33.5 -42.167 33.5 -69.5
c0 -18.667 -4.5 -34.5 -13.5 -47.5s-20.833 -22.167 -35.5 -27.5v-3c16.667 -4.66699 30.667 -14 42 -28s17 -32.333 17 -55c0 -29.333 -11.833 -53.5 -35.5 -72.5s-58.834 -28.5 -105.501 -28.5c-44 0 -77.5 9.33301 -100.5 28s-34.833 46.667 -35.5 84v0zM173.002 -12.002
l309 712h73l-309 -712h-73z" />
    <glyph glyph-name="uni2158" unicode="&#x2158;" horiz-adv-x="726" 
d="M437 93l88.999 -0.000976562c0.666992 -10.667 4.33398 -19.667 11.001 -27s16.334 -11 29.001 -11c11.333 0 21.166 4.16699 29.499 12.5s12.5 21.833 12.5 40.5c0 19.333 -4.16699 32.833 -12.5 40.5s-17.833 11.5 -28.5 11.5s-19.167 -2.66699 -25.5 -8
s-10.833 -12.666 -13.5 -21.999l-84 10l13 204h225v-74h-148l-6 -71c6 6.66699 14 12 24 16s22.667 6 38 6c30 0 55.667 -8.5 77 -25.5s32 -44.5 32 -82.5c0 -40.667 -12.5 -71 -37.5 -91s-56.5 -30 -94.5 -30c-44 0 -76.333 9.66699 -97 29s-31.667 43.333 -33 72v0z
M15.999 401.999v60l166 227h81v-216h38v-71h-38v-58h-94v58h-153zM175.999 -12.001l309 712h74l-309 -712h-74zM95.999 472.999h73v102z" />
    <glyph glyph-name="uni2159" unicode="&#x2159;" horiz-adv-x="726" 
d="M696 251l-86.999 -0.000976562c-0.666992 10.667 -3.83398 19.334 -9.50098 26.001s-13.834 10 -24.501 10c-14 0 -25.167 -6.33301 -33.5 -19s-13.5 -38 -15.5 -76h3c6.66699 9.33301 16.167 16.5 28.5 21.5s25.833 7.5 40.5 7.5c28.667 0 53.167 -8.5 73.5 -25.5
s30.5 -44.5 30.5 -82.5c0 -39.333 -12.5 -69.333 -37.5 -90s-56.167 -31 -93.5 -31c-44 0 -78.333 12.667 -103 38s-37 69.333 -37 132c0 66 13 114.167 39 144.5s61.333 45.5 106 45.5c42 0 72.333 -9.5 91 -28.5s28.334 -43.167 29.001 -72.5v0zM193.001 -12.001l309 712
h74l-309 -712h-74zM62.001 543.999l-36 63l139 81h55v-269h79v-75h-260v75h84v159zM570.001 159.999c-10.667 0 -20.167 -3.66699 -28.5 -11s-12.5 -21 -12.5 -41c0 -19.333 4 -33 12 -41s17.667 -12 29 -12c10.667 0 20.167 3.83301 28.5 11.5s12.5 21.5 12.5 41.5
c0 19.333 -4 32.833 -12 40.5s-17.667 11.5 -29 11.5v0z" />
    <glyph glyph-name="uni215A" unicode="&#x215a;" horiz-adv-x="726" 
d="M696 251l-86.999 -0.000976562c-0.666992 10.667 -3.83398 19.334 -9.50098 26.001s-13.834 10 -24.501 10c-14 0 -25.167 -6.33301 -33.5 -19s-13.5 -38 -15.5 -76h3c6.66699 9.33301 16.167 16.5 28.5 21.5s25.833 7.5 40.5 7.5c28.667 0 53.167 -8.5 73.5 -25.5
s30.5 -44.5 30.5 -82.5c0 -39.333 -12.5 -69.333 -37.5 -90s-56.167 -31 -93.5 -31c-44 0 -78.333 12.667 -103 38s-37 69.333 -37 132c0 66 13 114.167 39 144.5s61.333 45.5 106 45.5c42 0 72.333 -9.5 91 -28.5s28.334 -43.167 29.001 -72.5v0zM32.001 436.999
l88.999 -0.000976562c0.666992 -10.667 4.33398 -19.667 11.001 -27s16.334 -11 29.001 -11c11.333 0 21.166 4.16699 29.499 12.5s12.5 21.833 12.5 40.5c0 19.333 -4.16699 32.833 -12.5 40.5s-17.833 11.5 -28.5 11.5s-19.167 -2.66699 -25.5 -8
s-10.833 -12.666 -13.5 -21.999l-84 10l13 204h225v-74h-148l-6 -71c6 6.66699 14 12 24 16s22.667 6 38 6c30 0 55.667 -8.5 77 -25.5s32 -44.5 32 -82.5c0 -40.667 -12.5 -71 -37.5 -91s-56.5 -30 -94.5 -30c-44 0 -76.333 9.66699 -97 29s-31.667 43.333 -33 72v0z
M172 -12.002l309 712h74l-309 -712h-74zM570 159.998c-10.667 0 -20.167 -3.5 -28.5 -10.5s-12.5 -20.833 -12.5 -41.5c0 -19.333 4 -33 12 -41s17.667 -12 29 -12c10.667 0 20.167 3.83301 28.5 11.5s12.5 21.5 12.5 41.5c0 19.333 -4 32.833 -12 40.5
s-17.667 11.5 -29 11.5v0z" />
    <glyph glyph-name="uni215B" unicode="&#x215b;" horiz-adv-x="726" 
d="M425 91c0 22.667 5.50195 41.167 16.502 55.5s24.833 24.166 41.5 29.499v3c-14 5.33301 -25.5 14.5 -34.5 27.5s-13.5 28.833 -13.5 47.5c0 26.667 11.167 49.667 33.5 69s54.833 29 97.5 29s75.167 -9.66699 97.5 -29s33.5 -42.333 33.5 -69
c0 -18.667 -4.5 -34.5 -13.5 -47.5s-20.833 -22.167 -35.5 -27.5v-3c16.667 -5.33301 30.667 -15.166 42 -29.499s17 -32.833 17 -55.5c0 -28.667 -11.833 -52.334 -35.5 -71.001s-58.834 -28 -105.501 -28s-81.834 9.33301 -105.501 28s-35.5 42.334 -35.5 71.001v0z
M191.002 -12l309 712h73l-309 -712h-73zM62.002 544l-36 63l139 81h55v-269h79v-75h-260v75h84v159zM519.002 100c0 -16.667 4.5 -28.667 13.5 -36s20.167 -11 33.5 -11c12.667 0 23.5 3.66699 32.5 11s13.5 19.333 13.5 36c0 16 -4.5 27.833 -13.5 35.5
s-19.833 11.5 -32.5 11.5c-13.333 0 -24.5 -3.83301 -33.5 -11.5s-13.5 -19.5 -13.5 -35.5v0zM525.002 248c0 -14.667 3.66699 -25.334 11 -32.001s17.333 -10 30 -10s22.667 3.33301 30 10s11 17.334 11 32.001c0 14 -3.66699 24.5 -11 31.5s-17.333 10.5 -30 10.5
s-22.667 -3.5 -30 -10.5s-11 -17.5 -11 -31.5v0z" />
    <glyph glyph-name="uni215C" unicode="&#x215c;" horiz-adv-x="726" 
d="M425 91c0 22.667 5.50195 41.167 16.502 55.5s24.833 24.166 41.5 29.499v3c-14 5.33301 -25.5 14.5 -34.5 27.5s-13.5 28.833 -13.5 47.5c0 26.667 11.167 49.667 33.5 69s54.833 29 97.5 29s75.167 -9.66699 97.5 -29s33.5 -42.333 33.5 -69
c0 -18.667 -4.5 -34.5 -13.5 -47.5s-20.833 -22.167 -35.5 -27.5v-3c16.667 -5.33301 30.667 -15.166 42 -29.499s17 -32.833 17 -55.5c0 -28.667 -11.833 -52.334 -35.5 -71.001s-58.834 -28 -105.501 -28s-81.834 9.33301 -105.501 28s-35.5 42.334 -35.5 71.001v0z
M25.002 448l89.0029 -0.000976562c0 -16.667 4.5 -29.167 13.5 -37.5s20.167 -12.5 33.5 -12.5c12.667 0 23.5 3.83301 32.5 11.5s13.5 19.834 13.5 36.501c0 16 -4.83301 27.667 -14.5 35s-21.834 11 -36.501 11h-20v57h19c14 0 25.333 3.33301 34 10s13 17 13 31
c0 14.667 -3.66699 25.5 -11 32.5s-17.333 10.5 -30 10.5s-22.834 -3.83301 -30.501 -11.5s-11.5 -18.834 -11.5 -33.501h-85c0.666992 32.667 12.167 58.834 34.5 78.501s53.5 29.5 93.5 29.5c42 0 74.167 -9.5 96.5 -28.5s33.5 -42.167 33.5 -69.5
c0 -18.667 -4.5 -34.5 -13.5 -47.5s-20.833 -22.167 -35.5 -27.5v-3c16.667 -4.66699 30.667 -14 42 -28s17 -32.333 17 -55c0 -29.333 -11.833 -53.5 -35.5 -72.5s-58.834 -28.5 -105.501 -28.5c-44 0 -77.5 9.33301 -100.5 28s-34.833 46.667 -35.5 84v0zM174.005 -12.001
l309 712h74l-309 -712h-74zM519.005 99.999c0 -16.667 4.5 -28.667 13.5 -36s20.167 -11 33.5 -11c12.667 0 23.5 3.66699 32.5 11s13.5 19.333 13.5 36c0 16 -4.5 27.833 -13.5 35.5s-19.833 11.5 -32.5 11.5c-13.333 0 -24.5 -3.83301 -33.5 -11.5
s-13.5 -19.5 -13.5 -35.5v0zM525.005 247.999c0 -14.667 3.66699 -25.334 11 -32.001s17.333 -10 30 -10s22.667 3.33301 30 10s11 17.334 11 32.001c0 14 -3.66699 24.5 -11 31.5s-17.333 10.5 -30 10.5s-22.667 -3.5 -30 -10.5s-11 -17.5 -11 -31.5v0z" />
    <glyph glyph-name="uni215D" unicode="&#x215d;" horiz-adv-x="726" 
d="M425 91c0 22.667 5.50195 41.167 16.502 55.5s24.833 24.166 41.5 29.499v3c-14 5.33301 -25.5 14.5 -34.5 27.5s-13.5 28.833 -13.5 47.5c0 26.667 11.167 49.667 33.5 69s54.833 29 97.5 29s75.167 -9.66699 97.5 -29s33.5 -42.333 33.5 -69
c0 -18.667 -4.5 -34.5 -13.5 -47.5s-20.833 -22.167 -35.5 -27.5v-3c16.667 -5.33301 30.667 -15.166 42 -29.499s17 -32.833 17 -55.5c0 -28.667 -11.833 -52.334 -35.5 -71.001s-58.834 -28 -105.501 -28s-81.834 9.33301 -105.501 28s-35.5 42.334 -35.5 71.001v0z
M32.002 437l88.999 -0.000976562c0.666992 -10.667 4.33398 -19.667 11.001 -27s16.334 -11 29.001 -11c11.333 0 21.166 4.16699 29.499 12.5s12.5 21.833 12.5 40.5c0 19.333 -4.16699 32.833 -12.5 40.5s-17.833 11.5 -28.5 11.5s-19.167 -2.66699 -25.5 -8
s-10.833 -12.666 -13.5 -21.999l-84 10l13 204h225v-74h-148l-6 -71c6 6.66699 14 12 24 16s22.667 6 38 6c30 0 55.667 -8.5 77 -25.5s32 -44.5 32 -82.5c0 -40.667 -12.5 -71 -37.5 -91s-56.5 -30 -94.5 -30c-44 0 -76.333 9.66699 -97 29s-31.667 43.333 -33 72v0z
M172.001 -12.001l309 712h74l-309 -712h-74zM519.001 99.999c0 -16.667 4.5 -28.667 13.5 -36s20.167 -11 33.5 -11c12.667 0 23.5 3.66699 32.5 11s13.5 19.333 13.5 36c0 16 -4.5 27.833 -13.5 35.5s-19.833 11.5 -32.5 11.5c-13.333 0 -24.5 -3.83301 -33.5 -11.5
s-13.5 -19.5 -13.5 -35.5v0zM525.001 247.999c0 -14.667 3.66699 -25.334 11 -32.001s17.333 -10 30 -10s22.667 3.33301 30 10s11 17.334 11 32.001c0 14 -3.66699 24.5 -11 31.5s-17.333 10.5 -30 10.5s-22.667 -3.5 -30 -10.5s-11 -17.5 -11 -31.5v0z" />
    <glyph glyph-name="uni215E" unicode="&#x215e;" horiz-adv-x="726" 
d="M425 91c0 22.667 5.50195 41.167 16.502 55.5s24.833 24.166 41.5 29.499v3c-14 5.33301 -25.5 14.5 -34.5 27.5s-13.5 28.833 -13.5 47.5c0 26.667 11.167 49.667 33.5 69s54.833 29 97.5 29s75.167 -9.66699 97.5 -29s33.5 -42.333 33.5 -69
c0 -18.667 -4.5 -34.5 -13.5 -47.5s-20.833 -22.167 -35.5 -27.5v-3c16.667 -5.33301 30.667 -15.166 42 -29.499s17 -32.833 17 -55.5c0 -28.667 -11.833 -52.334 -35.5 -71.001s-58.834 -28 -105.501 -28s-81.834 9.33301 -105.501 28s-35.5 42.334 -35.5 71.001v0z
M149.002 -12l309 712h73l-309 -712h-73zM67.002 344l121 262h-161v82h268v-54l-129 -290h-99zM519.002 100c0 -16.667 4.5 -28.667 13.5 -36s20.167 -11 33.5 -11c12.667 0 23.5 3.66699 32.5 11s13.5 19.333 13.5 36c0 16 -4.5 27.833 -13.5 35.5s-19.833 11.5 -32.5 11.5
c-13.333 0 -24.5 -3.83301 -33.5 -11.5s-13.5 -19.5 -13.5 -35.5v0zM525.002 248c0 -14.667 3.66699 -25.334 11 -32.001s17.333 -10 30 -10s22.667 3.33301 30 10s11 17.334 11 32.001c0 14 -3.66699 24.5 -11 31.5s-17.333 10.5 -30 10.5s-22.667 -3.5 -30 -10.5
s-11 -17.5 -11 -31.5v0z" />
    <glyph glyph-name="uni2190" unicode="&#x2190;" horiz-adv-x="660" 
d="M352 58l-67 -63l-257 257l257 257l67 -63l-149 -148c32 2 63.167 3.16699 93.5 3.5s53.833 0.5 70.5 0.5h265v-100h-265c-16.667 0 -40.167 0.166992 -70.5 0.5s-61.5 1.5 -93.5 3.5z" />
    <glyph glyph-name="uni2191" unicode="&#x2191;" horiz-adv-x="660" 
d="M140 230l-63 67l257 257l257 -257l-63 -67l-147 149c1.33301 -32.667 2.33301 -64 3 -94s1 -53.333 1 -70v-265h-101v265c0 16.667 0.166992 40 0.5 70s1.5 61.333 3.5 94z" />
    <glyph glyph-name="uni2192" unicode="&#x2192;" horiz-adv-x="660" 
d="M375 -5l-67 63l148 148c-32 -2 -63 -3.16699 -93 -3.5s-53.333 -0.5 -70 -0.5h-265v100h265c16.667 0 40 -0.166992 70 -0.5s61 -1.5 93 -3.5l-148 148l67 63l257 -257z" />
    <glyph glyph-name="uni2193" unicode="&#x2193;" horiz-adv-x="660" 
d="M524 274l63 -67l-257 -257l-257 257l63 67l148 -149c-2 32 -3.16699 63.167 -3.5 93.5s-0.5 53.833 -0.5 70.5v265h100v-265c0 -16.667 -0.166992 -40.167 -0.5 -70.5s-1.5 -61.5 -3.5 -93.5z" />
    <glyph glyph-name="uni2196" unicode="&#x2196;" horiz-adv-x="660" 
d="M92 477l364 -0.000976562v-91h-205c24 -21.333 46.5 -42.666 67.5 -63.999l48.5 -49l188 -187l-70 -72l-187 188l-50.5 50c-21.667 22 -43.167 45.333 -64.5 70v-209h-91v364z" />
    <glyph glyph-name="uni2197" unicode="&#x2197;" horiz-adv-x="660" 
d="M191 386v91.001h364v-364h-91v209c-21.333 -24.667 -42.833 -48 -64.5 -70l-50.5 -50l-187 -188l-70 72l188 187l48 49c20.667 21.333 43 42.666 67 63.999h-204z" />
    <glyph glyph-name="uni2198" unicode="&#x2198;" horiz-adv-x="660" 
d="M191 14v91h204c-24 20.667 -46.333 41.667 -67 63l-48 50l-188 187l70 72l187 -188l50.5 -50c21.667 -22 43.167 -45.333 64.5 -70v209h91v-364h-364z" />
    <glyph glyph-name="uni2199" unicode="&#x2199;" horiz-adv-x="660" 
d="M251 105h205v-91h-364v364h91v-209c21.333 24.667 42.833 48 64.5 70l50.5 50l187 188l70 -72l-188 -187l-48.5 -50c-21 -21.333 -43.5 -42.333 -67.5 -63v0z" />
    <glyph glyph-name="partialdiff" unicode="&#x2202;" horiz-adv-x="482" 
d="M14 181c0 86 20.166 150.501 60.499 193.501s87.166 64.5 140.499 64.5c26.667 0 50.834 -5.5 72.501 -16.5s36.834 -26.833 45.501 -47.5c1.33301 16.667 2.33301 32.167 3 46.5s1 27.166 1 38.499c0 53.333 -7.5 90.833 -22.5 112.5s-34.167 32.5 -57.5 32.5
c-25.333 0 -44.333 -8.66699 -57 -26s-21.334 -38.333 -26.001 -63h-115c10 54 31.167 98.167 63.5 132.5s79.5 51.5 141.5 51.5c58 0 104.667 -19.333 140 -58s53 -104 53 -196c0 -137.333 -21.5 -248 -64.5 -332s-108.167 -126 -195.5 -126
c-51.333 0 -94.666 16.333 -129.999 49s-53 80.667 -53 144v0zM208.999 83.001c28.667 0 52.5 13.833 71.5 41.5s28.5 67.5 28.5 119.5c0 30.667 -6.33301 55 -19 73s-31 27 -55 27c-29.333 0 -53.333 -15.167 -72 -45.5s-28 -71.166 -28 -122.499
c0 -30.667 6.66699 -53.834 20 -69.501s31.333 -23.5 54 -23.5v0z" />
    <glyph glyph-name="Delta" unicode="&#x2206;" horiz-adv-x="570" 
d="M14 0l206 688h130l206 -688h-542zM285 556h-4l-121 -457h245z" />
    <glyph glyph-name="product" unicode="&#x220f;" horiz-adv-x="613" 
d="M65 0v688h483v-688h-122v589h-240v-589h-121z" />
    <glyph glyph-name="summation" unicode="&#x2211;" horiz-adv-x="480" 
d="M13 0v54l186 284l-178 290v60h428v-97h-271l150 -243l-160 -251h285v-97h-440z" />
    <glyph glyph-name="minus" unicode="&#x2212;" horiz-adv-x="491" 
d="M44 207v96h404v-96h-404z" />
    <glyph glyph-name="uni2215" unicode="&#x2215;" horiz-adv-x="84" 
d="M-150 -12l309 712h74l-309 -712h-74z" />
    <glyph glyph-name="uni2219" unicode="&#x2219;" horiz-adv-x="247" 
d="M57 186v133h133v-133h-133z" />
    <glyph glyph-name="radical" unicode="&#x221a;" horiz-adv-x="524" 
d="M26 285v95l151 51l83 -301h4l146 558h112l-191 -688h-138l-93 310z" />
    <glyph glyph-name="infinity" unicode="&#x221e;" horiz-adv-x="603" 
d="M171 88c-42 0 -75.834 15.333 -101.501 46s-38.5 70.334 -38.5 119.001c0 48 12.833 87.5 38.5 118.5s59.5 46.5 101.5 46.5c28.667 0 53.834 -8.66699 75.501 -26s40.167 -39 55.5 -65c15.333 26 33.666 47.667 54.999 65s46.333 26 75 26
c42 0 75.833 -15.5 101.5 -46.5s38.5 -70.5 38.5 -118.5c0 -48.667 -12.833 -88.334 -38.5 -119.001s-59.5 -46 -101.5 -46c-28.667 0 -54 8.5 -76 25.5s-40.667 38.5 -56 64.5c-15.333 -26 -33.666 -47.5 -54.999 -64.5s-46 -25.5 -74 -25.5v0zM173.999 173
c19.333 0 35.833 8.16699 49.5 24.5s24.834 34.833 33.501 55.5c-8.66699 20.667 -19.834 39 -33.501 55s-30.167 24 -49.5 24c-18.667 0 -33 -7.83301 -43 -23.5s-15 -34.167 -15 -55.5s5 -40 15 -56s24.333 -24 43 -24v0zM345.999 253
c8.66699 -21.333 19.834 -40 33.501 -56s30.167 -24 49.5 -24c18.667 0 33 8 43 24s15 34.667 15 56s-5 39.833 -15 55.5s-24.333 23.5 -43 23.5c-19.333 0 -35.833 -8 -49.5 -24s-24.834 -34.333 -33.501 -55v0z" />
    <glyph glyph-name="integral" unicode="&#x222b;" horiz-adv-x="311" 
d="M22 -89h32c32 0 51.333 10.167 58 30.5s8.66699 49.5 6 87.5l-37 573c-4.66699 74 4.16602 129.833 26.499 167.5s68.166 56.5 137.499 56.5h44v-95h-31c-32 0 -51.333 -10.167 -58 -30.5s-8.66699 -49.5 -6 -87.5l37 -573c4.66699 -73.333 -4.16602 -129 -26.499 -167
s-68.166 -57 -137.499 -57h-45v95z" />
    <glyph glyph-name="approxequal" unicode="&#x2248;" horiz-adv-x="491" 
d="M45 281c0 60 12 102.5 36 127.5s51 37.5 81 37.5c36.667 0 67.334 -10.667 92.001 -32s47.334 -32 68.001 -32c12.667 0 22.334 5.16699 29.001 15.5s10 27.166 10 50.499h86c0 -58.667 -12 -100.667 -36 -126s-51 -38 -81 -38c-36.667 0 -67.334 11 -92.001 33
s-47.334 33 -68.001 33c-12.667 0 -22.334 -5.66699 -29.001 -17s-10 -28.666 -10 -51.999h-86zM45 60c0 59.333 12 101.667 36 127s51 38 81 38c36.667 0 67.334 -10.833 92.001 -32.5s47.334 -32.5 68.001 -32.5c12.667 0 22.334 5.33301 29.001 16s10 28 10 52h86
c0 -60 -12 -102.5 -36 -127.5s-51 -37.5 -81 -37.5c-36.667 0 -67.334 10.833 -92.001 32.5s-47.334 32.5 -68.001 32.5c-12.667 0 -22.334 -5.33301 -29.001 -16s-10 -28 -10 -52h-86z" />
    <glyph glyph-name="notequal" unicode="&#x2260;" horiz-adv-x="491" 
d="M44 312v95h228l58 127l67 -31l-44 -96h94v-95h-137l-53 -116h190v-95h-233l-58 -127l-67 31l43 96h-88v95h132l53 116h-185z" />
    <glyph glyph-name="lessequal" unicode="&#x2264;" horiz-adv-x="491" 
d="M58 305v98l376 161v-106l-260 -103l260 -104v-107zM58 0v95h376v-95h-376z" />
    <glyph glyph-name="greaterequal" unicode="&#x2265;" horiz-adv-x="491" 
d="M434 403v-98l-376 -161v106l259 103l-259 104v107zM58 0v95h376v-95h-376z" />
    <glyph glyph-name="uni25A0" unicode="&#x25a0;" horiz-adv-x="688" 
d="M0 0v688h688v-688h-688z" />
    <glyph glyph-name="uni25A1" unicode="&#x25a1;" horiz-adv-x="688" 
d="M0 0v688h688v-688h-688zM111 104h466v480h-466v-480z" />
    <glyph glyph-name="uni25B6" unicode="&#x25b6;" horiz-adv-x="502" 
d="M44 -12v512l446 -256z" />
    <glyph glyph-name="uni25B7" unicode="&#x25b7;" horiz-adv-x="502" 
d="M44 -12v512l446 -256zM136 141l184 103l-184 103v-206z" />
    <glyph glyph-name="uni25C0" unicode="&#x25c0;" horiz-adv-x="502" 
d="M12 244l446 256v-512z" />
    <glyph glyph-name="uni25C1" unicode="&#x25c1;" horiz-adv-x="502" 
d="M12 244l446 256v-512zM182 244l184 -103v206z" />
    <glyph glyph-name="lozenge" unicode="&#x25ca;" horiz-adv-x="567" 
d="M228 0l-205 344l203 344h111l208 -344l-205 -344h-112zM284 585h-5l-139 -239l141 -243h4l142 237z" />
    <glyph glyph-name="uni25CB" unicode="&#x25cb;" horiz-adv-x="552" 
d="M20 244c0 71.333 24.5 131.833 73.5 181.5s109.833 74.5 182.5 74.5s133.5 -24.333 182.5 -73s73.5 -109.667 73.5 -183c0 -71.333 -24.5 -131.833 -73.5 -181.5s-109.833 -74.5 -182.5 -74.5s-133.5 24.333 -182.5 73s-73.5 109.667 -73.5 183v0zM130 244
c0 -45.333 14 -83 42 -113s62.667 -45 104 -45c43.333 0 78.5 15 105.5 45s40.5 67.667 40.5 113s-14 83 -42 113s-62.667 45 -104 45c-43.333 0 -78.5 -15 -105.5 -45s-40.5 -67.667 -40.5 -113v0z" />
    <glyph glyph-name="uni25CF" unicode="&#x25cf;" horiz-adv-x="552" 
d="M20 244c0 71.333 24.5 131.833 73.5 181.5s109.833 74.5 182.5 74.5s133.5 -24.333 182.5 -73s73.5 -109.667 73.5 -183c0 -71.333 -24.5 -131.833 -73.5 -181.5s-109.833 -74.5 -182.5 -74.5s-133.5 24.333 -182.5 73s-73.5 109.667 -73.5 183v0z" />
    <glyph glyph-name="uni25FB" unicode="&#x25fb;" horiz-adv-x="488" 
d="M0 0v488h488v-488h-488zM104 98h280v292h-280v-292z" />
    <glyph glyph-name="uni25FC" unicode="&#x25fc;" horiz-adv-x="488" 
d="M0 0v488h488v-488h-488z" />
    <glyph glyph-name="uni2605" unicode="&#x2605;" horiz-adv-x="546" 
d="M106 13l68 183l-162 108l5 16l195 -9l53 189h16l52 -189l196 9l5 -16l-163 -108l69 -183l-14 -10l-153 121l-153 -121z" />
    <glyph glyph-name="dotlessj" unicode="&#xf6be;" horiz-adv-x="234" 
d="M56 -54l-0.000976562 542h121v-550c0 -48.667 -10.333 -87.167 -31 -115.5s-61.667 -42.5 -123 -42.5h-38v95h23c18.667 0 31.334 5.66699 38.001 17s10 29.333 10 54v0z" />
    <glyph glyph-name="commaaccent" unicode="&#xf6c3;" horiz-adv-x="490" 
d="M188 -61h114v-88l-49 -108h-51l35 95h-49v101z" />
    <glyph glyph-name="at.sc" horiz-adv-x="713" 
d="M189 94c0 32 9.83301 56.9951 29.5 74.9951s48.5 30.333 86.5 37l57 10c16.667 2.66699 27.5 5.83398 32.5 9.50098s7.5 9.83398 7.5 18.501v9c0 16 -4 28 -12 36s-19.333 12 -34 12s-26.667 -4.16699 -36 -12.5s-14.666 -22.5 -15.999 -42.5h-100
c2.66699 48.667 19.667 82.834 51 102.501s65.333 29.5 102 29.5c50 0 88.167 -11.667 114.5 -35s39.5 -58 39.5 -104v-123c0 -23.333 3.33301 -39.666 10 -48.999s16 -14 28 -14c15.333 0 29.333 11.5 42 34.5s19 61.833 19 116.5c0 83.333 -23.333 148.833 -70 196.5
s-106.667 71.5 -180 71.5c-80.667 0 -143.834 -28.5 -189.501 -85.5s-68.5 -127.167 -68.5 -210.5c0 -84 22 -153.667 66 -209s104.333 -83 181 -83c30 0 55.667 4.66699 77 14s40.333 23 57 41h81c-24 -36.667 -54.833 -64.667 -92.5 -84s-78.834 -29 -123.501 -29
c-93.333 0 -168.666 33.5 -225.999 100.5s-86 150.167 -86 249.5c0 100 29.333 184.333 88 253s137.334 103 236.001 103c91.333 0 167 -30 227 -90s90 -139.333 90 -238c0 -75.333 -15.667 -129.666 -47 -162.999s-67.333 -50 -108 -50
c-24.667 0 -46.167 4.16699 -64.5 12.5s-31.833 22.833 -40.5 43.5c-12 -18.667 -26.833 -32.667 -44.5 -42s-39.834 -14 -66.501 -14c-36 0 -64.5 9.5 -85.5 28.5s-31.5 43.833 -31.5 74.5v0zM342 62.9951c14 0 27.502 4.83496 40.502 14.502s19.5 27.834 19.5 54.501v35
c-2.66699 -2.66699 -6.33398 -4.83398 -11.001 -6.50098s-9.33398 -2.83398 -14.001 -3.50098l-36 -6c-12.667 -2 -23 -7.33301 -31 -16s-12 -18.334 -12 -29.001c0 -14.667 4.33301 -25.5 13 -32.5s19 -10.5 31 -10.5v0z" />
    <glyph glyph-name="a.sc" horiz-adv-x="490" 
d="M5 0l167 520h147l166 -520h-127l-30 106h-171l-30 -106h-122zM241 406l-58 -206h119l-57 206h-4z" />
    <glyph glyph-name="b.sc" horiz-adv-x="515" 
d="M64 0v520.002h225c56.667 0 99.167 -12 127.5 -36s42.5 -57 42.5 -99c0 -23.333 -6.33301 -45.333 -19 -66s-33.667 -34.667 -63 -42v-4c32 -4.66699 57.333 -18.334 76 -41.001s28 -49.334 28 -80.001c0 -43.333 -15.333 -79.5 -46 -108.5s-73.667 -43.5 -129 -43.5
h-242zM282 224.002h-98v-135h98c26 0 45.333 6.66699 58 20s19 30.333 19 51c0 18.667 -6.66699 34 -20 46s-32.333 18 -57 18v0zM270 431.002l-86 -0.000976562v-121h86c23.333 0 40.833 5.83301 52.5 17.5s17.5 26.834 17.5 45.501c0 16.667 -5.5 30.5 -16.5 41.5
s-28.833 16.5 -53.5 16.5v0z" />
    <glyph glyph-name="c.sc" horiz-adv-x="504" 
d="M33 260c0 84 20.6719 150.502 62.0049 199.502s98.666 73.5 171.999 73.5c58.667 0 106.167 -16.333 142.5 -49s58.166 -79 65.499 -139h-117c-4.66699 28 -14.5 49.5 -29.5 64.5s-35.833 22.5 -62.5 22.5c-34 0 -60.667 -14.667 -80 -44s-29 -72 -29 -128
s9.66699 -98.667 29 -128s46 -44 80 -44c27.333 0 48.166 7.66699 62.499 23s24.166 36.666 29.499 63.999h117c-7.33301 -59.333 -29.333 -105.5 -66 -138.5s-84.334 -49.5 -143.001 -49.5c-74 0 -131.333 24.667 -172 74s-61 115.666 -61 198.999v0z" />
    <glyph glyph-name="d.sc" horiz-adv-x="530" 
d="M64 0v520h180c83.333 0 146.333 -24.5 189 -73.5s64 -111.167 64 -186.5c0 -73.333 -21.167 -135 -63.5 -185s-105.5 -75 -189.5 -75h-180zM238 423h-53v-326h53c50 0 85.167 16.5 105.5 49.5s30.5 70.833 30.5 113.5c0 44 -10.167 82.167 -30.5 114.5
s-55.5 48.5 -105.5 48.5v0z" />
    <glyph glyph-name="e.sc" horiz-adv-x="474" 
d="M64 0v520h362v-96h-241v-116h196v-88h-196v-124h250v-96h-371z" />
    <glyph glyph-name="f.sc" horiz-adv-x="443" 
d="M64 0v520h349v-96h-228v-139h186v-91h-186v-194h-121z" />
    <glyph glyph-name="g.sc" horiz-adv-x="540" 
d="M279 201l0.00292969 84.999h208v-286h-77l-9 52h-2c-14 -19.333 -32 -34.833 -54 -46.5s-49.333 -17.5 -82 -17.5c-70.667 0 -126.334 25 -167.001 75s-61 115.667 -61 197c0 83.333 21.667 149.5 65 198.5s101.666 73.5 174.999 73.5c60 0 108.167 -16 144.5 -48
s58.166 -74.333 65.499 -127h-117c-4.66699 22 -14.667 39.833 -30 53.5s-36.333 20.5 -63 20.5c-36 0 -64.5 -14.667 -85.5 -44s-31.5 -71.666 -31.5 -126.999c0 -56 10.5 -98.833 31.5 -128.5s50.167 -44.5 87.5 -44.5c29.333 0 53.5 9.66699 72.5 29
s28.833 44.333 29.5 75v10h-100z" />
    <glyph glyph-name="h.sc" horiz-adv-x="551" 
d="M64 0v520h121v-206h181v206h121v-520h-121v210h-181v-210h-121z" />
    <glyph glyph-name="i.sc" horiz-adv-x="249" 
d="M64 0v520h121v-520h-121z" />
    <glyph glyph-name="j.sc" horiz-adv-x="418" 
d="M30 150v28h115v-36c0 -20 4.66699 -34.333 14 -43s21.333 -13 36 -13s26.5 4.33301 35.5 13s13.5 23.334 13.5 44.001v377h121v-360c0 -60.667 -15 -104.334 -45 -131.001s-71.333 -40 -124 -40c-50.667 0 -91 12.833 -121 38.5s-45 66.5 -45 122.5v0z" />
    <glyph glyph-name="k.sc" horiz-adv-x="508" 
d="M63 0v520h121v-222l175 222h135l-187 -225l192 -295h-135l-131 205l-49 -59v-146h-121z" />
    <glyph glyph-name="l.sc" horiz-adv-x="424" 
d="M64 0v520h121v-417h215v-103h-336z" />
    <glyph glyph-name="m.sc" horiz-adv-x="695" 
d="M64 0v520h161l121 -356h3l126 356h156v-520h-119l8 346h-4l-127 -346h-86l-124 346h-5l8 -346h-118z" />
    <glyph glyph-name="n.sc" horiz-adv-x="551" 
d="M64 0v520h102l200 -304h3l-3 304h121v-520h-101l-201 304h-5l5 -304h-121z" />
    <glyph glyph-name="o.sc" horiz-adv-x="540" 
d="M32 260c0 83.333 21.3311 149.5 63.998 198.5s100.667 73.5 174 73.5c72.667 0 130.334 -24.5 173.001 -73.5s64 -115.167 64 -198.5s-21.167 -149.5 -63.5 -198.5s-100.166 -73.5 -173.499 -73.5c-72.667 0 -130.5 24.5 -173.5 73.5s-64.5 115.167 -64.5 198.5v0z
M154.998 260c0 -55.333 10.667 -97.666 32 -126.999s49 -44 83 -44s61.5 14.667 82.5 44s31.5 71.666 31.5 126.999s-10.5 97.666 -31.5 126.999s-48.5 44 -82.5 44s-61.667 -14.667 -83 -44s-32 -71.666 -32 -126.999v0z" />
    <glyph glyph-name="p.sc" horiz-adv-x="492" 
d="M64 0l0.000976562 520.001h202c63.333 0 112.333 -16.5 147 -49.5s52 -76.167 52 -129.5c0 -54.667 -17.333 -98.334 -52 -131.001s-83.334 -49 -146.001 -49h-82v-161h-121zM255.001 426.001h-70v-171h70c28.667 0 50.334 7.66699 65.001 23s22 36.333 22 63
s-7.33301 47.5 -22 62.5s-36.334 22.5 -65.001 22.5v0z" />
    <glyph glyph-name="q.sc" horiz-adv-x="540" 
d="M32 260c0 83.333 21.3311 149.5 63.998 198.5s100.667 73.5 174 73.5c72.667 0 130.334 -24.5 173.001 -73.5s64 -115.167 64 -198.5c0 -41.333 -5.5 -78.833 -16.5 -112.5s-26.5 -62.167 -46.5 -85.5l84 -103l-72 -65l-90 112c-14 -6 -29.167 -10.5 -45.5 -13.5
s-33.166 -4.5 -50.499 -4.5c-72.667 0 -130.5 24.5 -173.5 73.5s-64.5 115.167 -64.5 198.5v0zM154.998 260c0 -55.333 10.667 -97.666 32 -126.999s49 -44 83 -44s61.5 14.667 82.5 44s31.5 71.666 31.5 126.999s-10.5 97.666 -31.5 126.999s-48.5 44 -82.5 44
s-61.667 -14.667 -83 -44s-32 -71.666 -32 -126.999v0z" />
    <glyph glyph-name="r.sc" horiz-adv-x="513" 
d="M65 0v520h207c62 0 110 -14.333 144 -43s51 -69.667 51 -123c0 -36 -9 -67.5 -27 -94.5s-43.333 -46.833 -76 -59.5l124 -200h-130l-110 183h-62v-183h-121zM261 426h-75v-150h75c28.667 0 49.834 7 63.501 21s20.5 32.667 20.5 56c0 22.667 -6.83301 40.5 -20.5 53.5
s-34.834 19.5 -63.501 19.5v0z" />
    </font>
</defs>
</svg>
