<?xml version="1.0" standalone="no"?>
<!DOCTYPE svg PUBLIC "-//W3C//DTD SVG 1.1//EN" "http://www.w3.org/Graphics/SVG/1.1/DTD/svg11.dtd" >
<svg xmlns="http://www.w3.org/2000/svg">
<metadata></metadata>
<defs>
<font id="canarolight" horiz-adv-x="1734" >
<font-face units-per-em="2048" ascent="1638" descent="-410" />
<missing-glyph horiz-adv-x="530" />
<glyph unicode="&#xfb01;" horiz-adv-x="1226" d="M12 819v127h234v164q0 211 112.5 321.5t315.5 110.5q99 0 177.5 -23.5t174.5 -78.5l-63 -101q-135 76 -283 76q-293 0 -293 -307v-162h686v-946h-139v819h-547v-819h-141v819h-234z" />
<glyph unicode="&#xfb02;" horiz-adv-x="1275" d="M12 819v127h234v176q0 202 108 311t314 109q138 0 282 -67l131 -9v-1466h-141v1352q-68 34 -126 48.5t-142 14.5q-140 0 -212.5 -76.5t-72.5 -220.5v-172h375v-127h-375v-819h-141v819h-234z" />
<glyph horiz-adv-x="2048" />
<glyph horiz-adv-x="2048" />
<glyph unicode="&#xd;" horiz-adv-x="2048" />
<glyph unicode=" "  horiz-adv-x="530" />
<glyph unicode="&#x09;" horiz-adv-x="530" />
<glyph unicode="&#xa0;" horiz-adv-x="530" />
<glyph unicode="!" horiz-adv-x="487" d="M141 74q0 42 30.5 71t72.5 29q43 0 73.5 -29t30.5 -71t-30.5 -71.5t-73.5 -29.5q-42 0 -72.5 29.5t-30.5 71.5zM166 1393h153l-6 -1033h-141z" />
<glyph unicode="&#x22;" horiz-adv-x="722" d="M158 1081l4 480h155l-34 -480h-125zM449 1081l2 480h155l-33 -480h-124z" />
<glyph unicode="#" horiz-adv-x="1507" d="M84 408v122h258l100 320h-245v123h284l131 422h146l-133 -422h419l132 422h145l-133 -422h233v-123h-270l-100 -320h258v-122h-297l-127 -408h-146l129 408h-419l-127 -408h-146l129 408h-221zM487 530h418l101 320h-418z" />
<glyph unicode="$" horiz-adv-x="1396" d="M141 86l39 135q283 -117 547 -117q165 0 265 70t100 195q0 58 -27.5 103t-57 71t-101.5 51t-107.5 33.5t-129.5 27.5l-42 9q-235 48 -330.5 127t-95.5 233q0 170 119 274.5t319 116.5v256h129v-256q235 -12 428 -82l-39 -125q-262 78 -469 78q-153 0 -243.5 -67.5 t-90.5 -188.5q0 -101 79.5 -151.5t275.5 -90.5q75 -16 127.5 -29t112 -32.5t99.5 -40.5t79 -51t61.5 -66t36.5 -83.5t14 -104.5q0 -185 -128.5 -292t-342.5 -118v-239h-129v239q-261 19 -498 115z" />
<glyph unicode="%" horiz-adv-x="2213" d="M186 1036q0 171 108 279t271 108q164 0 271.5 -107.5t107.5 -279.5q0 -173 -107 -280t-272 -107q-164 0 -271.5 107.5t-107.5 279.5zM297 1036q0 -124 77 -202t191 -78q116 0 192.5 78t76.5 202t-76.5 202.5t-192.5 78.5q-114 0 -191 -78.5t-77 -202.5zM588 0l928 1393 h92l-928 -1393h-92zM1268 358q0 171 108 278t271 107q165 0 271.5 -106.5t106.5 -278.5q0 -175 -106.5 -282t-271.5 -107q-164 0 -271.5 107.5t-107.5 281.5zM1378 358q0 -125 77 -203.5t192 -78.5q116 0 192 78t76 204q0 124 -76 201.5t-192 77.5q-115 0 -192 -77.5 t-77 -201.5z" />
<glyph unicode="&#x26;" horiz-adv-x="1308" d="M86 389q0 120 71.5 205t204.5 123q-107 37 -163 115.5t-56 187.5q0 174 126.5 279.5t340.5 105.5q144 0 277 -37l-29 -121q-123 33 -252 33q-150 0 -237.5 -70t-87.5 -186q0 -119 79.5 -184.5t239.5 -65.5h643v-121h-151v-256q0 -193 -136 -309.5t-366 -116.5 q-231 0 -367.5 114t-136.5 304zM223 393q0 -135 99 -216t268 -81t267.5 82.5t98.5 218.5v256h-356q-179 0 -278 -71t-99 -189z" />
<glyph unicode="'" horiz-adv-x="434" d="M158 1081l4 480h155l-34 -480h-125z" />
<glyph unicode="(" horiz-adv-x="665" d="M115 541q0 573 354 1007l104 -65q-103 -141 -170 -273t-110 -304.5t-43 -364.5q0 -282 83 -504.5t240 -437.5l-104 -68q-354 434 -354 1010z" />
<glyph unicode=")" horiz-adv-x="663" d="M90 -401q157 215 240.5 437.5t83.5 504.5q0 145 -23 276.5t-68.5 247.5t-101 214.5t-131.5 203.5l105 65q354 -434 354 -1007q0 -576 -354 -1010z" />
<glyph unicode="*" horiz-adv-x="808" d="M100 958l224 134l-224 133l41 75l219 -131v232h89v-232l219 131l43 -75l-224 -133l224 -134l-43 -71l-219 131v-238h-89v236l-219 -129z" />
<glyph unicode="+" horiz-adv-x="1419" d="M240 596v131h403v406h137v-406h400v-131h-400v-403h-137v403h-403z" />
<glyph unicode="," horiz-adv-x="561" d="M133 -299l109 289q-72 25 -72 92q0 45 32.5 75.5t78.5 30.5t78 -30.5t32 -75.5q0 -31 -15.5 -70.5t-89.5 -204.5q-30 -66 -48 -106h-105z" />
<glyph unicode="-" horiz-adv-x="1091" d="M240 485h612v142h-612v-142z" />
<glyph unicode="." horiz-adv-x="561" d="M170 82q0 45 32.5 75.5t78.5 30.5t78 -30.5t32 -75.5q0 -46 -32 -77.5t-78 -31.5t-78.5 31.5t-32.5 77.5z" />
<glyph unicode="/" horiz-adv-x="987" d="M35 -557l758 2130h129l-760 -2130h-127z" />
<glyph unicode="0" horiz-adv-x="1542" d="M135 696q0 327 175 527t462 200q189 0 333 -90.5t223 -255.5t79 -381t-79 -381t-223 -255.5t-333 -90.5q-287 0 -462 200t-175 527zM285 696q0 -266 134 -429t353 -163q218 0 351.5 163t133.5 429t-133.5 429t-351.5 163q-219 0 -353 -163t-134 -429z" />
<glyph unicode="1" horiz-adv-x="839" d="M41 1237l510 156h45v-1393h-143v1233l-381 -113z" />
<glyph unicode="2" horiz-adv-x="1187" d="M115 1305q99 55 221.5 86.5t236.5 31.5q223 0 350.5 -117t127.5 -300q0 -77 -27 -150t-83 -145.5t-111 -129.5t-142 -135l-352 -315h741v-131h-956v94l493 463q63 59 91 85.5t74.5 78t67 86.5t37.5 83.5t17 96.5q0 141 -95.5 222t-252.5 81q-185 0 -397 -108z" />
<glyph unicode="3" horiz-adv-x="1208" d="M88 86l51 113q231 -105 441 -105q155 0 263.5 85.5t108.5 213.5t-99.5 195t-281.5 67h-194v70l475 537h-702v131h901v-90l-467 -525h43q223 -8 347 -107.5t124 -273.5q0 -190 -144.5 -309t-378.5 -119q-256 0 -487 117z" />
<glyph unicode="4" horiz-adv-x="1376" d="M94 266v99l842 1028h143v-1002h191v-125h-191v-266h-143v266h-842zM283 391h653v809z" />
<glyph unicode="5" horiz-adv-x="1253" d="M115 86l49 123q235 -107 457 -107q156 0 256 83.5t100 226.5q0 126 -99 201t-274 83l-411 21l63 676h817v-136h-692l-41 -415l283 -15q237 -12 369 -119.5t132 -293.5q0 -202 -139 -323.5t-358 -121.5q-278 0 -512 117z" />
<glyph unicode="6" horiz-adv-x="1271" d="M111 465q0 155 114 315l434 613h175l-326 -455q68 10 129 10q231 0 377.5 -132t146.5 -351q0 -221 -147 -358.5t-377 -137.5q-232 0 -379 137.5t-147 358.5zM252 465q0 -166 108 -268.5t277 -102.5q167 0 275 102.5t108 268.5q0 163 -108 263.5t-275 100.5 q-173 0 -279 -100.5t-106 -263.5z" />
<glyph unicode="7" horiz-adv-x="1128" d="M70 1257v136h991v-88l-615 -1305h-159l602 1257h-819z" />
<glyph unicode="8" horiz-adv-x="1298" d="M106 379q0 128 82.5 219.5t233.5 132.5q-117 40 -179.5 124t-62.5 202q0 165 129.5 265.5t339.5 100.5q211 0 340 -100.5t129 -265.5q0 -119 -63 -202.5t-181 -123.5q153 -41 235.5 -132t82.5 -220q0 -182 -149.5 -296t-393.5 -114t-393.5 114t-149.5 296zM258 387 q0 -128 108 -210.5t283 -82.5q173 0 282 83t109 210q0 124 -108 200.5t-283 76.5q-177 0 -284 -76t-107 -201zM328 1051q0 -120 88 -192.5t233 -72.5t233.5 72.5t88.5 192.5q0 113 -89 183.5t-233 70.5t-232.5 -70.5t-88.5 -183.5z" />
<glyph unicode="9" horiz-adv-x="1247" d="M94 928q0 221 147 358t377 137q232 0 379.5 -137t147.5 -358q0 -152 -105 -301l-2 -2l-434 -625h-168l320 455q-79 -11 -138 -11q-231 0 -377.5 132.5t-146.5 351.5zM236 928q0 -163 107.5 -264t274.5 -101q173 0 279.5 101t106.5 264q0 165 -109 267.5t-277 102.5 q-167 0 -274.5 -102t-107.5 -268z" />
<glyph unicode=":" horiz-adv-x="561" d="M170 82q0 45 32.5 75.5t78.5 30.5t78 -30.5t32 -75.5q0 -46 -32 -77.5t-78 -31.5t-78.5 31.5t-32.5 77.5zM170 864q0 44 32.5 75.5t78.5 31.5t78 -31.5t32 -75.5q0 -46 -32 -77t-78 -31t-78.5 31.5t-32.5 76.5z" />
<glyph unicode=";" horiz-adv-x="569" d="M133 -299l109 289q-70 24 -70 92q0 45 32.5 75.5t78.5 30.5t78 -30.5t32 -75.5q0 -8 -0.5 -14.5t-1.5 -13t-4.5 -16.5t-6.5 -19.5t-11 -27t-14.5 -33.5t-20 -44.5t-25.5 -55t-32 -71t-39 -86.5h-105zM178 864q0 44 32.5 75.5t78.5 31.5t78 -31.5t32 -75.5q0 -46 -32 -77 t-78 -31t-78.5 31.5t-32.5 76.5z" />
<glyph unicode="&#x3c;" horiz-adv-x="1132" d="M115 547v143l864 412v-141l-711 -343l711 -342v-141z" />
<glyph unicode="=" horiz-adv-x="1466" d="M240 403v132h987v-132h-987zM240 801v131h987v-131h-987z" />
<glyph unicode="&#x3e;" horiz-adv-x="1132" d="M156 135v141l708 342l-708 343v141l864 -412v-143z" />
<glyph unicode="?" horiz-adv-x="1011" d="M106 1378q169 45 349 45q221 0 355 -115.5t134 -306.5q0 -194 -126.5 -315t-328.5 -121h-49l9 -205h-132l-26 324h174q155 0 248.5 88.5t93.5 233.5q0 132 -95.5 212t-252.5 80q-156 0 -330 -36zM285 74q0 42 30 71t72 29q43 0 74 -29t31 -71t-31 -71.5t-74 -29.5 q-42 0 -72 29.5t-30 71.5z" />
<glyph unicode="@" horiz-adv-x="2082" d="M123 518q0 189 70 355.5t191.5 284.5t291.5 186.5t364 68.5q205 0 376.5 -64.5t291 -181t186 -283.5t66.5 -366q0 -250 -98.5 -371.5t-262.5 -121.5q-185 0 -243 133q-105 -73 -193 -105.5t-190 -32.5q-207 0 -335 137t-128 361q2 206 129 335.5t342 129.5 q145 0 245.5 -12t227.5 -37v-580q0 -117 37 -173t127 -56q258 0 258 393q0 242 -104 427t-294 286.5t-438 101.5q-232 0 -423 -106.5t-300.5 -293.5t-109.5 -415q0 -171 61.5 -322t169 -259.5t259 -171.5t325.5 -64q202 0 508 70l14 -74q-287 -74 -522 -74q-194 0 -362 68 t-285.5 187t-184.5 284.5t-67 355.5zM645 514q0 -170 93.5 -274.5t250.5 -104.5q83 0 163 28t181 95q-12 52 -12 117v465q-145 28 -324 28q-167 0 -259.5 -99.5t-92.5 -254.5z" />
<glyph unicode="A" horiz-adv-x="1556" d="M76 0l635 1403h137l633 -1403h-162l-152 340h-776l-151 -340h-164zM446 471h664l-332 746z" />
<glyph unicode="B" horiz-adv-x="1388" d="M205 0v1393q278 12 526 12q218 0 340.5 -93t122.5 -268q0 -123 -69.5 -207.5t-200.5 -119.5q164 -29 254 -117t90 -219q0 -192 -139.5 -294.5t-385.5 -102.5q-117 0 -538 16zM350 123q338 -10 379 -10q187 0 290 70.5t103 207.5q0 119 -100.5 185.5t-269.5 66.5h-402 v-520zM350 768h361q161 0 252.5 68.5t91.5 189.5q0 126 -87.5 188t-250.5 62q-137 0 -367 -8v-500z" />
<glyph unicode="C" horiz-adv-x="1538" d="M135 696q0 329 208 528t558 199q245 0 475 -69l-28 -135q-242 65 -430 65q-296 0 -463.5 -161t-167.5 -425q0 -268 166.5 -431t443.5 -163q199 0 479 76l29 -127q-275 -84 -514 -84q-343 0 -549.5 199.5t-206.5 527.5z" />
<glyph unicode="D" horiz-adv-x="1538" d="M205 0v1393q323 16 469 16q215 0 380.5 -84.5t258 -244.5t92.5 -373q0 -164 -53.5 -299.5t-148 -228t-226 -143t-285.5 -50.5q-205 0 -487 14zM350 127q167 -6 342 -6q122 0 225 40.5t177 115t115.5 185t41.5 245.5q0 262 -158 414.5t-419 152.5q-116 0 -324 -8v-1139z " />
<glyph unicode="E" horiz-adv-x="1312" d="M205 0v1393h969v-133h-824v-496h737v-135h-737v-496h824v-133h-969z" />
<glyph unicode="F" horiz-adv-x="1232" d="M205 0v1393h944v-133h-799v-545h715v-135h-715v-580h-145z" />
<glyph unicode="G" horiz-adv-x="1658" d="M135 698q0 326 209 525.5t551 199.5q249 0 481 -69l-28 -133q-258 63 -445 63q-277 0 -446.5 -161t-169.5 -425t162.5 -426.5t429.5 -162.5q246 0 491 90v426h-557v135h696v-649q-325 -142 -630 -142q-335 0 -539.5 200.5t-204.5 528.5z" />
<glyph unicode="H" horiz-adv-x="1544" d="M205 0v1393h145v-637h844v637h145v-1393h-145v623h-844v-623h-145z" />
<glyph unicode="I" horiz-adv-x="555" d="M205 0v1393h145v-1393h-145z" />
<glyph unicode="J" horiz-adv-x="1171" d="M53 57l31 129q244 -77 424 -77q155 0 243.5 104.5t88.5 294.5v885h147v-883q0 -255 -127.5 -398t-351.5 -143q-207 0 -455 88z" />
<glyph unicode="K" horiz-adv-x="1404" d="M205 0v1393h145v-676h148l612 676h182l-620 -684l674 -709h-185l-563 578h-248v-578h-145z" />
<glyph unicode="L" horiz-adv-x="1200" d="M205 0v1393h145v-1262h776v-131h-921z" />
<glyph unicode="M" horiz-adv-x="1929" d="M184 0l82 1393h140l559 -1219l559 1219h139l82 -1393h-143l-66 1075l-506 -1075h-131l-508 1075l-63 -1075h-144z" />
<glyph unicode="N" horiz-adv-x="1599" d="M205 0v1393h141l903 -1160v1160h146v-1393h-148l-897 1155v-1155h-145z" />
<glyph unicode="O" d="M135 696q0 326 202.5 526.5t528.5 200.5q215 0 381.5 -90t259 -256t92.5 -381t-92.5 -381t-259 -256t-381.5 -90q-326 0 -528.5 200.5t-202.5 526.5zM287 696q0 -265 161 -428.5t418 -163.5q259 0 420.5 163.5t161.5 428.5t-161.5 427.5t-420.5 162.5q-257 0 -418 -162.5 t-161 -427.5z" />
<glyph unicode="P" horiz-adv-x="1310" d="M205 0v1393q250 16 471 16q248 0 397.5 -124.5t149.5 -344.5q0 -210 -151 -338.5t-396 -128.5h-326v-473h-145zM350 604h340q173 0 281 92t108 242q0 160 -106.5 248t-282.5 88q-173 0 -340 -8v-662z" />
<glyph unicode="Q" d="M135 696q0 215 92.5 381t259 256t381.5 90q326 0 528.5 -200.5t202.5 -526.5q0 -239 -112 -414.5t-309 -254.5l315 -365h-184l-279 322q-76 -15 -162 -15q-215 0 -381.5 90t-259 256t-92.5 381zM287 696q0 -265 161 -428.5t418 -163.5q259 0 420.5 163.5t161.5 428.5 t-161.5 427.5t-420.5 162.5q-257 0 -418 -162.5t-161 -427.5z" />
<glyph unicode="R" horiz-adv-x="1347" d="M205 0v1393q320 14 459 14q247 0 392.5 -115t145.5 -329q0 -156 -84.5 -265t-234.5 -157l401 -541h-176l-371 506q-70 -4 -108 -4h-279v-502h-145zM350 631h326q171 0 276 89t105 243q0 155 -104 233t-285 78q-142 0 -318 -6v-637z" />
<glyph unicode="S" horiz-adv-x="1396" d="M141 86l39 135q286 -117 547 -117q165 0 265 70t100 195q0 58 -27.5 103t-57 71t-101.5 51t-107.5 33.5t-129.5 27.5l-42 9q-235 48 -330.5 127t-95.5 233q0 181 134.5 287t356.5 106q128 0 266 -23.5t238 -60.5l-37 -125q-262 78 -471 78q-153 0 -243.5 -67.5 t-90.5 -188.5q0 -101 79.5 -151.5t275.5 -90.5q65 -14 112.5 -25.5t101 -27.5t91 -33t76.5 -40t64 -50.5t45.5 -61.5t30 -76.5t9.5 -92.5q0 -195 -142.5 -303.5t-375.5 -108.5q-136 0 -290 31t-290 86z" />
<glyph unicode="T" horiz-adv-x="1370" d="M61 1260v133h1248v-133h-551v-1260h-146v1260h-551z" />
<glyph unicode="U" horiz-adv-x="1562" d="M184 559v834h146v-834q0 -208 123 -331.5t327 -123.5q205 0 329 123.5t124 331.5v834h145v-834q0 -269 -164 -429.5t-434 -160.5q-268 0 -432 160.5t-164 429.5z" />
<glyph unicode="V" horiz-adv-x="1558" d="M80 1393h168l532 -1200l533 1200h166l-629 -1393h-141z" />
<glyph unicode="W" horiz-adv-x="2164" d="M76 1393h155l394 -1170l395 1170h125l395 -1168l393 1168h156l-477 -1393h-137l-392 1151l-393 -1151h-137z" />
<glyph unicode="X" horiz-adv-x="1435" d="M59 0l559 692l-540 701h182l457 -584l457 584h182l-539 -701l557 -692h-174l-483 580l-484 -580h-174z" />
<glyph unicode="Y" horiz-adv-x="1421" d="M53 1393h166l492 -746l491 746h166l-584 -895v-498h-147v498z" />
<glyph unicode="Z" horiz-adv-x="1357" d="M133 0v94l879 1166h-854v133h1054v-95l-870 -1165h875v-133h-1084z" />
<glyph unicode="[" horiz-adv-x="669" d="M152 -457v1991h421v-135h-282v-1721h282v-135h-421z" />
<glyph unicode="\" horiz-adv-x="987" d="M94 1573h146l696 -2130h-145z" />
<glyph unicode="]" horiz-adv-x="669" d="M96 -322h283v1721h-283v135h422v-1991h-422v135z" />
<glyph unicode="^" horiz-adv-x="837" d="M49 913l311 480h117l314 -480h-142l-231 353l-228 -353h-141z" />
<glyph unicode="_" horiz-adv-x="1333" d="M84 -264h1163v-123h-1163v123z" />
<glyph unicode="`" horiz-adv-x="1228" d="M399 1489h189l174 -320h-139z" />
<glyph unicode="a" horiz-adv-x="1249" d="M111 477q2 226 131 363t350 137q129 0 233 -11.5t250 -39.5v-926h-139v84q-90 -60 -173 -87.5t-181 -27.5q-212 0 -341.5 139.5t-129.5 368.5zM250 473q0 -171 95.5 -277t254.5 -106q85 0 163.5 26.5t172.5 88.5v624q-178 27 -328 27q-171 0 -264.5 -105t-93.5 -278z" />
<glyph unicode="b" horiz-adv-x="1255" d="M180 18v1436h142v-520q150 43 333 43q230 0 360 -136t130 -362q0 -232 -130 -369t-341 -137q-98 0 -142 1t-138.5 11.5t-213.5 32.5zM322 119q164 -29 327 -29q168 0 263.5 106t95.5 283q0 172 -94.5 274.5t-272.5 102.5q-170 0 -319 -43v-694z" />
<glyph unicode="c" horiz-adv-x="1085" d="M111 477q0 229 146 366.5t384 137.5q176 0 324 -51l-21 -113q-166 43 -295 43q-180 0 -288.5 -105.5t-108.5 -279.5q0 -172 107 -277.5t274 -105.5q128 0 328 53l24 -116q-194 -60 -356 -60q-230 0 -374 139.5t-144 368.5z" />
<glyph unicode="d" horiz-adv-x="1255" d="M111 479q0 226 129.5 362t359.5 136q184 0 334 -43v520h141v-1436q-119 -22 -213.5 -32.5t-138 -11.5t-141.5 -1q-211 0 -341 137t-130 369zM248 479q0 -177 95 -283t263 -106q164 0 328 29v694q-149 43 -320 43q-178 0 -272 -102t-94 -275z" />
<glyph unicode="e" horiz-adv-x="1167" d="M111 475q0 226 137 364t354 138q202 0 328 -122t127 -327q0 -48 -8 -108h-789q17 -148 114.5 -236t252.5 -88q137 0 348 54l22 -115q-112 -34 -193.5 -50t-180.5 -16q-239 0 -375.5 140t-136.5 366zM256 530h672q-1 154 -89.5 243t-232.5 89q-151 0 -244.5 -90 t-105.5 -242z" />
<glyph unicode="f" horiz-adv-x="790" d="M12 819v127h258v240q0 164 92.5 260t245.5 96q76 0 162 -22l-22 -119q-79 14 -136 14q-92 0 -147 -61.5t-55 -169.5v-238h364v-127h-364v-819h-140v819h-258z" />
<glyph unicode="g" horiz-adv-x="1239" d="M111 477q0 226 129.5 363t351.5 137q151 0 256 -12.5t227 -38.5v-906q0 -240 -136 -384t-376 -144q-175 0 -354 72l27 114q190 -59 325 -59q172 0 273 106t102 293q-74 -14 -138.5 -20t-100 -7t-115.5 -1q-211 0 -341 136t-130 351zM250 473q0 -158 96.5 -260t253.5 -102 h32h33.5t30 0.5t33.5 1t32.5 2t38 3.5t39 5t47 7t50.5 9v690q-178 27 -328 27q-172 0 -265 -104.5t-93 -278.5z" />
<glyph unicode="h" horiz-adv-x="1249" d="M182 0v1454h140v-522q171 45 378 45q180 0 282.5 -103t102.5 -284v-590h-139v557q0 136 -72 213.5t-198 77.5q-196 0 -354 -43v-805h-140z" />
<glyph unicode="i" horiz-adv-x="512" d="M154 1288q0 44 29.5 73.5t72.5 29.5t72.5 -29.5t29.5 -73.5q0 -43 -29.5 -71.5t-72.5 -28.5t-72.5 28.5t-29.5 71.5zM186 0v946h142v-946h-142z" />
<glyph unicode="j" horiz-adv-x="485" d="M-66 -360h12q120 0 168 60q50 63 50 210v1036h139v-1022q0 -107 -16.5 -179.5t-57 -125t-110 -77t-174.5 -25.5zM129 1288q0 44 30.5 73.5t73.5 29.5t73 -29.5t30 -73.5q0 -42 -30 -71t-73 -29t-73.5 29t-30.5 71z" />
<glyph unicode="k" horiz-adv-x="1161" d="M180 0v1454h142v-911h131l401 403h174l-418 -422l484 -524h-172l-398 414h-202v-414h-142z" />
<glyph unicode="l" horiz-adv-x="528" d="M195 0v1454h139v-1454h-139z" />
<glyph unicode="m" horiz-adv-x="1863" d="M180 0v926q214 45 453 51q183 0 272 -80q193 80 428 80q178 0 272.5 -96.5t94.5 -290.5v-590h-139v557q0 291 -252 291q-179 0 -330 -57q31 -73 31 -189v-602h-140v567q0 153 -61 217t-201 64q-145 -6 -286 -27v-821h-142z" />
<glyph unicode="n" horiz-adv-x="1247" d="M180 0v926q232 51 518 51q180 0 283.5 -103t103.5 -284v-590h-141v557q0 136 -72 213.5t-198 77.5q-192 0 -352 -29v-819h-142z" />
<glyph unicode="o" horiz-adv-x="1257" d="M111 477q0 226 144.5 366t373.5 140q230 0 374 -140t144 -366q0 -228 -144 -369t-374 -141q-228 0 -373 141t-145 369zM254 477q0 -171 105 -277t270 -106q166 0 270.5 106t104.5 277q0 169 -104 273t-271 104q-165 0 -270 -104t-105 -273z" />
<glyph unicode="p" horiz-adv-x="1261" d="M180 -463v1389q247 51 486 51q222 0 350 -136.5t131 -363.5q0 -215 -130.5 -351t-342.5 -136q-80 0 -115 1t-99 7t-138 20v-481h-142zM322 139q27 -5 50.5 -9t47 -7t39 -5t38 -3.5t32 -2t33.5 -1t30 -0.5h33h32q158 0 254.5 102t96.5 260q0 174 -93 278.5t-266 104.5 q-149 0 -327 -27v-690z" />
<glyph unicode="q" horiz-adv-x="1261" d="M115 477q3 227 131 363.5t350 136.5q238 0 485 -51v-1389h-141v481q-74 -14 -138 -20t-99 -7t-115 -1q-212 0 -342.5 136t-130.5 351zM254 473q0 -158 96.5 -260t253.5 -102h32h33.5t30 0.5t33.5 1t32.5 2t38 3.5t39 5t47 7t50.5 9v690q-179 27 -328 27 q-172 0 -265 -104.5t-93 -278.5z" />
<glyph unicode="r" horiz-adv-x="792" d="M180 0v920q272 49 529 49v-138q-213 0 -387 -20v-811h-142z" />
<glyph unicode="s" horiz-adv-x="1060" d="M125 63l33 117q218 -94 397 -94q112 0 181 43t69 121q0 33 -16.5 59t-36.5 41.5t-67 31t-76.5 22.5t-96.5 21q-22 5 -33 7q-164 34 -238.5 92t-74.5 170q0 133 99.5 207t275.5 74q183 0 364 -66l-35 -110q-193 61 -340 61q-109 0 -168 -41t-59 -119q0 -29 11.5 -50.5 t28 -36t54 -28t68 -22t92.5 -22.5q56 -12 92 -21t80 -23t71.5 -28t56 -34.5t44 -44.5t25.5 -56.5t10 -71.5q0 -142 -106 -217.5t-283 -75.5q-199 0 -422 94z" />
<glyph unicode="t" horiz-adv-x="888" d="M53 819v127h217v397h140v-397h338v-127h-338v-477q0 -129 47.5 -187.5t156.5 -58.5q66 0 170 17l17 -117q-114 -27 -209 -27q-165 0 -243.5 87.5t-78.5 273.5v489h-217z" />
<glyph unicode="u" horiz-adv-x="1251" d="M170 356v590h139v-563q0 -142 70 -217.5t201 -75.5q167 0 354 29v827h139v-926q-215 -51 -518 -51q-183 0 -284 96.5t-101 290.5z" />
<glyph unicode="v" horiz-adv-x="1193" d="M80 946h156l362 -782l360 782h154l-440 -946h-150z" />
<glyph unicode="w" horiz-adv-x="1685" d="M92 946h144l276 -751l274 751h115l270 -753l279 753h143l-346 -946h-137l-268 741l-267 -741h-137z" />
<glyph unicode="x" horiz-adv-x="1114" d="M74 0l391 473l-383 473h170l305 -373l307 373h168l-383 -473l391 -473h-168l-315 377l-317 -377h-166z" />
<glyph unicode="y" horiz-adv-x="1261" d="M84 946h160l403 -747l383 747h158l-719 -1407h-158l260 510z" />
<glyph unicode="z" horiz-adv-x="1015" d="M106 0v74l601 749h-580v123h772v-84l-594 -739h613v-123h-812z" />
<glyph unicode="{" horiz-adv-x="741" d="M92 469v125q115 0 161 47t46 174v367q0 187 82.5 274.5t263.5 87.5v-127q-113 0 -160 -51t-47 -178v-377q0 -122 -32.5 -186.5t-116.5 -92.5q84 -28 116.5 -93t32.5 -187v-375q0 -128 46.5 -178.5t160.5 -50.5v-127q-181 0 -263.5 86.5t-82.5 273.5v369q0 125 -46 172 t-161 47z" />
<glyph unicode="|" horiz-adv-x="636" d="M252 -315v1880h133v-1880h-133z" />
<glyph unicode="}" horiz-adv-x="741" d="M96 -352q114 0 160.5 50.5t46.5 178.5v375q0 122 33 186.5t117 93.5q-84 29 -117 93t-33 186v377q0 127 -47 178t-160 51v127q181 0 263.5 -87.5t82.5 -274.5v-367q0 -127 46 -174t161 -47v-125q-115 0 -161 -47t-46 -172v-369q0 -187 -82.5 -273.5t-263.5 -86.5v127z " />
<glyph unicode="~" horiz-adv-x="940" d="M100 623q0 81 34.5 135.5t84.5 74t105.5 15.5t99.5 -31l131 -88q57 -38 108.5 -13.5t51.5 93.5h123q0 -65 -22.5 -114t-58 -74t-78.5 -34.5t-86.5 -2t-78.5 29.5l-129 88q-57 38 -108.5 14t-51.5 -93h-125z" />
<glyph unicode="&#xa1;" horiz-adv-x="544" d="M166 881q0 43 29.5 71.5t72.5 28.5t73 -29t30 -71q0 -43 -30 -72t-73 -29t-72.5 29t-29.5 72zM190 -438l7 1032h139l8 -1032h-154z" />
<glyph unicode="&#xa2;" horiz-adv-x="1058" d="M100 494q0 210 124.5 344.5t330.5 154.5v252h129v-250q140 -6 272 -51l-22 -115q-166 43 -303 43q-172 0 -279.5 -103t-107.5 -273t106 -274.5t275 -104.5q131 0 327 51l23 -119q-143 -45 -291 -55v-250h-129v252q-204 19 -329.5 154t-125.5 344z" />
<glyph unicode="&#xa3;" horiz-adv-x="1263" d="M90 0v123h154v457h-154v122h154v299q0 190 134.5 306t354.5 116q181 0 350 -45l-24 -116q-171 36 -330 36q-157 0 -250.5 -81t-93.5 -216v-299h489v-122h-489v-457h791v-123h-1086z" />
<glyph unicode="&#xa5;" horiz-adv-x="1396" d="M41 1393h166l491 -746l494 746h164l-531 -811h387v-109h-440v-180h440v-109h-440v-184h-145v184h-443v109h443v180h-443v109h389z" />
<glyph unicode="&#xa6;" horiz-adv-x="636" d="M252 -317v835h133v-835h-133zM252 727v836h133v-836h-133z" />
<glyph unicode="&#xa7;" horiz-adv-x="1093" d="M88 627q0 57 15 104t44 84t61.5 64t78.5 55q-57 42 -83 89t-26 112q0 133 101 210.5t284 77.5q90 0 189 -19.5t176 -51.5l-41 -111q-174 68 -324 68q-121 0 -187.5 -43.5t-66.5 -126.5q0 -69 49.5 -105.5t194.5 -98.5q11 -5 17 -7.5t16 -6.5t18 -8q109 -44 174.5 -78 t122 -79.5t81 -100.5t24.5 -127q0 -57 -15 -104t-44 -84t-61.5 -64t-78.5 -55q57 -42 84 -89.5t27 -111.5q0 -133 -102.5 -210.5t-285.5 -77.5q-90 0 -188.5 19.5t-175.5 51.5l41 111q174 -68 323 -68q121 0 187.5 43.5t66.5 126.5q0 69 -49.5 105.5t-194.5 98.5 q-11 5 -17 7.5t-16 6.5t-18 8q-108 44 -174 78t-122 79.5t-80.5 100.5t-24.5 127zM213 645q0 -30 8.5 -56.5t20.5 -47.5t37.5 -43t47 -37t63 -36t71 -35t84.5 -38q134 -59 170 -78q84 56 125 108t41 128q0 30 -8.5 56.5t-20.5 47.5t-37.5 43t-47 37t-63 36t-71 35t-84.5 38 q-134 59 -170 78q-84 -56 -125 -108t-41 -128z" />
<glyph unicode="&#xa8;" horiz-adv-x="1228" d="M301 1286q0 40 29 68t69 28q41 0 70 -28t29 -68t-29 -67t-70 -27q-40 0 -69 27.5t-29 66.5zM731 1286q0 40 28.5 68t69.5 28t70 -28t29 -68t-29 -67t-70 -27t-69.5 27t-28.5 67z" />
<glyph unicode="&#xa9;" horiz-adv-x="1720" d="M115 696q0 205 97 371.5t267.5 261t380.5 94.5t381 -94.5t268 -261t97 -371.5t-97 -371.5t-268 -261t-381 -94.5t-380.5 94.5t-267.5 261t-97 371.5zM193 696q0 -183 87 -332.5t240 -235t340 -85.5t340 85.5t240.5 235t87.5 332.5t-87.5 333t-240.5 235.5t-340 85.5 q-140 0 -264 -50.5t-212 -137t-139.5 -208t-51.5 -258.5zM457 694q0 187 108.5 295.5t308.5 108.5q123 0 273 -47l-19 -95q-150 41 -254 41q-145 0 -223 -79.5t-78 -223.5q0 -143 77.5 -222t221.5 -79q91 0 256 39l19 -92q-141 -49 -275 -49q-199 0 -307 108.5t-108 294.5z " />
<glyph unicode="&#xaa;" horiz-adv-x="946" d="M125 930q0 192 317 207l252 10v20q-3 82 -47.5 119t-142.5 37q-107 0 -289 -25l-12 97q167 28 299 28q153 0 226 -61.5t73 -192.5v-421q-225 -37 -381 -37q-146 0 -220.5 55.5t-74.5 163.5zM233 928q0 -125 207 -125q96 0 254 22v236l-264 -12q-197 -9 -197 -121z" />
<glyph unicode="&#xab;" horiz-adv-x="1116" d="M104 504l379 401l82 -65l-297 -332l295 -332l-80 -76zM506 504l381 401l80 -65l-297 -332l295 -332l-78 -76z" />
<glyph unicode="&#xad;" horiz-adv-x="1091" d="M240 485h612v142h-612v-142z" />
<glyph unicode="&#xae;" horiz-adv-x="1720" d="M115 696q0 205 97 371.5t267.5 261t380.5 94.5t381 -94.5t268 -261t97 -371.5t-97 -371.5t-268 -261t-381 -94.5t-380.5 94.5t-267.5 261t-97 371.5zM193 696q0 -183 87 -332.5t240 -235t340 -85.5t340 85.5t240.5 235t87.5 332.5t-87.5 333t-240.5 235.5t-340 85.5 q-140 0 -264 -50.5t-212 -137t-139.5 -208t-51.5 -258.5zM588 305v791q216 6 276 6q146 0 232 -67t86 -191q0 -87 -48 -148.5t-133 -89.5l228 -301h-129l-203 275q-6 0 -19.5 -1t-19.5 -1h-166v-273h-104zM692 670h182q91 0 148 47t57 129q0 81 -57 122.5t-154 41.5 q-37 0 -100.5 -3t-75.5 -3v-334z" />
<glyph unicode="&#xaf;" horiz-adv-x="1228" d="M336 1264v114h555v-114h-555z" />
<glyph unicode="&#xb0;" horiz-adv-x="997" d="M156 1090q0 142 98 237.5t244 95.5q147 0 244.5 -95t97.5 -238t-97.5 -238.5t-244.5 -95.5q-146 0 -244 95.5t-98 238.5zM270 1090q0 -94 67 -160t161 -66q95 0 162 66t67 160t-67 159.5t-162 65.5q-94 0 -161 -66t-67 -159z" />
<glyph unicode="&#xb1;" horiz-adv-x="1419" d="M240 92v131h940v-131h-940zM240 664v131h403v325h137v-325h400v-131h-400v-326h-137v326h-403z" />
<glyph unicode="&#xb2;" horiz-adv-x="720" d="M72 1348q117 57 266 57q135 0 206.5 -66.5t71.5 -167.5q0 -83 -50 -152t-150 -157l-160 -139h381v-96h-561v73l284 250q69 54 104.5 101.5t35.5 105.5q0 69 -47.5 106t-130.5 37q-105 0 -224 -49z" />
<glyph unicode="&#xb3;" horiz-adv-x="731" d="M57 678l39 88q124 -53 246 -53q86 0 143.5 38t57.5 97q0 123 -187 123h-145v53l252 270h-365v99h518v-68l-249 -260l18 -2q122 -4 192 -60t70 -147q0 -109 -82 -175.5t-227 -66.5q-156 0 -281 64z" />
<glyph unicode="&#xb4;" horiz-adv-x="1228" d="M512 1169l172 320h188l-223 -320h-137z" />
<glyph unicode="&#xb6;" horiz-adv-x="1527" d="M76 940q0 224 131.5 346.5t374.5 122.5q507 0 757 -16v-1606h-145v1475q-164 8 -281 8v-1483h-145v686h-186q-241 0 -373.5 126.5t-132.5 340.5zM219 938q0 -154 90 -244t258 -90h201v668l-201 2q-171 0 -259.5 -85.5t-88.5 -250.5z" />
<glyph unicode="&#xb7;" horiz-adv-x="561" d="M170 524q0 46 32.5 77.5t78.5 31.5t78 -31.5t32 -77.5q0 -44 -32 -75t-78 -31t-78.5 31t-32.5 75z" />
<glyph unicode="&#xb8;" horiz-adv-x="1228" d="M442 -418l105 316h137l-121 -316h-121z" />
<glyph unicode="&#xb9;" horiz-adv-x="589" d="M37 1303l282 90h33v-664h180v-98h-483v98h195v528l-183 -53z" />
<glyph unicode="&#xba;" horiz-adv-x="927" d="M94 1069q0 157 104.5 255.5t264.5 98.5q161 0 266 -98.5t105 -255.5q0 -160 -105 -261t-266 -101q-160 0 -264.5 101t-104.5 261zM209 1069q0 -115 72.5 -186.5t181.5 -71.5q111 0 183.5 71.5t72.5 186.5q0 112 -73 182t-183 70q-109 0 -181.5 -70t-72.5 -182z" />
<glyph unicode="&#xbb;" horiz-adv-x="1116" d="M145 840l82 65l379 -401l-379 -404l-80 76l295 332zM547 176l297 332l-297 332l80 65l381 -401l-381 -404z" />
<glyph unicode="&#xbc;" horiz-adv-x="1773" d="M127 1303l283 90h32v-664h181v-98h-484v98h195v528l-182 -53zM401 0l928 1393h92l-927 -1393h-93zM954 170v80l467 512h117v-496h119v-96h-119v-170h-111v170h-473zM1098 266h329v367z" />
<glyph unicode="&#xbd;" horiz-adv-x="1808" d="M127 1303l283 90h32v-664h181v-98h-484v98h195v528l-182 -53zM371 0l927 1393h91l-928 -1393h-90zM1104 721q117 57 268 57q133 0 205 -66t72 -167q0 -57 -29 -113.5t-67 -97.5t-103 -98l-160 -140h379v-96h-559v74l285 250q68 55 102.5 101.5t34.5 104.5q0 70 -46.5 107 t-129.5 37q-106 0 -223 -49z" />
<glyph unicode="&#xbe;" horiz-adv-x="1888" d="M152 678l38 88q124 -53 246 -53q86 0 143.5 38t57.5 97q0 123 -186 123h-146v53l252 270h-364v99h518v-68l-250 -260l18 -2q122 -4 192 -60t70 -147q0 -109 -82 -175.5t-227 -66.5q-155 0 -280 64zM471 0l928 1393h90l-928 -1393h-90zM1020 170v80l467 512h117v-496h118 v-96h-118v-170h-111v170h-473zM1163 266h330v367z" />
<glyph unicode="&#xbf;" horiz-adv-x="1026" d="M106 29q0 194 126.5 315t328.5 121h49l-8 205h131l25 -324h-172q-155 0 -248.5 -88t-93.5 -233q0 -132 95.5 -212.5t252.5 -80.5t330 39l22 -119q-182 -45 -350 -45q-220 0 -354 116t-134 306zM559 956q0 43 30 72t73 29t72.5 -29t29.5 -72t-29.5 -71.5t-72.5 -28.5 t-73 29t-30 71z" />
<glyph unicode="&#xc0;" horiz-adv-x="1556" d="M76 0l633 1403h139l633 -1403h-162l-152 340h-778l-149 -340h-164zM446 471h662l-330 746zM487 1835h189l172 -311h-137z" />
<glyph unicode="&#xc1;" horiz-adv-x="1556" d="M76 0l633 1403h139l633 -1403h-162l-152 340h-778l-149 -340h-164zM446 471h662l-330 746zM717 1524l182 311h188l-223 -311h-147z" />
<glyph unicode="&#xc2;" horiz-adv-x="1556" d="M76 0l633 1403h139l633 -1403h-162l-152 340h-778l-149 -340h-164zM446 471h662l-330 746zM455 1524l258 311h131l258 -311h-141l-183 213l-182 -213h-141z" />
<glyph unicode="&#xc3;" horiz-adv-x="1556" d="M76 0l633 1403h139l633 -1403h-162l-152 340h-778l-149 -340h-164zM446 471h662l-330 746zM457 1571q0 71 30 118.5t74 64.5t92 13.5t86 -26.5l113 -74q50 -33 92.5 -12t42.5 80h113q0 -71 -30 -119t-74 -65t-92.5 -14t-86.5 26l-112 75q-49 32 -93.5 12t-44.5 -79h-110z " />
<glyph unicode="&#xc4;" horiz-adv-x="1556" d="M76 0l633 1403h139l633 -1403h-162l-152 340h-778l-149 -340h-164zM446 471h662l-330 746zM465 1677q0 40 28.5 67.5t69.5 27.5t70 -27.5t29 -67.5q0 -41 -28.5 -68.5t-70.5 -27.5q-41 0 -69.5 27.5t-28.5 68.5zM895 1677q0 40 28.5 67.5t69.5 27.5q40 0 69.5 -28 t29.5 -67q0 -41 -29.5 -68.5t-69.5 -27.5q-41 0 -69.5 27.5t-28.5 68.5z" />
<glyph unicode="&#xc5;" horiz-adv-x="1556" d="M76 0l633 1403h139l633 -1403h-162l-152 340h-778l-149 -340h-164zM446 471h662l-330 746zM582 1686q0 87 55.5 139.5t142.5 52.5q86 0 142.5 -53t56.5 -139q0 -84 -56.5 -137.5t-142.5 -53.5q-87 0 -142.5 53.5t-55.5 137.5zM668 1686q0 -49 32 -80t80 -31t80.5 31 t32.5 80q0 50 -32.5 82t-80.5 32t-80 -32t-32 -82z" />
<glyph unicode="&#xc6;" horiz-adv-x="2263" d="M76 0l1040 1393h1008v-133h-824v-496h740v-135h-740v-496h824v-133h-967v336h-653l-250 -336h-178zM600 471h557v746z" />
<glyph unicode="&#xc7;" horiz-adv-x="1538" d="M135 696q0 329 208.5 528t559.5 199q243 0 473 -69l-26 -135q-245 65 -430 65q-296 0 -463.5 -161t-167.5 -425q0 -268 165.5 -431t442.5 -163q198 0 481 76l27 -127q-272 -84 -514 -84q-343 0 -549.5 199.5t-206.5 527.5zM664 -418l104 316h137l-121 -316h-120z" />
<glyph unicode="&#xc8;" horiz-adv-x="1312" d="M205 0v1393h969v-133h-824v-496h737v-135h-737v-496h824v-133h-969zM391 1835h189l172 -311h-138z" />
<glyph unicode="&#xc9;" horiz-adv-x="1312" d="M205 0v1393h969v-133h-824v-496h737v-135h-737v-496h824v-133h-969zM621 1524l182 311h188l-223 -311h-147z" />
<glyph unicode="&#xca;" horiz-adv-x="1312" d="M205 0v1393h969v-133h-824v-496h737v-135h-737v-496h824v-133h-969zM358 1524l258 311h132l258 -311h-142l-182 213l-182 -213h-142z" />
<glyph unicode="&#xcb;" horiz-adv-x="1312" d="M205 0v1393h969v-133h-824v-496h737v-135h-737v-496h824v-133h-969zM369 1677q0 40 28.5 67.5t69.5 27.5t69.5 -27.5t28.5 -67.5q0 -41 -28.5 -68.5t-69.5 -27.5t-69.5 27.5t-28.5 68.5zM799 1677q0 40 28.5 67.5t69.5 27.5q40 0 69 -28t29 -67q0 -41 -29 -68.5 t-69 -27.5q-41 0 -69.5 27.5t-28.5 68.5z" />
<glyph unicode="&#xcc;" horiz-adv-x="555" d="M-14 1835h188l172 -311h-137zM205 0v1393h145v-1393h-145z" />
<glyph unicode="&#xcd;" horiz-adv-x="555" d="M205 0v1393h145v-1393h-145zM215 1524l182 311h189l-224 -311h-147z" />
<glyph unicode="&#xce;" horiz-adv-x="555" d="M-47 1524l258 311h131l258 -311h-141l-183 213l-182 -213h-141zM205 0v1393h145v-1393h-145z" />
<glyph unicode="&#xcf;" horiz-adv-x="555" d="M-37 1677q0 40 28.5 67.5t69.5 27.5t70 -27.5t29 -67.5q0 -41 -28.5 -68.5t-70.5 -27.5q-41 0 -69.5 27.5t-28.5 68.5zM205 0v1393h145v-1393h-145zM393 1677q0 40 29 67.5t70 27.5q40 0 69 -28t29 -67q0 -41 -29 -68.5t-69 -27.5q-42 0 -70.5 27.5t-28.5 68.5z" />
<glyph unicode="&#xd0;" horiz-adv-x="1538" d="M70 623v133h135v637q323 16 469 16q215 0 380.5 -84.5t258 -244.5t92.5 -373q0 -164 -53.5 -299.5t-148 -228t-226 -143t-285.5 -50.5q-205 0 -487 14v623h-135zM350 127q167 -6 342 -6q122 0 225 40.5t177 115t115.5 185t41.5 245.5q0 262 -158 414.5t-419 152.5 q-116 0 -324 -8v-510h373v-133h-373v-496z" />
<glyph unicode="&#xd1;" horiz-adv-x="1599" d="M205 0v1393h141l903 -1160v1160h146v-1393h-148l-897 1155v-1155h-145zM469 1571q0 71 30 118.5t74 64.5t92.5 13.5t86.5 -26.5l112 -74q50 -33 92.5 -12t42.5 80h113q0 -71 -30 -119t-74 -65t-92.5 -14t-86.5 26l-112 75q-49 32 -93 12t-44 -79h-111z" />
<glyph unicode="&#xd2;" d="M135 696q0 215 92.5 381t259 256t381.5 90q326 0 528.5 -200.5t202.5 -526.5t-202.5 -526.5t-528.5 -200.5q-215 0 -381.5 90t-259 256t-92.5 381zM287 696q0 -265 161 -428.5t418 -163.5q259 0 420.5 163.5t161.5 428.5t-161.5 427.5t-420.5 162.5q-257 0 -418 -162.5 t-161 -427.5zM575 1835h189l172 -311h-137z" />
<glyph unicode="&#xd3;" d="M135 696q0 215 92.5 381t259 256t381.5 90q326 0 528.5 -200.5t202.5 -526.5t-202.5 -526.5t-528.5 -200.5q-215 0 -381.5 90t-259 256t-92.5 381zM287 696q0 -265 161 -428.5t418 -163.5q259 0 420.5 163.5t161.5 428.5t-161.5 427.5t-420.5 162.5q-257 0 -418 -162.5 t-161 -427.5zM805 1524l182 311h189l-224 -311h-147z" />
<glyph unicode="&#xd4;" d="M135 696q0 215 92.5 381t259 256t381.5 90q326 0 528.5 -200.5t202.5 -526.5t-202.5 -526.5t-528.5 -200.5q-215 0 -381.5 90t-259 256t-92.5 381zM287 696q0 -265 161 -428.5t418 -163.5q259 0 420.5 163.5t161.5 428.5t-161.5 427.5t-420.5 162.5q-257 0 -418 -162.5 t-161 -427.5zM543 1524l258 311h131l258 -311h-141l-183 213l-182 -213h-141z" />
<glyph unicode="&#xd5;" d="M135 696q0 215 92.5 381t259 256t381.5 90q326 0 528.5 -200.5t202.5 -526.5t-202.5 -526.5t-528.5 -200.5q-215 0 -381.5 90t-259 256t-92.5 381zM287 696q0 -265 161 -428.5t418 -163.5q259 0 420.5 163.5t161.5 428.5t-161.5 427.5t-420.5 162.5q-257 0 -418 -162.5 t-161 -427.5zM545 1571q0 71 30 118.5t74 64.5t92 13.5t86 -26.5l113 -74q50 -33 92.5 -12t42.5 80h113q0 -71 -30 -119t-74 -65t-92.5 -14t-86.5 26l-112 75q-49 32 -93.5 12t-44.5 -79h-110z" />
<glyph unicode="&#xd6;" d="M135 696q0 215 92.5 381t259 256t381.5 90q326 0 528.5 -200.5t202.5 -526.5t-202.5 -526.5t-528.5 -200.5q-215 0 -381.5 90t-259 256t-92.5 381zM287 696q0 -265 161 -428.5t418 -163.5q259 0 420.5 163.5t161.5 428.5t-161.5 427.5t-420.5 162.5q-257 0 -418 -162.5 t-161 -427.5zM553 1677q0 40 28.5 67.5t69.5 27.5t70 -27.5t29 -67.5q0 -41 -28.5 -68.5t-70.5 -27.5q-41 0 -69.5 27.5t-28.5 68.5zM983 1677q0 40 28.5 67.5t69.5 27.5q40 0 69.5 -28t29.5 -67q0 -41 -29.5 -68.5t-69.5 -27.5q-41 0 -69.5 27.5t-28.5 68.5z" />
<glyph unicode="&#xd7;" horiz-adv-x="1359" d="M262 328l324 323l-324 324l94 92l324 -322l321 322l95 -92l-324 -324l324 -323l-95 -92l-321 323l-324 -323z" />
<glyph unicode="&#xd8;" d="M135 696q0 215 92.5 381t259 256t381.5 90q248 0 430 -118l101 116l96 -82l-98 -114q202 -199 202 -529q0 -326 -202.5 -526.5t-528.5 -200.5q-256 0 -440 127l-106 -123l-97 82l105 123q-195 201 -195 518zM287 696q0 -245 141 -405l774 901q-142 94 -336 94 q-257 0 -418 -162.5t-161 -427.5zM522 207q144 -103 344 -103q259 0 420.5 163.5t161.5 428.5q0 251 -150 414z" />
<glyph unicode="&#xd9;" horiz-adv-x="1562" d="M184 559v834h146v-834q0 -208 123 -331.5t327 -123.5q205 0 329 123.5t124 331.5v834h145v-834q0 -269 -164 -429.5t-434 -160.5q-268 0 -432 160.5t-164 429.5zM489 1835h189l172 -311h-137z" />
<glyph unicode="&#xda;" horiz-adv-x="1562" d="M184 559v834h146v-834q0 -208 123 -331.5t327 -123.5q205 0 329 123.5t124 331.5v834h145v-834q0 -269 -164 -429.5t-434 -160.5q-268 0 -432 160.5t-164 429.5zM719 1524l182 311h189l-224 -311h-147z" />
<glyph unicode="&#xdb;" horiz-adv-x="1562" d="M184 559v834h146v-834q0 -208 123 -331.5t327 -123.5q205 0 329 123.5t124 331.5v834h145v-834q0 -269 -164 -429.5t-434 -160.5q-268 0 -432 160.5t-164 429.5zM459 1524l258 311h131l258 -311h-141l-183 213l-182 -213h-141z" />
<glyph unicode="&#xdc;" horiz-adv-x="1562" d="M184 559v834h146v-834q0 -208 123 -331.5t327 -123.5q205 0 329 123.5t124 331.5v834h145v-834q0 -269 -164 -429.5t-434 -160.5q-268 0 -432 160.5t-164 429.5zM469 1677q0 40 28.5 67.5t69.5 27.5t70 -27.5t29 -67.5q0 -41 -28.5 -68.5t-70.5 -27.5q-41 0 -69.5 27.5 t-28.5 68.5zM899 1677q0 40 28.5 67.5t69.5 27.5q40 0 69.5 -28t29.5 -67q0 -41 -29.5 -68.5t-69.5 -27.5q-41 0 -69.5 27.5t-28.5 68.5z" />
<glyph unicode="&#xdd;" horiz-adv-x="1421" d="M53 1393h166l492 -746l493 746h164l-584 -895v-498h-145v498zM647 1524l182 311h189l-223 -311h-148z" />
<glyph unicode="&#xde;" horiz-adv-x="1310" d="M205 0v1393h145v-217q161 8 326 8q248 0 397.5 -124.5t149.5 -344.5q0 -209 -151 -338t-396 -129h-326v-248h-145zM350 381h340q173 0 281 91t108 241q0 161 -106.5 249.5t-282.5 88.5q-111 0 -340 -11v-659z" />
<glyph unicode="&#xdf;" horiz-adv-x="1329" d="M193 0v1182q0 186 83 273t263 87v-127q-111 0 -159 -58.5t-48 -187.5v-223h854v-92l-398 -453h60q185 -12 293 -115.5t108 -275.5q0 -196 -137.5 -316t-361.5 -120q-149 0 -301 41l22 119q169 -35 281 -35q163 0 261.5 84.5t98.5 222.5q0 126 -87.5 199.5t-231.5 73.5 h-197v69l399 467h-663v-815h-139z" />
<glyph unicode="&#xe0;" horiz-adv-x="1249" d="M111 477q2 227 130 363.5t349 136.5q130 0 234.5 -11t250.5 -40v-926h-139v84q-91 -60 -174.5 -87.5t-179.5 -27.5q-212 0 -341.5 139.5t-129.5 368.5zM250 473q0 -172 94.5 -277.5t253.5 -105.5q86 0 165 26.5t173 88.5v624q-178 27 -328 27q-172 0 -265 -104.5 t-93 -278.5zM385 1489h188l175 -320h-140z" />
<glyph unicode="&#xe1;" horiz-adv-x="1249" d="M111 477q2 227 130 363.5t349 136.5q130 0 234.5 -11t250.5 -40v-926h-139v84q-91 -60 -174.5 -87.5t-179.5 -27.5q-212 0 -341.5 139.5t-129.5 368.5zM250 473q0 -172 94.5 -277.5t253.5 -105.5q86 0 165 26.5t173 88.5v624q-178 27 -328 27q-172 0 -265 -104.5 t-93 -278.5zM555 1169l172 320h188l-223 -320h-137z" />
<glyph unicode="&#xe2;" horiz-adv-x="1249" d="M111 477q2 227 130 363.5t349 136.5q130 0 234.5 -11t250.5 -40v-926h-139v84q-91 -60 -174.5 -87.5t-179.5 -27.5q-212 0 -341.5 139.5t-129.5 368.5zM250 473q0 -172 94.5 -277.5t253.5 -105.5q86 0 165 26.5t173 88.5v624q-178 27 -328 27q-172 0 -265 -104.5 t-93 -278.5zM322 1163l258 305h131l258 -305h-142l-182 205l-182 -205h-141z" />
<glyph unicode="&#xe3;" horiz-adv-x="1249" d="M111 477q2 227 130 363.5t349 136.5q130 0 234.5 -11t250.5 -40v-926h-139v84q-91 -60 -174.5 -87.5t-179.5 -27.5q-212 0 -341.5 139.5t-129.5 368.5zM250 473q0 -172 94.5 -277.5t253.5 -105.5q86 0 165 26.5t173 88.5v624q-178 27 -328 27q-172 0 -265 -104.5 t-93 -278.5zM324 1217q0 71 30 118.5t74 64t92 13t86 -26.5l113 -73q49 -33 92 -12.5t43 79.5h113q0 -71 -30 -119t-74 -65t-92.5 -13.5t-86.5 27.5l-113 74q-49 33 -93 12.5t-44 -79.5h-110z" />
<glyph unicode="&#xe4;" horiz-adv-x="1249" d="M111 477q2 227 130 363.5t349 136.5q130 0 234.5 -11t250.5 -40v-926h-139v84q-91 -60 -174.5 -87.5t-179.5 -27.5q-212 0 -341.5 139.5t-129.5 368.5zM250 473q0 -172 94.5 -277.5t253.5 -105.5q86 0 165 26.5t173 88.5v624q-178 27 -328 27q-172 0 -265 -104.5 t-93 -278.5zM332 1286q0 40 29 68t69 28q41 0 69.5 -28t28.5 -68t-28.5 -67t-69.5 -27q-40 0 -69 27.5t-29 66.5zM762 1286q0 40 28.5 68t69.5 28t69.5 -28t28.5 -68t-28.5 -67t-69.5 -27t-69.5 27t-28.5 67z" />
<glyph unicode="&#xe5;" horiz-adv-x="1249" d="M111 477q2 227 130 363.5t349 136.5q130 0 234.5 -11t250.5 -40v-926h-139v84q-91 -60 -174.5 -87.5t-179.5 -27.5q-212 0 -341.5 139.5t-129.5 368.5zM250 473q0 -172 94.5 -277.5t253.5 -105.5q86 0 165 26.5t173 88.5v624q-178 27 -328 27q-172 0 -265 -104.5 t-93 -278.5zM449 1321q0 87 55.5 139.5t142.5 52.5q86 0 142.5 -53t56.5 -139q0 -84 -57 -138.5t-142 -54.5q-86 0 -142 54t-56 139zM535 1321q0 -50 32 -81.5t80 -31.5t80.5 31.5t32.5 81.5t-32.5 81.5t-80.5 31.5t-80 -31.5t-32 -81.5z" />
<glyph unicode="&#xe6;" horiz-adv-x="1847" d="M90 276q0 255 422 252l274 -2v80q0 127 -48 188.5t-156 61.5q-174 0 -373 -33l-14 119q228 39 393 39q239 0 303 -180q140 176 389 176q201 0 327 -122.5t126 -326.5v-2q0 -51 -7 -106h-792q17 -148 116 -236t255 -88q120 0 348 54l20 -115q-219 -66 -373 -66 q-202 0 -333 103q-272 -103 -482 -103q-395 0 -395 307zM223 272q0 -96 72 -142t219 -46q150 0 369 76q-78 109 -90 250h-291q-279 3 -279 -138zM932 530h672q-1 154 -89.5 243t-232.5 89q-149 0 -242.5 -90t-107.5 -242z" />
<glyph unicode="&#xe7;" horiz-adv-x="1085" d="M111 477q0 229 146 366.5t384 137.5q176 0 324 -51l-21 -113q-166 43 -295 43q-180 0 -288.5 -105.5t-108.5 -279.5q0 -172 106.5 -277.5t274.5 -105.5q128 0 328 53l22 -116q-190 -60 -354 -60q-230 0 -374 139.5t-144 368.5zM416 -418l104 316h137l-120 -316h-121z" />
<glyph unicode="&#xe8;" horiz-adv-x="1167" d="M111 475q0 226 137 364t354 138q201 0 326.5 -122t126.5 -327q0 -63 -6 -108h-789q17 -148 114.5 -236t252.5 -88q137 0 348 54l22 -115q-114 -34 -195.5 -50t-178.5 -16q-239 0 -375.5 140t-136.5 366zM256 530h672q-3 154 -91.5 243t-232.5 89q-150 0 -243 -90 t-105 -242zM369 1489h188l174 -320h-139z" />
<glyph unicode="&#xe9;" horiz-adv-x="1167" d="M111 475q0 226 137 364t354 138q201 0 326.5 -122t126.5 -327q0 -63 -6 -108h-789q17 -148 114.5 -236t252.5 -88q137 0 348 54l22 -115q-114 -34 -195.5 -50t-178.5 -16q-239 0 -375.5 140t-136.5 366zM256 530h672q-3 154 -91.5 243t-232.5 89q-150 0 -243 -90 t-105 -242zM539 1169l172 320h188l-223 -320h-137z" />
<glyph unicode="&#xea;" horiz-adv-x="1167" d="M111 475q0 226 137 364t354 138q201 0 326.5 -122t126.5 -327q0 -63 -6 -108h-789q17 -148 114.5 -236t252.5 -88q137 0 348 54l22 -115q-114 -34 -195.5 -50t-178.5 -16q-239 0 -375.5 140t-136.5 366zM256 530h672q-3 154 -91.5 243t-232.5 89q-150 0 -243 -90 t-105 -242zM305 1163l258 305h131l258 -305h-141l-182 205l-183 -205h-141z" />
<glyph unicode="&#xeb;" horiz-adv-x="1167" d="M111 475q0 226 137 364t354 138q201 0 326.5 -122t126.5 -327q0 -63 -6 -108h-789q17 -148 114.5 -236t252.5 -88q137 0 348 54l22 -115q-114 -34 -195.5 -50t-178.5 -16q-239 0 -375.5 140t-136.5 366zM256 530h672q-3 154 -91.5 243t-232.5 89q-150 0 -243 -90 t-105 -242zM317 1286q0 39 29.5 67.5t69.5 28.5q41 0 69.5 -28t28.5 -68t-28.5 -67t-69.5 -27q-40 0 -69.5 27.5t-29.5 66.5zM748 1286q0 40 28.5 68t69.5 28t69.5 -28t28.5 -68t-28.5 -67t-69.5 -27t-69.5 27t-28.5 67z" />
<glyph unicode="&#xec;" horiz-adv-x="514" d="M-47 1489h188l172 -320h-137zM186 0v946h140v-946h-140z" />
<glyph unicode="&#xed;" horiz-adv-x="514" d="M186 0v946h140v-946h-140zM188 1169l174 320h189l-223 -320h-140z" />
<glyph unicode="&#xee;" horiz-adv-x="514" d="M-66 1163l259 305h131l258 -305h-142l-182 205l-182 -205h-142zM186 0v946h140v-946h-140z" />
<glyph unicode="&#xef;" horiz-adv-x="514" d="M-55 1286q0 40 29 68t69 28q41 0 69.5 -28t28.5 -68t-28.5 -67t-69.5 -27q-40 0 -69 27.5t-29 66.5zM186 0v946h140v-946h-140zM375 1286q0 40 28.5 68t69.5 28t69.5 -28t28.5 -68t-28.5 -67t-69.5 -27t-69.5 27t-28.5 67z" />
<glyph unicode="&#xf0;" horiz-adv-x="1257" d="M111 477q0 224 143 365t358 141q228 0 340 -166q-83 256 -258 395l-325 -120l-33 90l262 98q-114 76 -246 119l150 59q134 -48 241 -125l175 64l34 -90l-123 -47q148 -129 233 -325t85 -427q0 -256 -139 -398.5t-379 -142.5q-226 0 -372 141.5t-146 368.5zM254 477 q0 -170 106 -276.5t269 -106.5q174 0 274.5 105t100.5 290q0 167 -105 266t-270 99q-163 0 -269 -104.5t-106 -272.5z" />
<glyph unicode="&#xf1;" horiz-adv-x="1247" d="M180 0v926q229 51 518 51q180 0 282.5 -103t102.5 -284v-590h-139v557q0 136 -72 213.5t-200 77.5q-190 0 -353 -29v-819h-139zM301 1217q0 71 30 118.5t74 64t92.5 13t86.5 -26.5l112 -73q50 -33 92.5 -12.5t42.5 79.5h113q0 -71 -30 -119t-73.5 -65t-92 -13.5 t-86.5 27.5l-113 74q-49 33 -93 12.5t-44 -79.5h-111z" />
<glyph unicode="&#xf2;" horiz-adv-x="1257" d="M111 477q0 226 144.5 366t373.5 140t373.5 -140t144.5 -366q0 -228 -145 -369t-373 -141t-373 141t-145 369zM254 477q0 -171 105 -277t270 -106q166 0 270.5 106t104.5 277q0 169 -104 273t-271 104q-165 0 -270 -104t-105 -273zM369 1489h188l174 -320h-139z" />
<glyph unicode="&#xf3;" horiz-adv-x="1257" d="M111 477q0 226 144.5 366t373.5 140t373.5 -140t144.5 -366q0 -228 -145 -369t-373 -141t-373 141t-145 369zM254 477q0 -171 105 -277t270 -106q166 0 270.5 106t104.5 277q0 169 -104 273t-271 104q-165 0 -270 -104t-105 -273zM537 1169l172 320h188l-223 -320h-137z " />
<glyph unicode="&#xf4;" horiz-adv-x="1257" d="M111 477q0 226 144.5 366t373.5 140t373.5 -140t144.5 -366q0 -228 -145 -369t-373 -141t-373 141t-145 369zM254 477q0 -171 105 -277t270 -106q166 0 270.5 106t104.5 277q0 169 -104 273t-271 104q-165 0 -270 -104t-105 -273zM305 1163l258 305h131l258 -305h-141 l-182 205l-183 -205h-141z" />
<glyph unicode="&#xf5;" horiz-adv-x="1257" d="M111 477q0 226 144.5 366t373.5 140t373.5 -140t144.5 -366q0 -228 -145 -369t-373 -141t-373 141t-145 369zM254 477q0 -171 105 -277t270 -106q166 0 270.5 106t104.5 277q0 169 -104 273t-271 104q-165 0 -270 -104t-105 -273zM307 1217q0 71 30 118.5t74 64t92.5 13 t86.5 -26.5l112 -73q50 -33 93 -12.5t43 79.5h112q0 -71 -30 -119t-73.5 -65t-92 -13.5t-86.5 27.5l-113 74q-49 33 -93 12.5t-44 -79.5h-111z" />
<glyph unicode="&#xf6;" horiz-adv-x="1257" d="M111 477q0 226 144.5 366t373.5 140t373.5 -140t144.5 -366q0 -228 -145 -369t-373 -141t-373 141t-145 369zM254 477q0 -171 105 -277t270 -106q166 0 270.5 106t104.5 277q0 169 -104 273t-271 104q-165 0 -270 -104t-105 -273zM315 1286q0 39 29.5 67.5t69.5 28.5 q41 0 69.5 -28t28.5 -68t-28.5 -67t-69.5 -27q-40 0 -69.5 27.5t-29.5 66.5zM745 1286q0 40 29 68t70 28t69.5 -28t28.5 -68t-28.5 -67t-69.5 -27t-70 27t-29 67z" />
<glyph unicode="&#xf7;" horiz-adv-x="1419" d="M240 596v131h940v-131h-940zM616 283q0 39 27.5 65.5t67.5 26.5q39 0 66.5 -26.5t27.5 -65.5q0 -38 -27.5 -64t-66.5 -26q-40 0 -67.5 26t-27.5 64zM616 1042q0 38 27.5 65.5t67.5 27.5q38 0 66 -27.5t28 -65.5t-28 -65t-66 -27q-40 0 -67.5 27t-27.5 65z" />
<glyph unicode="&#xf8;" horiz-adv-x="1257" d="M111 477q0 226 144.5 366t373.5 140q160 0 286 -74l121 144l80 -70l-117 -137q148 -142 148 -369q0 -228 -145 -369t-373 -141q-168 0 -297 80l-129 -153l-80 67l127 152q-139 142 -139 364zM254 477q0 -153 86 -256l489 584q-90 49 -200 49q-165 0 -270 -104t-105 -273z M420 152q89 -58 209 -58q166 0 270.5 106t104.5 277q0 154 -93 262z" />
<glyph unicode="&#xf9;" horiz-adv-x="1251" d="M170 356v590h139v-563q0 -142 70.5 -217.5t202.5 -75.5q165 0 352 29v827h139v-926q-215 -51 -518 -51q-183 0 -284 96.5t-101 290.5zM365 1489h188l174 -320h-139z" />
<glyph unicode="&#xfa;" horiz-adv-x="1251" d="M170 356v590h139v-563q0 -142 70.5 -217.5t202.5 -75.5q165 0 352 29v827h139v-926q-215 -51 -518 -51q-183 0 -284 96.5t-101 290.5zM532 1169l173 320h188l-223 -320h-138z" />
<glyph unicode="&#xfb;" horiz-adv-x="1251" d="M170 356v590h139v-563q0 -142 70.5 -217.5t202.5 -75.5q165 0 352 29v827h139v-926q-215 -51 -518 -51q-183 0 -284 96.5t-101 290.5zM301 1163l258 305h131l258 -305h-141l-182 205l-183 -205h-141z" />
<glyph unicode="&#xfc;" horiz-adv-x="1251" d="M170 356v590h139v-563q0 -142 70.5 -217.5t202.5 -75.5q165 0 352 29v827h139v-926q-215 -51 -518 -51q-183 0 -284 96.5t-101 290.5zM311 1286q0 39 29.5 67.5t69.5 28.5q41 0 69.5 -28t28.5 -68t-28.5 -67t-69.5 -27q-40 0 -69.5 27.5t-29.5 66.5zM741 1286q0 40 29 68 t70 28t69.5 -28t28.5 -68t-28.5 -67t-69.5 -27t-70 27t-29 67z" />
<glyph unicode="&#xfd;" horiz-adv-x="1261" d="M84 946h160l403 -747l383 747h158l-719 -1407h-158l260 510zM541 1169l172 320h188l-223 -320h-137z" />
<glyph unicode="&#xfe;" horiz-adv-x="1263" d="M182 -463v1917h140v-506q173 29 346 29q221 0 349 -136.5t130 -363.5q0 -229 -129.5 -368.5t-341.5 -139.5q-76 0 -114 1t-101.5 7.5t-138.5 20.5v-461h-140zM322 119q77 -15 142.5 -21.5t93.5 -7t101 -0.5q159 0 254 106t95 277q0 173 -93 278t-264 105q-147 0 -329 -27 v-710z" />
<glyph unicode="&#xff;" horiz-adv-x="1261" d="M84 946h160l403 -747l383 747h158l-719 -1407h-158l260 510zM317 1286q0 39 29.5 67.5t69.5 28.5q41 0 69.5 -28t28.5 -68t-28.5 -67t-69.5 -27q-40 0 -69.5 27.5t-29.5 66.5zM748 1286q0 40 28.5 68t69.5 28t69.5 -28t28.5 -68t-28.5 -67t-69.5 -27t-69.5 27t-28.5 67z " />
<glyph unicode="&#x152;" horiz-adv-x="2054" d="M135 696q0 324 218 509.5t593 187.5h969v-133h-823v-496h737v-135h-737v-496h823v-133h-969q-375 2 -593 187t-218 509zM287 696q0 -265 171 -412.5t488 -148.5v1120q-317 -1 -488 -147.5t-171 -411.5z" />
<glyph unicode="&#x153;" horiz-adv-x="2060" d="M111 477q0 226 144.5 366t373.5 140q148 0 263.5 -60.5t182.5 -170.5q62 107 172 166t250 59q201 0 326.5 -122t126.5 -327q0 -48 -8 -108h-787q15 -148 112.5 -236t252.5 -88q85 0 161 13t189 41l20 -115q-112 -34 -193.5 -50t-178.5 -16q-153 0 -267.5 61t-177.5 169 q-65 -110 -181 -171t-263 -61q-228 0 -373 141t-145 369zM254 477q0 -171 105 -277t270 -106q166 0 270.5 106t104.5 277q0 169 -104 273t-271 104q-165 0 -270 -104t-105 -273zM1151 530h670q-1 154 -89.5 243t-232.5 89q-150 0 -243.5 -90t-104.5 -242z" />
<glyph unicode="&#x178;" horiz-adv-x="1421" d="M53 1393h166l492 -746l493 746h164l-584 -895v-498h-145v498zM397 1677q0 40 29 67.5t70 27.5t69.5 -27.5t28.5 -67.5q0 -41 -28.5 -68.5t-69.5 -27.5q-42 0 -70.5 27.5t-28.5 68.5zM827 1677q0 40 29 67.5t70 27.5q40 0 69 -28t29 -67q0 -41 -29 -68.5t-69 -27.5 q-42 0 -70.5 27.5t-28.5 68.5z" />
<glyph unicode="&#x2c6;" horiz-adv-x="1228" d="M291 1163l258 305h131l258 -305h-141l-183 205l-182 -205h-141z" />
<glyph unicode="&#x2dc;" horiz-adv-x="1228" d="M293 1217q0 71 30 118.5t74 64t92 13t86 -26.5l113 -73q50 -33 92.5 -12.5t42.5 79.5h113q0 -71 -30 -119t-74 -65t-92.5 -13.5t-86.5 27.5l-112 74q-49 33 -93.5 12.5t-44.5 -79.5h-110z" />
<glyph unicode="&#x2000;" horiz-adv-x="939" />
<glyph unicode="&#x2001;" horiz-adv-x="1878" />
<glyph unicode="&#x2002;" horiz-adv-x="939" />
<glyph unicode="&#x2003;" horiz-adv-x="1878" />
<glyph unicode="&#x2004;" horiz-adv-x="626" />
<glyph unicode="&#x2005;" horiz-adv-x="469" />
<glyph unicode="&#x2006;" horiz-adv-x="313" />
<glyph unicode="&#x2007;" horiz-adv-x="313" />
<glyph unicode="&#x2008;" horiz-adv-x="234" />
<glyph unicode="&#x2009;" horiz-adv-x="375" />
<glyph unicode="&#x200a;" horiz-adv-x="104" />
<glyph unicode="&#x2010;" horiz-adv-x="1091" d="M240 485h612v142h-612v-142z" />
<glyph unicode="&#x2011;" horiz-adv-x="1091" d="M240 485h612v142h-612v-142z" />
<glyph unicode="&#x2012;" horiz-adv-x="1091" d="M240 485h612v142h-612v-142z" />
<glyph unicode="&#x2013;" horiz-adv-x="1345" d="M164 487h1018v140h-1018v-140z" />
<glyph unicode="&#x2014;" horiz-adv-x="1906" d="M164 487h1579v140h-1579v-140z" />
<glyph unicode="&#x2018;" horiz-adv-x="557" d="M152 1184q0 32 15 69.5t93 208.5q29 64 47 103h105l-111 -289q72 -25 72 -92q0 -45 -32.5 -76t-78.5 -31t-78 31t-32 76z" />
<glyph unicode="&#x2019;" horiz-adv-x="561" d="M133 1075l109 291q-72 25 -72 92q0 44 32.5 75.5t78.5 31.5t78 -31.5t32 -75.5q0 -33 -16.5 -76t-89.5 -204q-30 -64 -47 -103h-105z" />
<glyph unicode="&#x201a;" horiz-adv-x="561" d="M133 -299l109 289q-70 24 -70 92q0 45 32.5 75.5t78.5 30.5t78 -30.5t32 -75.5q0 -8 -0.5 -14.5t-1.5 -13t-4.5 -16.5t-6.5 -19.5t-11 -27t-14.5 -33.5t-20 -44.5t-25.5 -55t-32 -71t-39 -86.5h-105z" />
<glyph unicode="&#x201c;" horiz-adv-x="909" d="M143 1182q0 9 0.5 15.5t3 17t5 18.5t9.5 25.5t14 32.5t20.5 45.5t26 58t34.5 76t43 94.5h104l-108 -291q70 -24 70 -92q0 -44 -32.5 -75.5t-76.5 -31.5q-47 0 -80 31.5t-33 75.5zM492 1182q0 33 16.5 76t89.5 204q10 20 15.5 32t14.5 32.5t17 38.5h105l-109 -291 q72 -25 72 -92q0 -44 -32.5 -75.5t-78.5 -31.5t-78 31.5t-32 75.5z" />
<glyph unicode="&#x201d;" horiz-adv-x="909" d="M143 1090l111 290q-72 25 -72 90q0 46 32.5 77.5t78.5 31.5t78 -31.5t32 -77.5q0 -8 -0.5 -14.5t-1.5 -13t-4.5 -16.5t-7 -19.5t-10.5 -26.5t-14.5 -33t-20.5 -44.5t-25 -55.5t-32 -71t-39 -86h-105zM492 1090l108 290q-72 25 -72 90q0 46 32.5 77.5t78.5 31.5 t78.5 -31.5t32.5 -77.5q0 -30 -13.5 -65t-77.5 -176q-12 -27 -19 -42.5t-20 -43.5t-24 -53h-104z" />
<glyph unicode="&#x201e;" horiz-adv-x="913" d="M133 -299l109 289q-70 24 -70 92q0 45 32.5 75.5t78.5 30.5t78 -30.5t32 -75.5q0 -8 -0.5 -14.5t-1.5 -13t-4.5 -16.5t-6.5 -19.5t-11 -27t-14.5 -33.5t-20 -44.5t-25.5 -55t-32 -71t-39 -86.5h-105zM485 -299l109 289q-72 25 -72 92q0 45 33 75.5t78 30.5q46 0 79 -30.5 t33 -75.5q0 -8 -0.5 -14.5t-1.5 -13t-4.5 -16.5t-6.5 -19.5t-11 -27t-14.5 -33.5t-20 -44.5t-25.5 -55t-32 -71t-39 -86.5h-105z" />
<glyph unicode="&#x2022;" horiz-adv-x="649" d="M90 608q0 98 68 165t166 67q100 0 166.5 -67t66.5 -165t-66.5 -164.5t-166.5 -66.5q-99 0 -166.5 66.5t-67.5 164.5z" />
<glyph unicode="&#x2026;" horiz-adv-x="1464" d="M170 82q0 45 32.5 75.5t78.5 30.5t78 -30.5t32 -75.5q0 -46 -32 -77.5t-78 -31.5t-78.5 31.5t-32.5 77.5zM616 82q0 45 32.5 75.5t78.5 30.5t78.5 -30.5t32.5 -75.5q0 -46 -32.5 -77.5t-78.5 -31.5t-78.5 31.5t-32.5 77.5zM1073 82q0 45 32.5 75.5t78.5 30.5t78 -30.5 t32 -75.5q0 -46 -32 -77.5t-78 -31.5t-78.5 31.5t-32.5 77.5z" />
<glyph unicode="&#x202f;" horiz-adv-x="375" />
<glyph unicode="&#x2039;" horiz-adv-x="716" d="M104 504l381 401l82 -65l-299 -332l297 -332l-80 -76z" />
<glyph unicode="&#x203a;" horiz-adv-x="716" d="M150 840l81 65l379 -401l-379 -404l-79 76l294 332z" />
<glyph unicode="&#x205f;" horiz-adv-x="469" />
<glyph unicode="&#x20ac;" horiz-adv-x="1609" d="M135 471v104h158q-8 78 -8 115q0 30 4 88h-154v105h168q53 250 239 395t466 145q235 0 462 -80l-28 -126q-234 63 -418 63q-216 0 -360.5 -106t-192.5 -291h647l-26 -105h-646q-4 -29 -4 -86q0 -58 9 -117h591l-26 -104h-533q53 -169 189.5 -265.5t331.5 -96.5 q200 0 466 73l27 -125q-269 -88 -500 -88q-262 0 -442.5 134.5t-241.5 367.5h-178z" />
<glyph unicode="&#x2122;" horiz-adv-x="1480" d="M25 1303v90h567v-90h-234v-539h-98v539h-235zM670 764l32 629h95l233 -510l227 510h91l38 -629h-94l-26 430l-195 -430h-86l-197 430l-24 -430h-94z" />
<glyph unicode="&#x25fc;" horiz-adv-x="942" d="M0 0v942h942v-942h-942z" />
<glyph unicode="&#xfb03;" horiz-adv-x="1947" d="M12 819v127h234v164q0 211 112.5 321.5t315.5 110.5q109 0 195 -30.5t192 -98.5q111 129 332 129q100 0 178 -23.5t176 -78.5l-66 -101q-133 76 -280 76q-295 0 -295 -307v-162h688v-946h-141v819h-547v-819h-139v819h-580v-819h-141v819h-234zM387 946h580v164 q0 120 32 197q-78 57 -153 82.5t-166 25.5q-293 0 -293 -307v-162z" />
<glyph unicode="&#xfb04;" horiz-adv-x="1972" d="M12 819v127h234v164q0 211 112.5 321.5t315.5 110.5q108 0 194 -30t189 -97q109 127 329 127q135 0 279 -65l113 -7v-1470h-140v1362q-60 29 -115 41t-132 12q-140 0 -212.5 -76.5t-72.5 -220.5v-172h377v-127h-377v-819h-139v819h-580v-819h-141v819h-234zM387 946h580 v176q0 108 30 187q-79 56 -153 81t-164 25q-293 0 -293 -307v-162z" />
</font>
</defs>
</svg>
