<?xml version="1.0" encoding="iso-8859-1"?>
<!-- Generator: Adobe Illustrator 18.1.1, SVG Export Plug-In . SVG Version: 6.00 Build 0)  -->
<svg version="1.1" id="Capa_1" xmlns="http://www.w3.org/2000/svg" xmlns:xlink="http://www.w3.org/1999/xlink" x="0px" y="0px"
	 viewBox="0 0 60.513 60.513" style="enable-background:new 0 0 60.513 60.513;" xml:space="preserve">
<g>
	<g>
		<path style="fill:#030104;" d="M60.035,52.175L32.361,5.58c-0.576-0.968-1.476-1.524-2.467-1.524c-1.002,0-1.908,0.566-2.48,1.552
			L0.46,52.182c-0.571,0.984-0.612,2.047-0.112,2.914c0.497,0.865,1.437,1.361,2.577,1.361h54.673c1.143,0,2.082-0.498,2.578-1.369
			C60.671,54.219,60.619,53.157,60.035,52.175z M55.324,52.845H5.156c-0.499,0-0.7-0.351-0.45-0.783L29.452,9.306
			c0.25-0.433,0.659-0.436,0.914-0.006l25.399,42.768C56.021,52.496,55.824,52.845,55.324,52.845z"/>
		<path style="fill:#030104;" d="M30.498,41.968c1.08,0,1.997-0.955,2.045-2.133l0.713-17.436c0.051-1.178-0.867-2.131-2.046-2.131
			h-1.959c-1.178,0-2.072,0.952-1.993,2.13l1.143,17.44C28.478,41.014,29.416,41.968,30.498,41.968z"/>
		<path style="fill:#030104;" d="M31.232,44.104h-1.956c-1.179,0-2.135,0.953-2.135,2.135v1.955c0,1.179,0.956,2.135,2.135,2.135
			h1.956c1.181,0,2.138-0.956,2.138-2.135v-1.955C33.37,45.057,32.413,44.104,31.232,44.104z"/>
	</g>
</g>
<g>
</g>
<g>
</g>
<g>
</g>
<g>
</g>
<g>
</g>
<g>
</g>
<g>
</g>
<g>
</g>
<g>
</g>
<g>
</g>
<g>
</g>
<g>
</g>
<g>
</g>
<g>
</g>
<g>
</g>
</svg>
