<svg xmlns="http://www.w3.org/2000/svg" xmlns:xlink="http://www.w3.org/1999/xlink" preserveAspectRatio="xMidYMid" width="73" height="70" viewBox="0 0 73 70">
  <defs>
    <style>

      .cls-2 {
        fill: #e39315;
      }
    </style>
  </defs>
  <path d="M62.146,18.567 C62.042,8.319 53.592,0.014 43.220,0.014 C36.066,0.014 29.680,3.904 26.441,10.078 C24.503,8.338 21.962,7.341 19.326,7.341 C13.468,7.341 8.703,12.107 8.703,17.963 C8.703,18.339 8.723,18.716 8.764,19.093 C3.547,21.093 -0.006,26.167 -0.006,31.812 C-0.006,39.319 6.103,45.428 13.611,45.428 C13.611,45.428 20.711,45.428 20.711,45.428 C20.711,45.428 20.711,42.828 20.711,42.828 C20.711,42.828 13.611,42.828 13.611,42.828 C7.536,42.828 2.594,37.887 2.594,31.812 C2.594,26.932 5.878,22.577 10.582,21.223 C10.582,21.223 11.753,20.886 11.753,20.886 C11.753,20.886 11.492,19.695 11.492,19.695 C11.366,19.122 11.303,18.539 11.303,17.963 C11.303,13.539 14.902,9.940 19.326,9.940 C21.884,9.940 24.230,11.119 25.765,13.173 C25.765,13.173 27.158,15.039 27.158,15.039 C27.158,15.039 28.015,12.874 28.015,12.874 C30.484,6.641 36.453,2.613 43.220,2.613 C52.224,2.613 59.547,9.856 59.547,18.758 C59.547,19.030 59.539,19.301 59.526,19.572 C59.526,19.572 59.470,20.745 59.470,20.745 C59.470,20.745 60.632,20.919 60.632,20.919 C65.981,21.724 70.016,26.406 70.016,31.812 C70.016,37.887 65.074,42.828 58.999,42.828 C58.999,42.828 51.912,42.828 51.912,42.828 C51.912,42.828 51.912,45.428 51.912,45.428 C51.912,45.428 58.999,45.428 58.999,45.428 C66.507,45.428 72.616,39.319 72.616,31.812 C72.616,25.516 68.189,20.013 62.146,18.567 ZM37.612,64.253 C37.612,64.253 37.612,42.041 37.612,42.041 C37.612,42.041 35.012,42.041 35.012,42.041 C35.012,42.041 35.012,64.253 35.012,64.253 C35.012,64.253 25.532,54.773 25.532,54.773 C25.532,54.773 23.693,56.611 23.693,56.611 C23.693,56.611 36.312,69.230 36.312,69.230 C36.312,69.230 48.932,56.611 48.932,56.611 C48.932,56.611 47.093,54.773 47.093,54.773 C47.093,54.773 37.612,64.253 37.612,64.253 Z" id="path-1" class="cls-2" fill-rule="evenodd"/>
</svg>
